<svg id="Layer_1" data-name="Layer 1" xmlns="http://www.w3.org/2000/svg" width="11.2in" height="12.6in" viewBox="0 0 804.9 909.4"><title>awt-icon-orange</title><path d="M266.2,446.7s-.3-44.1,20.5-131.7L146.4,379.9l-30.3,84Z" fill="#ffa168"/><path d="M538.8,446.8s.3-44.2-20.5-131.7L658.6,380l30.3,84Z" fill="#ffa168"/><path d="M316.8,791.3c18-33.3,44-74.5,73.1-120.2-30.7-48.1-40.9-62.6-61.7-97-38.4,65.4-66.8,114.8-74.7,143.1Z" fill="#ffa168"/><path d="M402.8,115.8a3.6,3.6,0,0,0-2,.6c-30.1,19.1-39.4,73.2-43.3,116.6-1.5,16.6-2.1,32.9-2.2,47.4,10.9-45.9,26.9-73.3,46.9-73.3s36.5,26.8,47.4,73.1c-.2-14.2-.8-30.2-2.5-46.5-4.3-43.7-13-98.2-42.5-117.3a5.5,5.5,0,0,0-1.8-.6Z" fill="#ffa168"/><path d="M341.1,327c-1.5-15.6-2.6-54,1.1-94.8,2.2-24.4,5.9-45.7,11.2-63.6-38.1,80.4-69,226.1-69,280.9,0,39,144.4,241.2,199.2,342.3l63.2-74C527.4,647.5,341.9,375.7,341.1,327Z" fill="#ffa168"/><path d="M451.3,168.5c5.2,18.1,9,39.8,11.2,64.5,3.5,40.3,2.4,78.3,1.1,93.9s-22.8,60.7-51.1,110.7c26.5,46.4,39.8,69.4,61.8,106,23.2-39.2,45.9-81.1,45.9-94C520.2,394.8,489.4,248.9,451.3,168.5Z" fill="#ffa168"/></svg>