<svg xmlns="http://www.w3.org/2000/svg" width="112.1in" height="90.9in" viewBox="0 0 8074.1 6541.5"><title>concept-2</title><g id="art"><path d="M2985.6,5687.5c4,15.7,13.1,46.9,13.1,46.9s29.4-6.4,74.8-42.3C3065.4,5692.8,3019.3,5693.3,2985.6,5687.5Z" fill="#ffa168"/><path d="M3407.2,5548.9c6.1,15,17.3,45.5,17.3,45.5s-27.5,12.3-85.3,10.4C3346.2,5600.5,3383.5,5573.5,3407.2,5548.9Z" fill="#00bc70"/><circle cx="3056.8" cy="5194.2" r="454.1" fill="#5ec8dc"/><path d="M2831.1,4708s-219.7,386.2-28,977.6c0,0,66.3,45.7,176.4,62,0,0-228.7-717.2,51.7-1097.1C3031.2,4650.5,2904.8,4656.4,2831.1,4708Z" fill="#ffa168" stroke="#fff" stroke-miterlimit="10" stroke-width="44.72"/><path d="M2539,5205s-11.7,101.7,27,159.4c103,45,652.9,94.1,987.6-326.1,0,0-7.4-76.6-79.7-145.9C3276.8,5165.2,2850.7,5287.9,2539,5205Z" fill="#fbcf63" stroke="#fff" stroke-miterlimit="10" stroke-width="44.72"/><path d="M2993.5,4710c131.3,75.2,436,372.8,563,762.3,0,0-22.2,61.9-112.7,147.1,0,0-188.1-512-512.7-754.5C2938.3,4837.5,2958,4765,2993.5,4710Z" fill="#00bc70" stroke="#fff" stroke-miterlimit="10" stroke-width="44.72"/><path d="M3843.4,5029.9h-61.9l-12.2,37.7c-4.2,2.4-10.8,3.4-19.1,3.4s-14.6-1.2-18.6-3.4l59.2-170.7c5.1-1.4,13.2-2.4,22-2.4a91.6,91.6,0,0,1,22.3,2.4l58.6,170.7c-3.4,2.2-9.7,3.4-19,3.4s-14.9-1.2-19.1-3.4Zm-9.6-30-9.2-28.9c-4.9-15.1-8.6-33-11.3-50.1h-2a327.7,327.7,0,0,1-11.7,50.8l-9,28.2Z" fill="#5ec8dc"/><path d="M3987.9,5055.4c-5.4,11-16.9,19.5-38.4,19.5-19.1,0-40.6-6.6-40.6-47.2v-74.5c8.3-4.7,20.1-7.4,35.5-7.4v75.8c0,13.2,4.1,20.6,18.3,20.6,11.5,0,19.1-4.9,23.5-10.5v-81.5c3.4-1.7,9.3-2.9,17.8-2.9s14.4,1.2,17.6,2.9v116.7c-6.3,3.6-16.4,5.6-27.6,5.6l-4.2-17.1Z" fill="#5ec8dc"/><path d="M4128.7,4948.3c1.5,2.9,2.2,9,2.2,15.1s-.7,12.3-2.2,15.2h-32.5v46c0,11.7,3.4,17.8,16.6,17.8a38.1,38.1,0,0,0,22.3-6.6c1.2,10.3-2.7,24.7-7.6,31.1-7.1,5.1-15.7,8-27.9,8-30.1,0-38.9-18.1-38.9-45v-51.3h-18.8c0-10.5,1.7-22.5,4.9-30.3h13.9v-26.4c8.8-6.4,21.8-9.6,35.5-9.8v36.2Z" fill="#5ec8dc"/><path d="M4195.2,4906c0,14.4-8.5,22.2-21.2,22.2s-21.6-7.6-21.6-22,9.1-21.3,21.6-21.3S4195.2,4892.5,4195.2,4906Zm-39.1,44.2c3.4-1.7,9.3-2.9,17.9-2.9s14.4,1.2,17.6,2.9v117.9c-3.2,1.7-9.1,2.9-17.6,2.9s-14.5-1.2-17.9-2.9Z" fill="#5ec8dc"/><path d="M4259.8,5047.5c12.4,0,17.3-3.9,17.3-11.2,0-19.3-55.7-9.8-55.7-53.3,0-24.9,15.9-39.6,45.5-39.6,12.2,0,25.1,2.4,34.7,8.3,4.4,7.1,7.1,20.5,5.9,30.1-11.1-6.9-24.7-11.3-36.7-11.3-10.5,0-13.7,3.4-13.7,9.3,0,18.1,56,9.1,56,52.3,0,31.3-21.8,42.8-52.1,42.8-12.7,0-26.7-1.9-37.2-6.8-5.1-8.3-7.1-23.2-5.3-31.6C4228.5,5042.9,4246.3,5047.5,4259.8,5047.5Z" fill="#5ec8dc"/><path d="M4374.4,5068.1c-3.1,1.7-9,2.9-17.6,2.9s-14.4-1.2-17.8-2.9V4951.5c6.6-3.7,17.1-5.7,28.8-5.7l2,20.1h2c5.6-12,17.6-22.5,39.6-22.5,14.4,0,28.8,4.1,35.4,21.3h2c5.1-11.5,17.1-21.3,38.9-21.3,18.3,0,39.8,6.6,39.8,46.9v77.8c-3.2,1.7-9,2.9-17.6,2.9s-14.4-1.2-17.8-2.9v-71.4c0-12.7-4.2-20.8-18.1-20.8-12.3,0-19.4,6.4-23.5,13.9.2,2.2.5,7.4.5,12.5v65.8c-3.2,1.7-8.8,2.9-17.4,2.9s-14.2-1.2-17.6-2.9v-71.4c0-12.7-4.1-20.8-18.1-20.8-12.5,0-19.3,6.4-23.5,13.9Z" fill="#5ec8dc"/><path d="M3903,5164.2h-1.9c-2,14.7-7.8,36.2-11.8,48.9l-29,95.4c-3.7,1.7-9.3,2.4-17.9,2.4s-13.7-.7-17.4-2.4l-30-96.6c-3.7-11.5-9.3-34-10.8-47.7h-1.9v143.6c-3.5,1.9-8.8,2.6-16.7,2.6s-12.9-.7-16.4-2.6V5137.3c6.6-1.7,15.7-2.7,27.4-2.7s21.3,1,27.7,2.7l28.1,90a287.5,287.5,0,0,1,10.2,48.2h2c2.2-16.4,5.9-35.5,9.5-47.7l26.9-90.5c6.4-1.7,15.4-2.7,27.7-2.7s20.7,1,27.3,2.7v170.5c-3.4,1.9-8.5,2.6-16.3,2.6s-13.2-.7-16.7-2.6Z" fill="#5ec8dc"/><path d="M4003.3,5260.1c1.5,17.1,13.7,25.4,37.9,25.4,15.6,0,29.3-3.4,38.1-7.3.8,9.3-3.1,21.2-8.8,27.6-8,4.6-21.7,8.6-38.6,8.6-42.8,0-65.5-24.7-65.5-64.4s24.4-67.2,62.8-67.2c35.7,0,52.1,22,52.1,54.3a75.9,75.9,0,0,1-3.7,23Zm44.7-25.7c2-12.7-2.7-25.2-20.3-25.2-15.1,0-24.4,9.8-25.4,25.2Z" fill="#5ec8dc"/><path d="M4184,5134.2c8.3-4.7,19.8-7.1,35.4-7.1v179.2c-6.6,3.7-16.3,5.6-26.4,5.6l-4.6-16.9h-2c-6.3,12.8-20.5,19.4-36.9,19.4-33,0-48.7-24.7-48.7-61.2,0-44.7,23.5-70.4,60.4-70.4,8.8,0,16.9,1.5,22.8,4.4Zm.5,82.6c-4.2-2.2-9.8-3.2-15.4-3.2-22,0-31.8,14.9-31.8,37.2s8.8,31.5,24.9,31.5c10.8,0,17.4-4.9,22.3-9Z" fill="#5ec8dc"/><path d="M4293.3,5145.4c0,14.4-8.6,22.2-21.3,22.2s-21.5-7.5-21.5-22,9-21.2,21.5-21.2S4293.3,5132,4293.3,5145.4Zm-39.1,44.3c3.4-1.8,9.2-3,17.8-3s14.4,1.2,17.6,3v117.8c-3.2,1.7-9,2.9-17.6,2.9s-14.4-1.2-17.8-2.9Z" fill="#5ec8dc"/><path d="M4388.9,5282.8a68.2,68.2,0,0,0,30.8-7.1c1.4,9.8-3,25-9.6,31.8-8,3.9-18.8,6.9-32.7,6.9-39.6,0-61.1-24.3-61.1-64.1,0-45.5,27.3-67.5,64.5-67.5,12,0,22.7,2.2,29.8,6.6,5.4,6.9,8.1,21.5,6.4,31.6-8.8-5.2-16.9-7.6-28.1-7.6-22,0-36.2,9.8-36.2,34.4S4366.9,5282.8,4388.9,5282.8Z" fill="#5ec8dc"/><path d="M4509.4,5296.7c-5.4,10.8-16.9,17.7-33.7,17.7-21.5,0-40.1-10.8-40.1-39.2s21.5-41.3,49.9-41.3a73.1,73.1,0,0,1,22.2,3.2v-3.4c0-14.9-7.3-20.3-23.5-20.3a80.1,80.1,0,0,0-39.1,10.2c-2.9-9.5-1.7-24.7,3.9-32.7,8.8-4.9,24-8.1,42.1-8.1,35.2,0,52.1,12.5,52.1,48.7v42.3c0,7.5,3.4,9.3,8.3,9.3a19.5,19.5,0,0,0,10.5-3c1,9.8-2,21.8-6.4,28.6-5.1,3.5-12,5.7-20.3,5.7-14.1,0-21.5-6.2-23.9-17.7Zm-1-36.1a42,42,0,0,0-16.1-3c-14.2,0-21.3,5.9-21.3,15.2s7.1,12.9,16.9,12.9c7.8,0,15.6-2.4,20.5-8.5Z" fill="#5ec8dc"/><path d="M4610.9,5314.4c-24.5,0-31.8-15.9-31.8-37.7V5134.2c8.3-4.7,19.8-7.1,35.5-7.1v143.7c0,9.3,3.1,11.8,10.2,11.8a26.4,26.4,0,0,0,14.9-4.4c1,10.2-2.2,23.4-6.8,30.5C4627.3,5312.2,4619.9,5314.4,4610.9,5314.4Z" fill="#5ec8dc"/><path d="M3821.4,5407.6v139.1c-3.4,1.9-9.6,3.2-18.4,3.2s-14.9-1.3-18.5-3.2V5407.6h-49.2c-1.5-3.2-2.7-9.8-2.7-16.4s1.2-13,2.7-16.2h135.2c1.5,3.2,2.7,9.6,2.7,16.2s-1.2,13.2-2.7,16.4Z" fill="#5ec8dc"/><path d="M3935.8,5422.2a26.8,26.8,0,0,1,11.5,2.2c3.4,6.1,5.1,13,5.1,22.3,0,7.1-.9,11.5-2.2,14.9-4.6-2.7-9.3-4.2-16.8-4.2-12.5,0-21.8,8.6-26.4,21.3v68.2c-3.2,1.7-9.1,3-17.7,3s-14.4-1.3-17.8-3V5430.3c6.6-3.7,16.9-5.6,28.6-5.6l2.5,22.5h1.9C3907.9,5433.7,3915.8,5422.2,3935.8,5422.2Z" fill="#5ec8dc"/><path d="M4030.9,5536.2c-5.4,10.7-16.9,17.6-33.7,17.6-21.5,0-40.1-10.8-40.1-39.1,0-29.9,21.5-41.4,49.9-41.4a73.1,73.1,0,0,1,22.2,3.2v-3.4c0-14.9-7.3-20.3-23.5-20.3a79.4,79.4,0,0,0-39.1,10.3c-2.9-9.6-1.7-24.7,3.9-32.8,8.8-4.9,24-8.1,42.1-8.1,35.2,0,52.1,12.5,52.1,48.7v42.3c0,7.6,3.4,9.3,8.3,9.3a18.6,18.6,0,0,0,10.5-3c1,9.8-2,21.8-6.4,28.7-5.1,3.4-11.9,5.6-20.3,5.6-14.1,0-21.5-6.1-23.9-17.6Zm-1-36.2a41.6,41.6,0,0,0-16.1-3c-14.2,0-21.3,5.9-21.3,15.2s7.1,13,16.9,13c7.8,0,15.7-2.5,20.5-8.6Z" fill="#5ec8dc"/><path d="M4149.5,5522.5a264.3,264.3,0,0,1,7.1-31.6l18.6-63c2.7-1,6.8-2.2,14.7-2.2,10,0,16.8,1.9,21.2,4.8l-38.6,115.9c-13,3.7-31.1,4.9-48.4,4.9L4084,5430.5c4.4-2.9,11.2-4.8,21.5-4.8,7.3,0,12.5,1.2,14.7,2.2l19.8,63a251.6,251.6,0,0,1,7.6,31.6Z" fill="#5ec8dc"/><path d="M4256.6,5499.5c1.5,17.1,13.7,25.4,37.9,25.4,15.7,0,29.3-3.4,38.1-7.3.8,9.3-3.1,21.3-8.8,27.6-8,4.7-21.7,8.6-38.6,8.6-42.8,0-65.5-24.7-65.5-64.3s24.4-67.3,62.8-67.3c35.7,0,52.1,22,52.1,54.3a75.9,75.9,0,0,1-3.7,23Zm44.7-25.7c2-12.7-2.6-25.2-20.2-25.2-15.2,0-24.5,9.8-25.5,25.2Z" fill="#5ec8dc"/><path d="M4393,5553.8c-24.4,0-31.7-15.9-31.7-37.7V5373.6c8.3-4.7,19.8-7.1,35.4-7.1v143.8c0,9.2,3.2,11.7,10.3,11.7a26.4,26.4,0,0,0,14.9-4.4c1,10.3-2.2,23.5-6.9,30.6C4409.4,5551.6,4402.1,5553.8,4393,5553.8Z" fill="#5ec8dc"/><path d="M6112.9,5788.6c4,15.7,13.1,46.9,13.1,46.9s29.4-6.4,74.7-42.2C6192.6,5793.9,6146.5,5794.4,6112.9,5788.6Z" fill="#ff7f40"/><path d="M6534.5,5650c6.1,15.1,17.2,45.6,17.2,45.6s-27.4,12.3-85.2,10.3C6473.4,5701.6,6510.8,5674.7,6534.5,5650Z" fill="#00bc70"/><circle cx="6184.1" cy="5295.4" r="454.1" fill="#5ec8dc"/><path d="M5958.3,4809.2s-219.6,386.2-28,977.5c0,0,66.3,45.7,176.4,62,0,0-228.6-717.1,51.7-1097.1C6158.4,4751.6,6032,4757.6,5958.3,4809.2Z" fill="#ff7f40" stroke="#fff" stroke-miterlimit="10" stroke-width="44.72"/><path d="M5666.2,5306.2s-11.6,101.6,27,159.3c103,45,652.9,94.2,987.6-326,0,0-7.4-76.7-79.6-146C6404,5266.4,5978,5389.1,5666.2,5306.2Z" fill="#fbcf63" stroke="#fff" stroke-miterlimit="10" stroke-width="44.72"/><path d="M6120.8,4811.1c131.2,75.2,435.9,372.8,562.9,762.3,0,0-22.1,61.9-112.7,147.1,0,0-188-512-512.7-754.5C6065.6,4938.6,6085.3,4866.1,6120.8,4811.1Z" fill="#00bc70" stroke="#fff" stroke-miterlimit="10" stroke-width="44.72"/><path d="M6970.6,5131.1h-61.8l-12.3,37.6c-4.1,2.5-10.7,3.4-19,3.4s-14.7-1.2-18.6-3.4l59.2-170.6c5.1-1.5,13.2-2.5,22-2.5s17.1,1,22.2,2.5l58.7,170.6c-3.4,2.2-9.8,3.4-19.1,3.4s-14.9-1.2-19.1-3.4Zm-9.5-30.1-9.3-28.9c-4.9-15.1-8.6-33-11.3-50.1h-1.9a353.9,353.9,0,0,1-11.7,50.9l-9.1,28.1Z" fill="#5ec8dc"/><path d="M7115.1,5156.5c-5.4,11-16.8,19.6-38.4,19.6-19,0-40.5-6.6-40.5-47.2v-74.6c8.3-4.7,20-7.3,35.4-7.3v75.8c0,13.2,4.2,20.5,18.3,20.5,11.5,0,19.1-4.9,23.5-10.5v-81.4c3.4-1.8,9.3-3,17.9-3s14.4,1.2,17.6,3V5168c-6.4,3.7-16.4,5.6-27.7,5.6l-4.1-17.1Z" fill="#5ec8dc"/><path d="M7256,5049.4c1.4,2.9,2.2,9.1,2.2,15.2s-.8,12.2-2.2,15.1h-32.6v46c0,11.7,3.5,17.8,16.7,17.8a37.3,37.3,0,0,0,22.2-6.6c1.2,10.3-2.7,24.7-7.6,31.1-7.1,5.1-15.6,8.1-27.8,8.1-30.1,0-38.9-18.1-38.9-45v-51.4h-18.8c0-10.5,1.7-22.5,4.9-30.3H7188V5023c8.8-6.4,21.7-9.5,35.4-9.8v36.2Z" fill="#5ec8dc"/><path d="M7322.5,5007.1c0,14.4-8.6,22.3-21.3,22.3s-21.5-7.6-21.5-22.1,9-21.2,21.5-21.2S7322.5,4993.7,7322.5,5007.1Zm-39.2,44.3c3.5-1.8,9.3-3,17.9-3s14.4,1.2,17.6,3v117.8c-3.2,1.7-9,2.9-17.6,2.9s-14.4-1.2-17.9-2.9Z" fill="#5ec8dc"/><path d="M7387,5148.7c12.5,0,17.4-3.9,17.4-11.3,0-19.3-55.8-9.8-55.8-53.3,0-24.9,15.9-39.6,45.5-39.6,12.2,0,25.2,2.5,34.7,8.3,4.4,7.1,7.1,20.6,5.9,30.1-11-6.8-24.7-11.2-36.7-11.2-10.5,0-13.7,3.4-13.7,9.2,0,18.1,56,9.1,56,52.4,0,31.3-21.7,42.8-52.1,42.8-12.7,0-26.6-2-37.1-6.9-5.2-8.3-7.1-23.2-5.4-31.5C7355.7,5144,7373.6,5148.7,7387,5148.7Z" fill="#5ec8dc"/><path d="M7501.7,5169.2c-3.2,1.7-9.1,2.9-17.6,2.9s-14.4-1.2-17.9-2.9V5052.6c6.6-3.7,17.2-5.6,28.9-5.6l1.9,20h2c5.6-12,17.6-22.5,39.6-22.5,14.4,0,28.9,4.2,35.5,21.3h1.9c5.2-11.5,17.1-21.3,38.9-21.3,18.3,0,39.9,6.6,39.9,47v77.7c-3.2,1.7-9.1,2.9-17.7,2.9s-14.4-1.2-17.8-2.9v-71.4c0-12.7-4.2-20.8-18.1-20.8-12.2,0-19.3,6.4-23.5,14a119.6,119.6,0,0,1,.5,12.4v65.8c-3.2,1.7-8.8,2.9-17.3,2.9s-14.2-1.2-17.6-2.9v-71.4c0-12.7-4.2-20.8-18.1-20.8s-19.4,6.4-23.5,14Z" fill="#5ec8dc"/><path d="M7030.3,5265.4h-2c-1.9,14.6-7.8,36.1-11.7,48.9l-29.1,95.3c-3.7,1.7-9.3,2.5-17.9,2.5s-13.6-.8-17.3-2.5l-30.1-96.6c-3.7-11.5-9.3-34-10.7-47.6h-2v143.5c-3.4,1.9-8.8,2.7-16.6,2.7s-13-.8-16.4-2.7V5238.5c6.6-1.8,15.6-2.7,27.4-2.7s21.2.9,27.6,2.7l28.1,89.9a287.2,287.2,0,0,1,10.3,48.2h1.9c2.2-16.4,5.9-35.4,9.6-47.7l26.9-90.4c6.3-1.8,15.4-2.7,27.6-2.7s20.8.9,27.4,2.7v170.4c-3.4,1.9-8.6,2.7-16.4,2.7s-13.2-.8-16.6-2.7Z" fill="#5ec8dc"/><path d="M7130.5,5361.2c1.5,17.1,13.7,25.4,37.9,25.4,15.7,0,29.4-3.4,38.2-7.3.7,9.3-3.2,21.3-8.8,27.6-8.1,4.7-21.8,8.6-38.7,8.6-42.8,0-65.5-24.7-65.5-64.3s24.5-67.3,62.8-67.3c35.7,0,52.1,22,52.1,54.3a75.9,75.9,0,0,1-3.6,23Zm44.8-25.7c1.9-12.7-2.7-25.2-20.3-25.2-15.2,0-24.5,9.8-25.4,25.2Z" fill="#5ec8dc"/><path d="M7311.2,5235.3c8.3-4.7,19.8-7.1,35.5-7.1v179.2c-6.6,3.7-16.4,5.6-26.4,5.6l-4.7-16.8h-1.9c-6.4,12.7-20.6,19.3-37,19.3-33,0-48.6-24.7-48.6-61.1,0-44.8,23.5-70.5,60.4-70.5,8.8,0,16.9,1.5,22.7,4.4Zm.5,82.6c-4.1-2.2-9.8-3.2-15.4-3.2-22,0-31.8,15-31.8,37.2s8.8,31.6,25,31.6c10.7,0,17.3-4.9,22.2-9.1Z" fill="#5ec8dc"/><path d="M7420.5,5246.5c0,14.5-8.5,22.3-21.3,22.3s-21.5-7.6-21.5-22,9.1-21.3,21.5-21.3S7420.5,5233.1,7420.5,5246.5Zm-39.1,44.3c3.4-1.7,9.3-3,17.8-3s14.5,1.3,17.6,3v117.8c-3.1,1.7-9,3-17.6,3s-14.4-1.3-17.8-3Z" fill="#5ec8dc"/><path d="M7516.1,5383.9a67.9,67.9,0,0,0,30.8-7.1c1.5,9.8-2.9,25-9.5,31.8-8.1,3.9-18.8,6.9-32.8,6.9-39.6,0-61.1-24.2-61.1-64.1,0-45.5,27.4-67.5,64.5-67.5,12,0,22.8,2.2,29.9,6.6,5.4,6.9,8,21.6,6.3,31.6-8.8-5.2-16.8-7.6-28.1-7.6-22,0-36.2,9.8-36.2,34.5S7494.1,5383.9,7516.1,5383.9Z" fill="#5ec8dc"/><path d="M7636.7,5397.9c-5.4,10.7-16.9,17.6-33.8,17.6-21.5,0-40.1-10.8-40.1-39.1,0-29.9,21.5-41.4,49.9-41.4a72.2,72.2,0,0,1,22.2,3.2v-3.4c0-14.9-7.3-20.3-23.4-20.3a79.1,79.1,0,0,0-39.1,10.3c-3-9.6-1.8-24.7,3.9-32.8,8.8-4.9,23.9-8.1,42-8.1,35.2,0,52.1,12.5,52.1,48.7v42.3c0,7.6,3.4,9.3,8.3,9.3a18.2,18.2,0,0,0,10.5-3c1,9.8-1.9,21.8-6.3,28.7a36.6,36.6,0,0,1-20.3,5.6c-14.2,0-21.5-6.1-24-17.6Zm-1-36.2a42.5,42.5,0,0,0-16.2-2.9c-14.1,0-21.2,5.8-21.2,15.1s7.1,13,16.8,13c7.9,0,15.7-2.5,20.6-8.6Z" fill="#5ec8dc"/><path d="M7738.1,5415.5c-24.4,0-31.8-15.9-31.8-37.7V5235.3c8.4-4.7,19.8-7.1,35.5-7.1V5372c0,9.2,3.2,11.7,10.3,11.7a26.4,26.4,0,0,0,14.9-4.4c1,10.3-2.2,23.5-6.9,30.6C7754.5,5413.3,7747.2,5415.5,7738.1,5415.5Z" fill="#5ec8dc"/><path d="M6948.6,5508.7v139.1c-3.4,2-9.5,3.2-18.3,3.2s-14.9-1.2-18.6-3.2V5508.7h-49.1c-1.5-3.2-2.7-9.8-2.7-16.4s1.2-13,2.7-16.1h135.2c1.4,3.1,2.7,9.5,2.7,16.1s-1.3,13.2-2.7,16.4Z" fill="#5ec8dc"/><path d="M7063,5523.4c4.7,0,8.6.7,11.5,2.2,3.5,6.1,5.2,12.9,5.2,22.2,0,7.1-1,11.5-2.2,14.9-4.7-2.7-9.3-4.1-16.9-4.1-12.5,0-21.8,8.5-26.4,21.2v68.3c-3.2,1.7-9.1,2.9-17.6,2.9s-14.4-1.2-17.9-2.9V5531.4c6.6-3.6,16.9-5.6,28.6-5.6l2.5,22.5h2C7035.2,5534.8,7043,5523.4,7063,5523.4Z" fill="#5ec8dc"/><path d="M7158.2,5637.3c-5.4,10.8-16.9,17.6-33.8,17.6-21.5,0-40.1-10.8-40.1-39.1s21.5-41.3,49.9-41.3a73.3,73.3,0,0,1,22.3,3.1v-3.4c0-14.9-7.4-20.3-23.5-20.3a79.1,79.1,0,0,0-39.1,10.3c-3-9.5-1.8-24.7,3.9-32.8,8.8-4.9,23.9-8,42-8,35.2,0,52.1,12.4,52.1,48.6v42.3c0,7.6,3.4,9.3,8.3,9.3a18.9,18.9,0,0,0,10.5-2.9c1,9.8-1.9,21.7-6.3,28.6a36.6,36.6,0,0,1-20.3,5.6c-14.2,0-21.5-6.1-24-17.6Zm-1-36.2a44.5,44.5,0,0,0-16.2-2.9c-14.1,0-21.2,5.8-21.2,15.1s7.1,13,16.8,13c7.9,0,15.7-2.5,20.6-8.6Z" fill="#5ec8dc"/><path d="M7276.8,5623.6a258.3,258.3,0,0,1,7-31.5l18.6-63.1c2.7-1,6.9-2.2,14.7-2.2,10,0,16.9,1.9,21.3,4.9l-38.7,115.9c-12.9,3.6-31,4.9-48.4,4.9l-40.1-120.8c4.4-3,11.3-4.9,21.5-4.9,7.4,0,12.5,1.2,14.7,2.2l19.8,63.1a250,250,0,0,1,7.6,31.5Z" fill="#5ec8dc"/><path d="M7383.8,5600.6c1.5,17.1,13.7,25.5,37.9,25.5,15.7,0,29.4-3.5,38.2-7.4.7,9.3-3.2,21.3-8.8,27.6-8.1,4.7-21.8,8.6-38.6,8.6-42.8,0-65.6-24.7-65.6-64.3s24.5-67.2,62.9-67.2c35.7,0,52,22,52,54.2a75,75,0,0,1-3.6,23Zm44.8-25.7c1.9-12.7-2.7-25.1-20.3-25.1-15.2,0-24.5,9.7-25.4,25.1Z" fill="#5ec8dc"/><path d="M7520.3,5654.9c-24.5,0-31.8-15.9-31.8-37.7V5474.7c8.3-4.6,19.8-7.1,35.4-7.1v143.8c0,9.3,3.2,11.7,10.3,11.7a26.4,26.4,0,0,0,14.9-4.4c1,10.3-2.2,23.5-6.8,30.6C7536.7,5652.7,7529.3,5654.9,7520.3,5654.9Z" fill="#5ec8dc"/><path d="M826.1,1488c4,15.7,13.1,46.9,13.1,46.9s29.4-6.4,74.8-42.2C905.9,1493.3,859.8,1493.8,826.1,1488Z" fill="#ff671d"/><path d="M1247.7,1349.4c6.1,15.1,17.3,45.6,17.3,45.6s-27.5,12.3-85.3,10.3C1186.7,1401.1,1224,1374.1,1247.7,1349.4Z" fill="#00bc70"/><circle cx="897.3" cy="994.8" r="454.1" fill="#00abc8"/><path d="M671.6,508.6s-219.7,386.2-28,977.5c0,0,66.3,45.7,176.4,62,0,0-228.7-717.1,51.7-1097.1C871.7,451,745.3,457,671.6,508.6Z" fill="#ff671d" stroke="#fff" stroke-miterlimit="10" stroke-width="44.72"/><path d="M379.5,1005.6s-11.7,101.6,27,159.4c103,44.9,652.9,94.1,987.6-326.1,0,0-7.4-76.7-79.7-146C1117.3,965.8,691.2,1088.5,379.5,1005.6Z" fill="#fbcf63" stroke="#fff" stroke-miterlimit="10" stroke-width="44.72"/><path d="M834,510.5c131.3,75.2,436,372.8,563,762.3,0,0-22.2,61.9-112.7,147.1,0,0-188.1-512-512.7-754.4C778.8,638,798.5,565.5,834,510.5Z" fill="#00bc70" stroke="#fff" stroke-miterlimit="10" stroke-width="44.72"/><path d="M1683.9,830.5H1622l-12.2,37.6c-4.2,2.5-10.8,3.5-19.1,3.5s-14.6-1.3-18.6-3.5l59.2-170.6c5.1-1.5,13.2-2.5,22-2.5s17.1,1,22.3,2.5l58.6,170.6c-3.4,2.2-9.7,3.5-19,3.5s-14.9-1.3-19.1-3.5Zm-9.6-30.1-9.2-28.9c-4.9-15.1-8.6-33-11.3-50.1h-1.9a340.7,340.7,0,0,1-11.8,50.9l-9,28.1Z" fill="#00abc8"/><path d="M1828.4,855.9c-5.4,11-16.9,19.6-38.4,19.6-19.1,0-40.6-6.6-40.6-47.2V753.7c8.3-4.6,20.1-7.3,35.5-7.3v75.8c0,13.2,4.1,20.5,18.3,20.5,11.5,0,19.1-4.9,23.5-10.5V750.8c3.4-1.7,9.3-3,17.8-3s14.4,1.3,17.6,3V867.4c-6.3,3.7-16.4,5.6-27.6,5.6l-4.2-17.1Z" fill="#00abc8"/><path d="M1969.2,748.8c1.5,2.9,2.2,9.1,2.2,15.2s-.7,12.2-2.2,15.1h-32.5v46c0,11.7,3.4,17.8,16.6,17.8,7.4,0,14.7-1.4,22.3-6.6,1.2,10.3-2.7,24.7-7.6,31.1-7.1,5.1-15.7,8.1-27.9,8.1-30.1,0-38.9-18.1-38.9-45V779.1h-18.8c0-10.5,1.7-22.5,4.9-30.3h13.9V722.4c8.8-6.4,21.8-9.5,35.5-9.8v36.2Z" fill="#00abc8"/><path d="M2035.7,706.5c0,14.4-8.5,22.3-21.2,22.3s-21.6-7.6-21.6-22,9.1-21.3,21.6-21.3S2035.7,693.1,2035.7,706.5Zm-39.1,44.3c3.4-1.7,9.3-3,17.9-3s14.4,1.3,17.6,3V868.6c-3.2,1.7-9.1,3-17.6,3s-14.5-1.3-17.9-3Z" fill="#00abc8"/><path d="M2100.3,848.1c12.4,0,17.3-3.9,17.3-11.3,0-19.3-55.7-9.7-55.7-53.3,0-24.9,15.9-39.6,45.5-39.6,12.2,0,25.1,2.5,34.7,8.3,4.4,7.1,7.1,20.6,5.9,30.1-11.1-6.8-24.7-11.2-36.7-11.2-10.5,0-13.7,3.4-13.7,9.3,0,18,56,9,56,52.3,0,31.3-21.8,42.8-52.1,42.8-12.7,0-26.7-2-37.2-6.9-5.1-8.3-7.1-23.2-5.3-31.5C2069,843.4,2086.8,848.1,2100.3,848.1Z" fill="#00abc8"/><path d="M2214.9,868.6c-3.1,1.7-9,3-17.6,3s-14.4-1.3-17.8-3V752c6.6-3.7,17.1-5.6,28.8-5.6l2,20h2c5.6-12,17.6-22.5,39.6-22.5,14.4,0,28.8,4.2,35.4,21.3h2c5.1-11.5,17.1-21.3,38.9-21.3,18.3,0,39.8,6.6,39.8,47v77.7c-3.2,1.7-9,3-17.6,3s-14.4-1.3-17.8-3V797.2c0-12.7-4.2-20.8-18.1-20.8-12.3,0-19.4,6.4-23.5,14,.2,2.2.5,7.3.5,12.4v65.8c-3.2,1.7-8.8,3-17.4,3s-14.2-1.3-17.6-3V797.2c0-12.7-4.1-20.8-18.1-20.8-12.5,0-19.3,6.4-23.5,14Z" fill="#00abc8"/><path d="M1743.5,964.8h-1.9c-2,14.6-7.8,36.1-11.8,48.9l-29,95.3c-3.7,1.7-9.3,2.5-17.9,2.5s-13.7-.8-17.4-2.5l-30-96.6c-3.7-11.5-9.3-33.9-10.8-47.6h-1.9v143.5c-3.5,1.9-8.8,2.7-16.7,2.7s-12.9-.8-16.4-2.7V937.9c6.6-1.7,15.7-2.7,27.4-2.7s21.3,1,27.7,2.7l28.1,89.9a287.5,287.5,0,0,1,10.2,48.2h2c2.2-16.4,5.9-35.4,9.5-47.7l26.9-90.4c6.4-1.7,15.4-2.7,27.7-2.7s20.7,1,27.3,2.7v170.4c-3.4,1.9-8.5,2.7-16.3,2.7s-13.2-.8-16.7-2.7Z" fill="#00abc8"/><path d="M1843.8,1060.6c1.5,17.1,13.7,25.4,37.9,25.4,15.6,0,29.3-3.4,38.1-7.3.8,9.3-3.1,21.3-8.8,27.6-8,4.7-21.7,8.6-38.6,8.6-42.8,0-65.5-24.7-65.5-64.3s24.4-67.3,62.8-67.3c35.7,0,52.1,22,52.1,54.3a75.9,75.9,0,0,1-3.7,23Zm44.7-25.7c2-12.7-2.7-25.2-20.3-25.2-15.1,0-24.4,9.8-25.4,25.2Z" fill="#00abc8"/><path d="M2024.5,934.7c8.3-4.7,19.8-7.1,35.4-7.1v179.2c-6.6,3.7-16.3,5.6-26.4,5.6l-4.6-16.8h-2c-6.3,12.7-20.5,19.3-36.9,19.3-33,0-48.7-24.7-48.7-61.1,0-44.8,23.5-70.5,60.4-70.5,8.8,0,16.9,1.5,22.8,4.4Zm.5,82.6c-4.2-2.2-9.8-3.1-15.4-3.1-22,0-31.8,14.9-31.8,37.1s8.8,31.6,24.9,31.6c10.8,0,17.4-4.9,22.3-9.1Z" fill="#00abc8"/><path d="M2133.8,945.9c0,14.5-8.6,22.3-21.3,22.3s-21.5-7.6-21.5-22,9-21.3,21.5-21.3S2133.8,932.5,2133.8,945.9Zm-39.1,44.3c3.4-1.7,9.2-2.9,17.8-2.9s14.4,1.2,17.6,2.9V1108c-3.2,1.8-9,3-17.6,3s-14.4-1.2-17.8-3Z" fill="#00abc8"/><path d="M2229.4,1083.3a68.2,68.2,0,0,0,30.8-7c1.4,9.7-3,24.9-9.6,31.7-8,4-18.8,6.9-32.7,6.9-39.6,0-61.1-24.2-61.1-64.1,0-45.5,27.3-67.5,64.5-67.5,12,0,22.7,2.2,29.8,6.6,5.4,6.9,8.1,21.6,6.4,31.6a51.9,51.9,0,0,0-28.1-7.6c-22,0-36.2,9.8-36.2,34.5S2207.4,1083.3,2229.4,1083.3Z" fill="#00abc8"/><path d="M2349.9,1097.3c-5.4,10.7-16.9,17.6-33.7,17.6-21.5,0-40.1-10.8-40.1-39.1,0-29.9,21.5-41.4,49.9-41.4a73.1,73.1,0,0,1,22.2,3.2v-3.4c0-14.9-7.3-20.3-23.5-20.3a79.1,79.1,0,0,0-39.1,10.3c-2.9-9.6-1.7-24.7,3.9-32.8,8.8-4.9,24-8.1,42.1-8.1,35.2,0,52.1,12.5,52.1,48.7v42.3c0,7.6,3.4,9.3,8.3,9.3a19.4,19.4,0,0,0,10.5-2.9c1,9.7-2,21.7-6.4,28.6-5.1,3.4-12,5.6-20.3,5.6-14.1,0-21.5-6.1-23.9-17.6Zm-1-36.2a41.9,41.9,0,0,0-16.1-2.9c-14.2,0-21.3,5.8-21.3,15.1s7.1,13,16.9,13c7.8,0,15.6-2.5,20.5-8.6Z" fill="#00abc8"/><path d="M2451.4,1114.9c-24.5,0-31.8-15.9-31.8-37.7V934.7c8.3-4.7,19.8-7.1,35.5-7.1v143.8c0,9.3,3.1,11.7,10.2,11.7a26.4,26.4,0,0,0,14.9-4.4c1,10.3-2.2,23.5-6.8,30.6C2467.8,1112.7,2460.4,1114.9,2451.4,1114.9Z" fill="#00abc8"/><path d="M1661.9,1208.1v139.1c-3.4,2-9.6,3.2-18.4,3.2s-14.9-1.2-18.5-3.2V1208.1h-49.2c-1.5-3.2-2.7-9.8-2.7-16.4s1.2-12.9,2.7-16.1H1711c1.5,3.2,2.7,9.5,2.7,16.1s-1.2,13.2-2.7,16.4Z" fill="#00abc8"/><path d="M1776.3,1222.8c4.7,0,8.6.7,11.5,2.2,3.4,6.1,5.1,12.9,5.1,22.2,0,7.1-.9,11.5-2.2,14.9-4.6-2.7-9.3-4.1-16.8-4.1-12.5,0-21.8,8.5-26.4,21.2v68.3c-3.2,1.7-9.1,2.9-17.7,2.9s-14.4-1.2-17.8-2.9V1230.8c6.6-3.6,16.9-5.6,28.6-5.6l2.5,22.5h1.9C1748.4,1234.3,1756.3,1222.8,1776.3,1222.8Z" fill="#00abc8"/><path d="M1871.4,1336.7c-5.4,10.8-16.9,17.6-33.7,17.6-21.5,0-40.1-10.8-40.1-39.1s21.5-41.3,49.9-41.3a73.1,73.1,0,0,1,22.2,3.1v-3.4c0-14.9-7.3-20.3-23.5-20.3a79.4,79.4,0,0,0-39.1,10.3c-2.9-9.5-1.7-24.7,3.9-32.8,8.8-4.9,24-8,42.1-8,35.2,0,52.1,12.4,52.1,48.6v42.3c0,7.6,3.4,9.3,8.3,9.3a19.4,19.4,0,0,0,10.5-2.9c1,9.8-2,21.7-6.4,28.6-5.1,3.4-11.9,5.6-20.3,5.6-14.1,0-21.5-6.1-23.9-17.6Zm-1-36.2a43.5,43.5,0,0,0-16.1-2.9c-14.2,0-21.3,5.9-21.3,15.1s7.1,13,16.9,13c7.8,0,15.7-2.4,20.5-8.6Z" fill="#00abc8"/><path d="M1990,1323a262.6,262.6,0,0,1,7.1-31.5l18.6-63.1c2.7-1,6.8-2.2,14.7-2.2,10,0,16.8,1.9,21.2,4.9L2013,1347c-13,3.6-31.1,4.9-48.4,4.9l-40.1-120.8c4.4-3,11.2-4.9,21.5-4.9,7.3,0,12.5,1.2,14.7,2.2l19.8,63.1a250,250,0,0,1,7.6,31.5Z" fill="#00abc8"/><path d="M2097.1,1300c1.5,17.1,13.7,25.5,37.9,25.5,15.7,0,29.3-3.5,38.1-7.4.8,9.3-3.1,21.3-8.8,27.7-8,4.6-21.7,8.5-38.6,8.5-42.8,0-65.5-24.7-65.5-64.3s24.4-67.2,62.8-67.2c35.7,0,52.1,22,52.1,54.2a74.9,74.9,0,0,1-3.7,23Zm44.7-25.6c2-12.8-2.6-25.2-20.2-25.2-15.2,0-24.5,9.8-25.5,25.2Z" fill="#00abc8"/><path d="M2233.5,1354.3c-24.4,0-31.7-15.9-31.7-37.6V1174.1c8.3-4.6,19.8-7.1,35.4-7.1v143.8c0,9.3,3.2,11.7,10.3,11.7a25.6,25.6,0,0,0,14.9-4.4c1,10.3-2.2,23.5-6.9,30.6C2249.9,1352.1,2242.6,1354.3,2233.5,1354.3Z" fill="#00abc8"/><path d="M3841.8,3961.7c4,15.7,13.1,46.9,13.1,46.9s29.4-6.4,74.8-42.3C3921.6,3967,3875.5,3967.5,3841.8,3961.7Z" fill="#ff7f40"/><path d="M4263.4,3823.1c6.1,15,17.2,45.5,17.2,45.5s-27.4,12.3-85.2,10.4C4202.3,3874.7,4239.7,3847.7,4263.4,3823.1Z" fill="#00bc70"/><circle cx="3913" cy="3468.4" r="454.1" fill="#00abc8"/><path d="M3687.2,2982.2s-219.6,386.2-28,977.6c0,0,66.4,45.7,176.5,62,0,0-228.7-717.2,51.6-1097.1C3887.3,2924.7,3760.9,2930.6,3687.2,2982.2Z" fill="#ff7f40" stroke="#fff" stroke-miterlimit="10" stroke-width="44.72"/><path d="M3395.2,3479.2s-11.7,101.7,26.9,159.4c103,45,652.9,94.1,987.6-326.1,0,0-7.4-76.6-79.6-145.9C4132.9,3439.4,3706.9,3562.1,3395.2,3479.2Z" fill="#fbcf63" stroke="#fff" stroke-miterlimit="10" stroke-width="44.72"/><path d="M3849.7,2984.2c131.2,75.2,435.9,372.8,562.9,762.3,0,0-22.1,61.9-112.7,147.1,0,0-188-512-512.7-754.5C3794.5,3111.7,3814.2,3039.2,3849.7,2984.2Z" fill="#00bc70" stroke="#fff" stroke-miterlimit="10" stroke-width="44.72"/><path d="M4699.5,3304.1h-61.8l-12.2,37.7c-4.2,2.4-10.8,3.4-19.1,3.4s-14.7-1.2-18.6-3.4l59.2-170.7c5.1-1.4,13.2-2.4,22-2.4s17.1,1,22.2,2.4l58.7,170.7c-3.4,2.2-9.8,3.4-19.1,3.4s-14.9-1.2-19-3.4Zm-9.5-30-9.3-28.9c-4.9-15.1-8.5-33-11.2-50.1h-2a357.1,357.1,0,0,1-11.7,50.9l-9.1,28.1Z" fill="#00abc8"/><path d="M4844,3329.6c-5.3,11-16.8,19.5-38.3,19.5-19.1,0-40.6-6.6-40.6-47.2v-74.5c8.3-4.7,20-7.4,35.4-7.4v75.8c0,13.2,4.2,20.6,18.4,20.6,11.4,0,19-4.9,23.4-10.5v-81.5c3.5-1.7,9.3-2.9,17.9-2.9s14.4,1.2,17.6,2.9v116.7c-6.4,3.6-16.4,5.6-27.6,5.6l-4.2-17.1Z" fill="#00abc8"/><path d="M4984.9,3222.5c1.4,2.9,2.2,9,2.2,15.1s-.8,12.3-2.2,15.2h-32.5v46c0,11.7,3.4,17.8,16.6,17.8a37.8,37.8,0,0,0,22.2-6.6c1.3,10.3-2.7,24.7-7.5,31.1-7.1,5.1-15.7,8-27.9,8-30.1,0-38.9-18.1-38.9-45v-51.3h-18.8c0-10.5,1.7-22.5,4.9-30.3h13.9v-26.4c8.8-6.4,21.8-9.6,35.5-9.8v36.2Z" fill="#00abc8"/><path d="M5051.4,3180.2c0,14.4-8.6,22.2-21.3,22.2s-21.5-7.6-21.5-22,9-21.3,21.5-21.3S5051.4,3166.7,5051.4,3180.2Zm-39.1,44.2c3.4-1.7,9.2-2.9,17.8-2.9s14.4,1.2,17.6,2.9v117.9c-3.2,1.7-9,2.9-17.6,2.9s-14.4-1.2-17.8-2.9Z" fill="#00abc8"/><path d="M5115.9,3321.7c12.5,0,17.4-3.9,17.4-11.2,0-19.3-55.8-9.8-55.8-53.3,0-24.9,15.9-39.6,45.5-39.6,12.2,0,25.2,2.4,34.7,8.3,4.4,7.1,7.1,20.5,5.9,30.1-11-6.9-24.7-11.3-36.7-11.3-10.5,0-13.7,3.5-13.7,9.3,0,18.1,56,9.1,56,52.3,0,31.3-21.7,42.8-52.1,42.8-12.7,0-26.6-1.9-37.1-6.8-5.1-8.3-7.1-23.2-5.4-31.6C5084.6,3317.1,5102.5,3321.7,5115.9,3321.7Z" fill="#00abc8"/><path d="M5230.6,3342.3c-3.2,1.7-9,2.9-17.6,2.9s-14.4-1.2-17.9-2.9V3225.7c6.7-3.7,17.2-5.7,28.9-5.7l2,20.1h1.9c5.6-12,17.6-22.5,39.6-22.5,14.4,0,28.9,4.1,35.5,21.3h1.9c5.2-11.5,17.1-21.3,38.9-21.3,18.3,0,39.9,6.6,39.9,46.9v77.8c-3.2,1.7-9.1,2.9-17.6,2.9s-14.5-1.2-17.9-2.9v-71.4c0-12.7-4.1-20.8-18.1-20.8-12.2,0-19.3,6.4-23.5,13.9a121.8,121.8,0,0,1,.5,12.5v65.8c-3.1,1.7-8.8,2.9-17.3,2.9s-14.2-1.2-17.6-2.9v-71.4c0-12.7-4.2-20.8-18.1-20.8s-19.3,6.4-23.5,13.9Z" fill="#00abc8"/><path d="M4759.2,3438.4h-2c-1.9,14.7-7.8,36.2-11.7,48.9l-29.1,95.4c-3.7,1.7-9.3,2.4-17.8,2.4s-13.7-.7-17.4-2.4l-30.1-96.6c-3.6-11.5-9.3-34-10.7-47.7h-2V3582c-3.4,1.9-8.8,2.6-16.6,2.6s-13-.7-16.4-2.6V3411.5c6.6-1.7,15.6-2.7,27.4-2.7s21.3,1,27.6,2.7l28.1,90a287.2,287.2,0,0,1,10.3,48.2h2c2.2-16.4,5.8-35.5,9.5-47.7l26.9-90.5c6.3-1.7,15.4-2.7,27.6-2.7s20.8,1,27.4,2.7V3582c-3.4,1.9-8.6,2.6-16.4,2.6s-13.2-.7-16.6-2.6Z" fill="#00abc8"/><path d="M4859.4,3534.3c1.5,17.1,13.7,25.4,37.9,25.4,15.7,0,29.4-3.4,38.2-7.3.7,9.3-3.2,21.2-8.8,27.6-8.1,4.6-21.8,8.6-38.6,8.6-42.8,0-65.6-24.7-65.6-64.4s24.5-67.2,62.9-67.2c35.7,0,52,22,52,54.3a75.9,75.9,0,0,1-3.6,23Zm44.8-25.7c1.9-12.7-2.7-25.2-20.3-25.2-15.2,0-24.5,9.8-25.4,25.2Z" fill="#00abc8"/><path d="M5040.1,3408.4c8.3-4.7,19.8-7.1,35.5-7.1v179.2c-6.6,3.7-16.4,5.6-26.4,5.6l-4.7-16.9h-1.9c-6.4,12.8-20.6,19.4-36.9,19.4-33,0-48.7-24.7-48.7-61.2,0-44.7,23.5-70.4,60.4-70.4,8.8,0,16.9,1.5,22.7,4.4Zm.5,82.6c-4.1-2.2-9.8-3.2-15.4-3.2-22,0-31.8,14.9-31.8,37.2s8.8,31.5,25,31.5c10.7,0,17.3-4.9,22.2-9Z" fill="#00abc8"/><path d="M5149.4,3419.6c0,14.4-8.5,22.2-21.2,22.2s-21.6-7.5-21.6-22,9.1-21.2,21.6-21.2S5149.4,3406.2,5149.4,3419.6Zm-39.1,44.3c3.4-1.8,9.3-3,17.9-3s14.4,1.2,17.6,3v117.8c-3.2,1.7-9.1,2.9-17.6,2.9s-14.5-1.2-17.9-2.9Z" fill="#00abc8"/><path d="M5245,3557a67.9,67.9,0,0,0,30.8-7.1c1.5,9.8-2.9,25-9.5,31.8-8.1,3.9-18.8,6.9-32.8,6.9-39.6,0-61.1-24.3-61.1-64.1,0-45.5,27.4-67.5,64.6-67.5,11.9,0,22.7,2.2,29.8,6.6,5.4,6.9,8.1,21.5,6.3,31.6-8.8-5.2-16.8-7.6-28.1-7.6-22,0-36.2,9.8-36.2,34.4S5223,3557,5245,3557Z" fill="#00abc8"/><path d="M5365.6,3570.9c-5.4,10.8-16.9,17.7-33.8,17.7-21.5,0-40.1-10.8-40.1-39.2s21.5-41.3,49.9-41.3a73.3,73.3,0,0,1,22.3,3.2v-3.4c0-14.9-7.4-20.3-23.5-20.3a80.1,80.1,0,0,0-39.1,10.2c-3-9.5-1.7-24.7,3.9-32.7,8.8-4.9,23.9-8.1,42-8.1,35.2,0,52.1,12.5,52.1,48.7V3548c0,7.5,3.4,9.3,8.3,9.3a18.9,18.9,0,0,0,10.5-3c1,9.8-1.9,21.8-6.3,28.6-5.2,3.5-12,5.7-20.3,5.7-14.2,0-21.5-6.2-24-17.7Zm-1-36.1a42.3,42.3,0,0,0-16.1-3c-14.2,0-21.3,5.9-21.3,15.2s7.1,12.9,16.9,12.9c7.8,0,15.6-2.4,20.5-8.5Z" fill="#00abc8"/><path d="M5467,3588.6c-24.4,0-31.7-15.9-31.7-37.7V3408.4c8.3-4.7,19.8-7.1,35.4-7.1V3545c0,9.3,3.2,11.8,10.3,11.8a26.4,26.4,0,0,0,14.9-4.4c1,10.2-2.2,23.4-6.9,30.5C5483.4,3586.4,5476.1,3588.6,5467,3588.6Z" fill="#00abc8"/><path d="M4677.5,3681.8v139.1c-3.4,1.9-9.5,3.2-18.3,3.2s-14.9-1.3-18.6-3.2V3681.8h-49.1c-1.5-3.2-2.7-9.8-2.7-16.4s1.2-13,2.7-16.2h135.2c1.4,3.2,2.7,9.6,2.7,16.2s-1.3,13.2-2.7,16.4Z" fill="#00abc8"/><path d="M4792,3696.4a27.4,27.4,0,0,1,11.5,2.2c3.4,6.1,5.1,13,5.1,22.3,0,7.1-1,11.5-2.2,14.9-4.7-2.7-9.3-4.2-16.9-4.2-12.5,0-21.7,8.6-26.4,21.3v68.2c-3.2,1.7-9,3-17.6,3s-14.4-1.3-17.8-3V3704.5c6.6-3.7,16.8-5.6,28.6-5.6l2.4,22.5h2C4764.1,3707.9,4771.9,3696.4,4792,3696.4Z" fill="#00abc8"/><path d="M4887.1,3810.4c-5.4,10.7-16.9,17.6-33.8,17.6-21.5,0-40.1-10.8-40.1-39.1,0-29.9,21.6-41.4,49.9-41.4a73.3,73.3,0,0,1,22.3,3.2v-3.4c0-14.9-7.4-20.3-23.5-20.3a79.1,79.1,0,0,0-39.1,10.3c-3-9.6-1.7-24.7,3.9-32.8,8.8-4.9,23.9-8.1,42-8.1,35.2,0,52.1,12.5,52.1,48.7v42.3c0,7.6,3.4,9.3,8.3,9.3a18.2,18.2,0,0,0,10.5-3c1,9.8-1.9,21.8-6.3,28.7-5.1,3.4-12,5.6-20.3,5.6-14.2,0-21.5-6.1-24-17.6Zm-1-36.2a42.3,42.3,0,0,0-16.1-3c-14.2,0-21.3,5.9-21.3,15.2s7.1,13,16.9,13c7.8,0,15.6-2.5,20.5-8.6Z" fill="#00abc8"/><path d="M5005.7,3796.7a246.2,246.2,0,0,1,7.1-31.6l18.5-63c2.7-1,6.9-2.2,14.7-2.2,10,0,16.9,1.9,21.3,4.8l-38.7,115.9c-12.9,3.7-31,4.9-48.4,4.9l-40.1-120.8c4.4-2.9,11.3-4.8,21.6-4.8,7.3,0,12.4,1.2,14.6,2.2l19.8,63a235.3,235.3,0,0,1,7.6,31.6Z" fill="#00abc8"/><path d="M5112.8,3773.7c1.4,17.1,13.7,25.4,37.9,25.4,15.6,0,29.3-3.4,38.1-7.3.7,9.3-3.2,21.3-8.8,27.6-8.1,4.7-21.8,8.6-38.6,8.6-42.8,0-65.6-24.7-65.6-64.3s24.5-67.3,62.9-67.3c35.7,0,52.1,22,52.1,54.3a75.9,75.9,0,0,1-3.7,23Zm44.7-25.7c2-12.7-2.7-25.2-20.3-25.2-15.1,0-24.4,9.8-25.4,25.2Z" fill="#00abc8"/><path d="M5249.2,3828c-24.5,0-31.8-15.9-31.8-37.7V3647.8c8.3-4.7,19.8-7.1,35.5-7.1v143.8c0,9.2,3.1,11.7,10.2,11.7a26.1,26.1,0,0,0,14.9-4.4c1,10.3-2.2,23.5-6.8,30.6C5265.6,3825.8,5258.2,3828,5249.2,3828Z" fill="#00abc8"/><path d="M3657.1,1581.3c4,15.7,13.1,46.9,13.1,46.9s29.4-6.4,74.8-42.2C3736.9,1586.6,3690.8,1587.1,3657.1,1581.3Z" fill="#ff671d"/><path d="M4078.7,1442.8c6.1,15,17.3,45.5,17.3,45.5s-27.5,12.3-85.3,10.3C4017.6,1494.4,4055,1467.4,4078.7,1442.8Z" fill="#00bc70"/><circle cx="3728.3" cy="1088.1" r="454.1" fill="#00abc8"/><path d="M3502.6,601.9s-219.7,386.2-28.1,977.6c0,0,66.4,45.7,176.5,61.9,0,0-228.7-717.1,51.6-1097.1C3702.6,544.3,3576.3,550.3,3502.6,601.9Z" fill="#ff671d" stroke="#fff" stroke-miterlimit="10" stroke-width="44.72"/><path d="M3210.5,1098.9s-11.7,101.6,27,159.4c103,44.9,652.8,94.1,987.5-326.1,0,0-7.3-76.7-79.6-146C3948.3,1059.1,3522.2,1181.8,3210.5,1098.9Z" fill="#fbcf63" stroke="#fff" stroke-miterlimit="10" stroke-width="44.72"/><path d="M3665,603.8c131.2,75.2,435.9,372.9,562.9,762.3,0,0-22.1,61.9-112.6,147.2,0,0-188.1-512.1-512.8-754.5C3609.8,731.3,3629.5,658.9,3665,603.8Z" fill="#00bc70" stroke="#fff" stroke-miterlimit="10" stroke-width="44.72"/><path d="M2955.5,1901.6h-61.9l-12.2,37.6c-4.1,2.5-10.7,3.5-19.1,3.5s-14.6-1.3-18.5-3.5l59.1-170.6c5.2-1.5,13.2-2.5,22-2.5s17.1,1,22.3,2.5l58.7,170.6c-3.5,2.2-9.8,3.5-19.1,3.5s-14.9-1.3-19.1-3.5Zm-9.5-30.1-9.3-28.8c-4.9-15.2-8.6-33-11.3-50.2h-1.9a340.7,340.7,0,0,1-11.8,50.9l-9,28.1Z" fill="#00abc8"/><path d="M3100,1927c-5.4,11-16.9,19.6-38.4,19.6-19.1,0-40.6-6.6-40.6-47.2v-74.6c8.3-4.6,20.1-7.3,35.5-7.3v75.8c0,13.2,4.1,20.5,18.3,20.5,11.5,0,19.1-4.9,23.5-10.5v-81.4c3.4-1.7,9.3-3,17.8-3s14.5,1.3,17.6,3v116.6c-6.3,3.7-16.3,5.6-27.6,5.6L3102,1927Z" fill="#00abc8"/><path d="M3240.8,1819.9c1.5,3,2.2,9.1,2.2,15.2s-.7,12.2-2.2,15.1h-32.5v46c0,11.7,3.4,17.9,16.6,17.9a38.1,38.1,0,0,0,22.3-6.6c1.2,10.2-2.7,24.6-7.6,31-7.1,5.1-15.6,8.1-27.9,8.1-30,0-38.8-18.1-38.8-45v-51.4H3154c0-10.5,1.7-22.5,4.9-30.3h14v-26.4c8.8-6.3,21.7-9.5,35.4-9.8v36.2Z" fill="#00abc8"/><path d="M3307.3,1777.6c0,14.4-8.5,22.3-21.2,22.3s-21.5-7.6-21.5-22,9-21.3,21.5-21.3S3307.3,1764.2,3307.3,1777.6Zm-39.1,44.3c3.4-1.7,9.3-3,17.9-3s14.4,1.3,17.6,3v117.8c-3.2,1.7-9.1,3-17.6,3s-14.5-1.3-17.9-3Z" fill="#00abc8"/><path d="M3371.9,1919.2c12.5,0,17.3-3.9,17.3-11.3,0-19.3-55.7-9.7-55.7-53.3,0-24.9,15.9-39.6,45.5-39.6,12.2,0,25.2,2.5,34.7,8.3,4.4,7.1,7.1,20.6,5.9,30.1-11-6.8-24.7-11.2-36.7-11.2-10.5,0-13.7,3.4-13.7,9.3,0,18.1,56,9,56,52.3,0,31.3-21.8,42.8-52.1,42.8-12.7,0-26.6-2-37.2-6.9-5.1-8.3-7-23.2-5.3-31.5C3340.6,1914.5,3358.4,1919.2,3371.9,1919.2Z" fill="#00abc8"/><path d="M3486.6,1939.7c-3.2,1.7-9.1,3-17.6,3s-14.5-1.3-17.9-3V1823.1c6.6-3.7,17.1-5.6,28.9-5.6l1.9,20h2c5.6-12,17.6-22.5,39.6-22.5,14.4,0,28.8,4.2,35.4,21.3h2c5.1-11.5,17.1-21.3,38.9-21.3,18.3,0,39.8,6.6,39.8,47v77.7c-3.2,1.7-9,3-17.6,3s-14.4-1.3-17.8-3v-71.4c0-12.7-4.2-20.7-18.1-20.7-12.2,0-19.3,6.3-23.5,13.9.2,2.2.5,7.3.5,12.5v65.7c-3.2,1.7-8.8,3-17.4,3s-14.1-1.3-17.6-3v-71.4c0-12.7-4.1-20.7-18.1-20.7-12.4,0-19.3,6.3-23.4,13.9Z" fill="#00abc8"/><path d="M3903.2,1798.9h-1.9c-2,14.7-7.8,36.2-11.7,48.9l-29.1,95.4c-3.7,1.7-9.3,2.4-17.9,2.4s-13.7-.7-17.3-2.4l-30.1-96.6c-3.7-11.5-9.3-34-10.8-47.7h-1.9v143.5c-3.5,2-8.8,2.7-16.7,2.7s-12.9-.7-16.3-2.7V1772c6.6-1.7,15.6-2.7,27.3-2.7s21.3,1,27.7,2.7l28.1,90a298.5,298.5,0,0,1,10.3,48.1h1.9c2.2-16.3,5.9-35.4,9.5-47.6l26.9-90.5c6.4-1.7,15.4-2.7,27.7-2.7s20.8,1,27.4,2.7v170.4c-3.5,2-8.6,2.7-16.4,2.7s-13.2-.7-16.7-2.7Z" fill="#00abc8"/><path d="M4003.5,1894.7c1.5,17.2,13.7,25.5,37.9,25.5,15.6,0,29.3-3.5,38.1-7.4.8,9.3-3.1,21.3-8.8,27.7-8,4.6-21.7,8.5-38.6,8.5-42.8,0-65.5-24.7-65.5-64.3s24.4-67.2,62.8-67.2c35.7,0,52.1,22,52.1,54.3a74.7,74.7,0,0,1-3.7,22.9Zm44.7-25.6c2-12.7-2.6-25.2-20.3-25.2-15.1,0-24.4,9.8-25.4,25.2Z" fill="#00abc8"/><path d="M4184.2,1768.8c8.3-4.6,19.8-7.1,35.4-7.1V1941c-6.6,3.6-16.3,5.6-26.4,5.6l-4.6-16.9h-2c-6.3,12.7-20.5,19.3-36.9,19.3-33,0-48.6-24.7-48.6-61.1,0-44.7,23.4-70.4,60.3-70.4,8.9,0,16.9,1.4,22.8,4.4Zm.5,82.7c-4.2-2.2-9.8-3.2-15.4-3.2-22,0-31.8,14.9-31.8,37.2s8.8,31.5,24.9,31.5c10.8,0,17.4-4.9,22.3-9.1Z" fill="#00abc8"/><path d="M4293.5,1780.1c0,14.4-8.6,22.2-21.3,22.2s-21.5-7.6-21.5-22,9-21.3,21.5-21.3S4293.5,1766.6,4293.5,1780.1Zm-39.1,44.2c3.4-1.7,9.3-2.9,17.8-2.9s14.4,1.2,17.6,2.9v117.9c-3.2,1.7-9,2.9-17.6,2.9s-14.4-1.2-17.8-2.9Z" fill="#00abc8"/><path d="M4389.1,1917.5a68.2,68.2,0,0,0,30.8-7.1c1.5,9.8-2.9,24.9-9.5,31.8-8.1,3.9-18.9,6.8-32.8,6.8-39.6,0-61.1-24.2-61.1-64,0-45.5,27.3-67.5,64.5-67.5,12,0,22.8,2.2,29.8,6.6,5.4,6.8,8.1,21.5,6.4,31.5a51.9,51.9,0,0,0-28.1-7.6c-22,0-36.2,9.8-36.2,34.5S4367.1,1917.5,4389.1,1917.5Z" fill="#00abc8"/><path d="M4509.6,1931.4c-5.4,10.8-16.8,17.6-33.7,17.6-21.5,0-40.1-10.7-40.1-39.1s21.5-41.3,49.9-41.3a73.1,73.1,0,0,1,22.2,3.2v-3.5c0-14.9-7.3-20.3-23.5-20.3a80.4,80.4,0,0,0-39.1,10.3c-2.9-9.5-1.7-24.7,3.9-32.8,8.8-4.8,24-8,42.1-8,35.2,0,52.1,12.4,52.1,48.6v42.3c0,7.6,3.4,9.3,8.3,9.3a19.4,19.4,0,0,0,10.5-2.9c1,9.8-2,21.8-6.4,28.6-5.1,3.4-11.9,5.6-20.3,5.6-14.1,0-21.5-6.1-23.9-17.6Zm-1-36.2a43.5,43.5,0,0,0-16.1-2.9c-14.2,0-21.3,5.9-21.3,15.2s7.1,12.9,16.9,12.9c7.8,0,15.7-2.4,20.5-8.5Z" fill="#00abc8"/><path d="M4611.1,1949c-24.5,0-31.8-15.9-31.8-37.6V1768.8c8.3-4.6,19.8-7.1,35.5-7.1v143.8c0,9.3,3.1,11.7,10.2,11.7a25.4,25.4,0,0,0,14.9-4.4c1,10.3-2.2,23.5-6.8,30.6C4627.5,1946.8,4620.1,1949,4611.1,1949Z" fill="#00abc8"/><path d="M3475.6,2029.4v139.1c-3.5,2-9.6,3.2-18.4,3.2s-14.9-1.2-18.6-3.2V2029.4h-49.1c-1.5-3.2-2.7-9.8-2.7-16.4s1.2-12.9,2.7-16.1h135.2c1.5,3.2,2.7,9.5,2.7,16.1s-1.2,13.2-2.7,16.4Z" fill="#00abc8"/><path d="M3590,2044.1c4.6,0,8.5.7,11.5,2.2,3.4,6.1,5.1,12.9,5.1,22.2,0,7.1-1,11.5-2.2,14.9-4.6-2.6-9.3-4.1-16.9-4.1-12.4,0-21.7,8.5-26.4,21.3v68.2c-3.1,1.7-9,2.9-17.6,2.9s-14.4-1.2-17.8-2.9V2052.1c6.6-3.6,16.9-5.6,28.6-5.6l2.4,22.5h2C3562.1,2055.6,3569.9,2044.1,3590,2044.1Z" fill="#00abc8"/><path d="M3685.1,2158c-5.4,10.8-16.9,17.6-33.7,17.6-21.6,0-40.1-10.7-40.1-39.1s21.5-41.3,49.8-41.3a73.3,73.3,0,0,1,22.3,3.2v-3.5c0-14.9-7.3-20.3-23.5-20.3a80.1,80.1,0,0,0-39.1,10.3c-2.9-9.5-1.7-24.7,3.9-32.8,8.8-4.8,24-8,42.1-8,35.2,0,52,12.4,52,48.6V2135c0,7.6,3.5,9.3,8.4,9.3a19.4,19.4,0,0,0,10.5-2.9c.9,9.8-2,21.8-6.4,28.6-5.1,3.4-12,5.6-20.3,5.6-14.2,0-21.5-6.1-23.9-17.6Zm-1-36.2a43.9,43.9,0,0,0-16.1-2.9c-14.2,0-21.3,5.9-21.3,15.2s7.1,12.9,16.9,12.9c7.8,0,15.6-2.4,20.5-8.5Z" fill="#00abc8"/><path d="M3803.7,2144.3a244.6,244.6,0,0,1,7.1-31.5l18.6-63.1c2.6-1,6.8-2.2,14.6-2.2,10.1,0,16.9,2,21.3,4.9l-38.6,115.9c-13,3.7-31.1,4.9-48.4,4.9l-40.1-120.8c4.4-2.9,11.2-4.9,21.5-4.9,7.3,0,12.4,1.2,14.6,2.2l19.9,63.1a254.2,254.2,0,0,1,7.5,31.5Z" fill="#00abc8"/><path d="M3910.8,2121.3c1.4,17.2,13.7,25.5,37.9,25.5,15.6,0,29.3-3.5,38.1-7.4.8,9.3-3.2,21.3-8.8,27.7-8,4.6-21.7,8.5-38.6,8.5-42.8,0-65.5-24.7-65.5-64.3s24.4-67.2,62.8-67.2c35.7,0,52.1,22,52.1,54.3a74.7,74.7,0,0,1-3.7,22.9Zm44.7-25.6c2-12.7-2.7-25.2-20.3-25.2-15.1,0-24.4,9.8-25.4,25.2Z" fill="#00abc8"/><path d="M4047.2,2175.6c-24.4,0-31.8-15.9-31.8-37.6V1995.4c8.3-4.6,19.8-7.1,35.5-7.1v143.8c0,9.3,3.2,11.7,10.3,11.7a25.6,25.6,0,0,0,14.9-4.4c.9,10.3-2.2,23.5-6.9,30.6C4063.6,2173.4,4056.3,2175.6,4047.2,2175.6Z" fill="#00abc8"/><path d="M6080.1,1465.8c4,15.7,13.1,46.9,13.1,46.9s29.4-6.4,74.8-42.3C6159.9,1471.1,6113.8,1471.6,6080.1,1465.8Z" fill="#ff671d"/><path d="M6501.7,1327.2c6.1,15,17.3,45.5,17.3,45.5s-27.5,12.4-85.3,10.4C6440.6,1378.8,6478,1351.9,6501.7,1327.2Z" fill="#00bc70"/><circle cx="6151.3" cy="972.6" r="454.1" fill="#5ec8dc"/><path d="M5925.5,486.4s-219.6,386.2-28,977.5c0,0,66.4,45.7,176.5,62,0,0-228.7-717.1,51.6-1097.1C6125.6,428.8,5999.3,434.8,5925.5,486.4Z" fill="#ff671d" stroke="#fff" stroke-miterlimit="10" stroke-width="44.72"/><path d="M5633.5,983.4s-11.7,101.6,26.9,159.3c103,45,652.9,94.2,987.6-326.1,0,0-7.4-76.6-79.6-145.9C6371.2,943.6,5945.2,1066.3,5633.5,983.4Z" fill="#fbcf63" stroke="#fff" stroke-miterlimit="10" stroke-width="44.72"/><path d="M6088,488.3c131.2,75.2,435.9,372.8,562.9,762.3,0,0-22.1,61.9-112.7,147.1,0,0-188-512-512.7-754.5C6032.8,615.8,6052.5,543.3,6088,488.3Z" fill="#00bc70" stroke="#fff" stroke-miterlimit="10" stroke-width="44.72"/><path d="M6937.8,808.3H6876l-12.2,37.6c-4.2,2.5-10.8,3.4-19.1,3.4s-14.7-1.2-18.6-3.4l59.2-170.6c5.1-1.5,13.2-2.5,22-2.5s17.1,1,22.2,2.5l58.7,170.6c-3.4,2.2-9.8,3.4-19.1,3.4s-14.9-1.2-19-3.4Zm-9.5-30.1-9.3-28.9c-4.9-15.1-8.5-33-11.2-50.1h-2a353.9,353.9,0,0,1-11.7,50.9l-9.1,28.1Z" fill="#5ec8dc"/><path d="M7082.3,833.7c-5.3,11-16.8,19.6-38.3,19.6-19.1,0-40.6-6.7-40.6-47.2V731.5c8.3-4.7,20-7.3,35.4-7.3v75.7c0,13.3,4.2,20.6,18.4,20.6,11.5,0,19-4.9,23.4-10.5V728.6c3.5-1.8,9.3-3,17.9-3s14.4,1.2,17.6,3V845.2c-6.4,3.7-16.4,5.6-27.6,5.6l-4.2-17.1Z" fill="#5ec8dc"/><path d="M7223.2,726.6c1.4,2.9,2.2,9,2.2,15.2s-.8,12.2-2.2,15.1h-32.5v46c0,11.7,3.4,17.8,16.6,17.8,7.3,0,14.7-1.4,22.2-6.6,1.3,10.3-2.7,24.7-7.5,31.1-7.1,5.1-15.7,8.1-27.9,8.1-30.1,0-38.9-18.1-38.9-45V756.9h-18.8c0-10.5,1.7-22.5,4.9-30.3h13.9V700.2c8.8-6.4,21.8-9.5,35.5-9.8v36.2Z" fill="#5ec8dc"/><path d="M7289.7,684.3c0,14.4-8.6,22.2-21.3,22.2s-21.5-7.5-21.5-22,9-21.2,21.5-21.2S7289.7,670.8,7289.7,684.3Zm-39.1,44.3c3.4-1.8,9.3-3,17.8-3s14.4,1.2,17.6,3V846.4c-3.2,1.7-9,2.9-17.6,2.9s-14.4-1.2-17.8-2.9Z" fill="#5ec8dc"/><path d="M7354.2,825.9c12.5,0,17.4-3.9,17.4-11.3,0-19.3-55.8-9.8-55.8-53.3,0-24.9,15.9-39.6,45.5-39.6,12.2,0,25.2,2.5,34.7,8.3,4.4,7.1,7.1,20.6,5.9,30.1-11-6.9-24.7-11.3-36.7-11.3-10.5,0-13.7,3.5-13.7,9.3,0,18.1,56,9.1,56,52.4,0,31.3-21.7,42.8-52,42.8-12.8,0-26.7-2-37.2-6.9-5.1-8.3-7.1-23.2-5.4-31.5C7322.9,821.2,7340.8,825.9,7354.2,825.9Z" fill="#5ec8dc"/><path d="M7468.9,846.4c-3.2,1.7-9,2.9-17.6,2.9s-14.4-1.2-17.8-2.9V729.8c6.6-3.7,17.1-5.6,28.8-5.6l2,20h1.9c5.6-12,17.6-22.5,39.6-22.5,14.5,0,28.9,4.2,35.5,21.3h1.9c5.2-11.5,17.1-21.3,38.9-21.3,18.3,0,39.9,6.6,39.9,47v77.7c-3.2,1.7-9.1,2.9-17.6,2.9s-14.5-1.2-17.9-2.9V775c0-12.7-4.1-20.8-18.1-20.8-12.2,0-19.3,6.4-23.5,14a119.6,119.6,0,0,1,.5,12.4v65.8c-3.1,1.7-8.8,2.9-17.3,2.9s-14.2-1.2-17.6-2.9V775c0-12.7-4.2-20.8-18.1-20.8s-19.3,6.4-23.5,14Z" fill="#5ec8dc"/><path d="M6997.5,942.5h-2c-1.9,14.7-7.8,36.2-11.7,48.9l-29.1,95.4c-3.7,1.7-9.3,2.5-17.8,2.5s-13.7-.8-17.4-2.5l-30.1-96.6c-3.6-11.5-9.3-34-10.7-47.7h-2v143.6c-3.4,1.9-8.8,2.7-16.6,2.7s-13-.8-16.4-2.7V915.7c6.6-1.8,15.7-2.7,27.4-2.7s21.3.9,27.6,2.7l28.1,89.9a287.2,287.2,0,0,1,10.3,48.2h2c2.2-16.4,5.8-35.5,9.5-47.7l26.9-90.4c6.3-1.8,15.4-2.7,27.6-2.7s20.8.9,27.4,2.7v170.4c-3.4,1.9-8.6,2.7-16.4,2.7s-13.2-.8-16.6-2.7Z" fill="#5ec8dc"/><path d="M7097.7,1038.4c1.5,17.1,13.7,25.4,37.9,25.4,15.7,0,29.4-3.4,38.2-7.3.7,9.3-3.2,21.3-8.8,27.6-8.1,4.7-21.8,8.6-38.6,8.6-42.8,0-65.6-24.7-65.6-64.3s24.5-67.3,62.9-67.3c35.7,0,52,22,52,54.3a75.9,75.9,0,0,1-3.6,23Zm44.8-25.7c1.9-12.7-2.7-25.2-20.3-25.2-15.2,0-24.5,9.8-25.4,25.2Z" fill="#5ec8dc"/><path d="M7278.4,912.5c8.4-4.7,19.8-7.1,35.5-7.1v179.2c-6.6,3.7-16.4,5.6-26.4,5.6l-4.7-16.8h-1.9c-6.4,12.7-20.6,19.3-36.9,19.3-33,0-48.7-24.7-48.7-61.2,0-44.7,23.5-70.4,60.4-70.4,8.8,0,16.9,1.5,22.7,4.4Zm.5,82.6c-4.1-2.2-9.8-3.2-15.4-3.2-22,0-31.8,15-31.8,37.2s8.8,31.5,25,31.5c10.7,0,17.3-4.8,22.2-9Z" fill="#5ec8dc"/><path d="M7387.7,923.7c0,14.4-8.5,22.3-21.2,22.3s-21.6-7.6-21.6-22,9.1-21.3,21.6-21.3S7387.7,910.3,7387.7,923.7ZM7348.6,968c3.4-1.7,9.3-3,17.9-3s14.4,1.3,17.6,3v117.8c-3.2,1.7-9.1,3-17.6,3s-14.5-1.3-17.9-3Z" fill="#5ec8dc"/><path d="M7483.3,1061.1a67.9,67.9,0,0,0,30.8-7.1c1.5,9.8-2.9,25-9.5,31.8-8.1,3.9-18.8,6.9-32.8,6.9-39.6,0-61.1-24.2-61.1-64.1,0-45.5,27.4-67.5,64.6-67.5,11.9,0,22.7,2.2,29.8,6.6,5.4,6.9,8.1,21.5,6.3,31.6-8.8-5.2-16.8-7.6-28.1-7.6-22,0-36.2,9.8-36.2,34.5S7461.3,1061.1,7483.3,1061.1Z" fill="#5ec8dc"/><path d="M7603.9,1075.1c-5.4,10.7-16.9,17.6-33.8,17.6-21.5,0-40.1-10.8-40.1-39.1,0-29.9,21.5-41.4,49.9-41.4a73.3,73.3,0,0,1,22.3,3.2V1012c0-14.9-7.4-20.3-23.5-20.3a79.1,79.1,0,0,0-39.1,10.3c-3-9.6-1.7-24.7,3.9-32.8,8.8-4.9,23.9-8.1,42-8.1,35.2,0,52.1,12.5,52.1,48.7v42.3c0,7.6,3.4,9.3,8.3,9.3a18.2,18.2,0,0,0,10.5-3c1,9.8-1.9,21.8-6.3,28.6-5.2,3.5-12,5.7-20.3,5.7-14.2,0-21.5-6.1-24-17.6Zm-1-36.2a42.3,42.3,0,0,0-16.1-3c-14.2,0-21.3,5.9-21.3,15.2s7.1,13,16.9,13c7.8,0,15.6-2.5,20.5-8.6Z" fill="#5ec8dc"/><path d="M7705.3,1092.7c-24.4,0-31.7-15.9-31.7-37.7V912.5c8.3-4.7,19.8-7.1,35.4-7.1v143.8c0,9.2,3.2,11.7,10.3,11.7a26.4,26.4,0,0,0,14.9-4.4c1,10.3-2.2,23.5-6.8,30.5C7721.7,1090.5,7714.4,1092.7,7705.3,1092.7Z" fill="#5ec8dc"/><path d="M6915.8,1185.9V1325c-3.4,2-9.5,3.2-18.3,3.2s-14.9-1.2-18.6-3.2V1185.9h-49.1c-1.5-3.2-2.7-9.8-2.7-16.4s1.2-13,2.7-16.1H6965c1.4,3.1,2.7,9.5,2.7,16.1s-1.3,13.2-2.7,16.4Z" fill="#5ec8dc"/><path d="M7030.3,1200.6c4.6,0,8.5.7,11.5,2.2,3.4,6.1,5.1,12.9,5.1,22.2,0,7.1-1,11.5-2.2,14.9-4.7-2.7-9.3-4.1-16.9-4.1-12.5,0-21.7,8.5-26.4,21.2v68.2c-3.2,1.8-9,3-17.6,3s-14.4-1.2-17.8-3V1208.6c6.6-3.6,16.8-5.6,28.6-5.6l2.4,22.5h2C7002.4,1212,7010.2,1200.6,7030.3,1200.6Z" fill="#5ec8dc"/><path d="M7125.4,1314.5c-5.4,10.7-16.9,17.6-33.8,17.6-21.5,0-40.1-10.8-40.1-39.1,0-29.9,21.6-41.3,49.9-41.3a73.3,73.3,0,0,1,22.3,3.1v-3.4c0-14.9-7.4-20.3-23.5-20.3a79.1,79.1,0,0,0-39.1,10.3c-3-9.6-1.7-24.7,3.9-32.8,8.8-4.9,23.9-8,42-8,35.2,0,52.1,12.4,52.1,48.6v42.3c0,7.6,3.4,9.3,8.3,9.3a18.9,18.9,0,0,0,10.5-2.9c1,9.7-1.9,21.7-6.3,28.6-5.1,3.4-12,5.6-20.3,5.6-14.2,0-21.5-6.1-24-17.6Zm-1-36.2a42.3,42.3,0,0,0-16.1-2.9c-14.2,0-21.3,5.8-21.3,15.1s7.1,13,16.9,13c7.8,0,15.6-2.5,20.5-8.6Z" fill="#5ec8dc"/><path d="M7244,1300.8a240.9,240.9,0,0,1,7.1-31.5l18.5-63.1c2.7-1,6.9-2.2,14.7-2.2,10,0,16.9,1.9,21.3,4.9l-38.7,115.9c-12.9,3.6-31,4.8-48.4,4.8l-40.1-120.7c4.4-3,11.3-4.9,21.6-4.9,7.3,0,12.4,1.2,14.6,2.2l19.8,63.1a233.8,233.8,0,0,1,7.6,31.5Z" fill="#5ec8dc"/><path d="M7351.1,1277.8c1.4,17.1,13.7,25.4,37.9,25.4,15.6,0,29.3-3.4,38.1-7.3.7,9.3-3.2,21.3-8.8,27.6-8.1,4.7-21.8,8.6-38.6,8.6-42.8,0-65.6-24.7-65.6-64.3s24.5-67.2,62.9-67.2c35.7,0,52.1,22,52.1,54.2a74.9,74.9,0,0,1-3.7,23Zm44.7-25.7c2-12.7-2.7-25.1-20.3-25.1-15.1,0-24.4,9.7-25.4,25.1Z" fill="#5ec8dc"/><path d="M7487.5,1332.1c-24.5,0-31.8-15.9-31.8-37.7V1151.9c8.3-4.7,19.8-7.1,35.5-7.1v143.8c0,9.3,3.1,11.7,10.2,11.7a26.1,26.1,0,0,0,14.9-4.4c1,10.3-2.2,23.5-6.8,30.6C7503.9,1329.9,7496.5,1332.1,7487.5,1332.1Z" fill="#5ec8dc"/><path d="M779.8,5309c4,15.7,13.1,46.9,13.1,46.9s29.5-6.4,74.8-42.3C859.6,5314.3,813.5,5314.8,779.8,5309Z" fill="#ff671d"/><path d="M1201.5,5170.4c6.1,15,17.2,45.5,17.2,45.5s-27.4,12.3-85.2,10.4C1140.4,5222,1177.8,5195.1,1201.5,5170.4Z" fill="#00bc70"/><circle cx="851.1" cy="4815.7" r="454.1" fill="#00abc8"/><path d="M625.3,4329.6s-213.1,344-28,977.5c0,0,66.3,45.7,176.4,62,0,0-228.7-717.2,51.7-1097.1C825.4,4272,699,4277.9,625.3,4329.6Z" fill="#ff671d" stroke="#fff" stroke-miterlimit="10" stroke-width="44.72"/><path d="M333.2,4826.6s-11.6,101.6,27,159.3c103,45,652.9,94.1,987.6-326.1,0,0-7.4-76.6-79.6-145.9C1071,4786.7,645,4909.4,333.2,4826.6Z" fill="#fbcf63" stroke="#fff" stroke-miterlimit="10" stroke-width="44.72"/><path d="M787.8,4331.5c131.2,75.2,435.9,372.8,562.9,762.3,0,0-22.1,61.9-112.7,147.1,0,0-188.1-512-512.7-754.5C732.6,4459,752.3,4386.5,787.8,4331.5Z" fill="#00bc70" stroke="#fff" stroke-miterlimit="10" stroke-width="44.72"/><path d="M661.3,5743.1H574.2l-13.8,49c-6.9,4.3-19.7,6.1-34.2,6.1s-26.5-2.1-32.3-6.1l82.5-253.8c9-2.9,23.2-4.7,42.1-4.7s33,1.9,42.1,4.8l83.1,253.7c-5.8,4-17.1,6.2-33.1,6.2s-27.9-1.8-34.8-6.2ZM646,5690.8l-10.5-35.9a570.4,570.4,0,0,1-16.3-76.6h-3.3c-4,26.8-11.2,56.2-17,76.9l-10.2,35.6Z" fill="#0998b3"/><path d="M1008,5585.6h-3.3c-2.5,23.2-11.6,59.5-17.4,80.2L951.7,5794c-6.9,2.9-17.1,4.7-31.3,4.7s-24.6-1.8-31.5-4.7l-37.4-130.7c-4.7-16.7-13.4-56.7-15.6-77.7h-3.3v207.6c-5.1,2.6-12.7,5.1-28.7,5.1s-23.2-2.5-28.3-5.1V5538.7c11.9-3.2,25.4-4.7,48.2-4.7s36.3,1.5,47.6,4.8l34.8,123.4c5.5,19.6,11.6,50.5,13.8,74.8h3.3c2.1-24.7,8.3-55.9,13.4-74.1l33.1-124.1c11.2-3.3,23.9-4.7,47.5-4.7s36.3,1.4,48.3,4.7v254.5c-5,2.5-13,5-29,5s-23.6-2.5-28.7-5Z" fill="#0998b3"/><path d="M1239.6,5592.9v200c-5.4,2.9-15.2,5.5-33.4,5.5s-27.6-2.6-33-5.5v-200h-69.7c-2.1-4-4.7-13.8-4.7-28.7s2.6-24.3,4.7-28.3h205.9c2.1,4,4.7,13.5,4.7,28.4s-2.6,24.6-4.7,28.6Z" fill="#0998b3"/><path d="M516.1,5881H495.9l-3.9,12.3c-1.4.8-3.5,1.1-6.2,1.1s-4.8-.4-6.1-1.1l19.3-55.5a26.7,26.7,0,0,1,7.1-.8,27.8,27.8,0,0,1,7.3.8l19,55.5c-1.1.7-3.2,1.1-6.2,1.1a13.4,13.4,0,0,1-6.2-1.1Zm-3.1-9.8-3.1-9.3a117.5,117.5,0,0,1-3.6-16.3h-.7a105.4,105.4,0,0,1-3.8,16.5l-2.9,9.1Z" fill="#00bc70"/><path d="M563,5889.3c-1.7,3.6-5.4,6.4-12.4,6.4s-13.2-2.2-13.2-15.4v-24.2c2.7-1.5,6.5-2.4,11.5-2.4v24.6c0,4.3,1.3,6.7,6,6.7a9.3,9.3,0,0,0,7.6-3.4v-26.5a14.7,14.7,0,0,1,5.8-.9,13.8,13.8,0,0,1,5.7.9V5893a18.8,18.8,0,0,1-9,1.9l-1.3-5.6Z" fill="#00bc70"/><path d="M608.8,5854.5a15.4,15.4,0,0,1,0,9.8H598.3v15c0,3.8,1.1,5.8,5.4,5.8a12.1,12.1,0,0,0,7.2-2.2c.4,3.4-.9,8.1-2.5,10.1a14.4,14.4,0,0,1-9,2.7c-9.8,0-12.7-5.9-12.7-14.7v-16.7h-6.1a29.2,29.2,0,0,1,1.6-9.8h4.5v-8.6c2.9-2.1,7.1-3.1,11.6-3.2v11.8Z" fill="#00bc70"/><path d="M630.5,5840.7c0,4.7-2.8,7.3-6.9,7.3s-7-2.5-7-7.2,2.9-6.9,7-6.9S630.5,5836.4,630.5,5840.7Zm-12.8,14.4a15.7,15.7,0,0,1,5.9-.9,14.5,14.5,0,0,1,5.7.9v38.3a12.8,12.8,0,0,1-5.8,1,13.4,13.4,0,0,1-5.8-1Z" fill="#00bc70"/><path d="M651.4,5886.8c4.1,0,5.7-1.3,5.7-3.7,0-6.3-18.1-3.2-18.1-17.3,0-8.1,5.1-12.9,14.8-12.9a22.7,22.7,0,0,1,11.3,2.7,17.6,17.6,0,0,1,1.9,9.8,24.4,24.4,0,0,0-12-3.7c-3.4,0-4.4,1.1-4.4,3,0,5.9,18.2,3,18.2,17.1,0,10.1-7.1,13.9-17,13.9a29.5,29.5,0,0,1-12-2.3,16.9,16.9,0,0,1-1.8-10.2A28.5,28.5,0,0,0,651.4,5886.8Z" fill="#00bc70"/><path d="M688.7,5893.5a13.8,13.8,0,0,1-5.7.9,14.7,14.7,0,0,1-5.8-.9v-38c2.2-1.2,5.6-1.8,9.4-1.8l.6,6.5h.7c1.8-3.9,5.7-7.3,12.8-7.3,4.7,0,9.4,1.4,11.6,6.9h.6c1.7-3.7,5.6-6.9,12.7-6.9s12.9,2.2,12.9,15.3v25.3a13.8,13.8,0,0,1-5.7.9,14.7,14.7,0,0,1-5.8-.9v-23.3c0-4.1-1.4-6.7-5.9-6.7a8.1,8.1,0,0,0-7.6,4.5c0,.7.1,2.4.1,4.1v21.4a13.2,13.2,0,0,1-5.6.9,14.1,14.1,0,0,1-5.7-.9v-23.3c0-4.1-1.4-6.7-5.9-6.7a8.3,8.3,0,0,0-7.7,4.5Z" fill="#00bc70"/><path d="M816,5846.9h-.7a105.7,105.7,0,0,1-3.8,15.9l-9.5,31c-1.2.6-3,.8-5.8.8a15.8,15.8,0,0,1-5.6-.8l-9.8-31.4a100.7,100.7,0,0,1-3.5-15.5h-.6v46.7c-1.1.6-2.9.8-5.4.8s-4.3-.2-5.4-.9v-55.4a41.3,41.3,0,0,1,9-.8,39,39,0,0,1,8.9.8l9.2,29.3a94.1,94.1,0,0,1,3.3,15.7h.6a141,141,0,0,1,3.1-15.5l8.8-29.5a40,40,0,0,1,9-.8,40.9,40.9,0,0,1,8.9.8v55.5c-1.1.6-2.8.8-5.4.8a13.1,13.1,0,0,1-5.4-.8Z" fill="#00bc70"/><path d="M848.5,5878.1c.5,5.5,4.5,8.2,12.4,8.2a31.3,31.3,0,0,0,12.4-2.4,13.7,13.7,0,0,1-2.9,9,26.4,26.4,0,0,1-12.6,2.8c-13.9,0-21.3-8-21.3-20.9s8-21.9,20.5-21.9,16.9,7.2,16.9,17.7a25.6,25.6,0,0,1-1.2,7.5Zm14.6-8.4c.6-4.1-.9-8.2-6.6-8.2s-8,3.2-8.3,8.2Z" fill="#00bc70"/><path d="M907.3,5837.1c2.7-1.5,6.4-2.3,11.5-2.3v58.3a18.3,18.3,0,0,1-8.6,1.8l-1.5-5.5h-.6c-2.1,4.2-6.7,6.3-12,6.3-10.7,0-15.8-8-15.8-19.9,0-14.5,7.6-22.9,19.6-22.9a16.2,16.2,0,0,1,7.4,1.5Zm.2,26.9a11.5,11.5,0,0,0-5-1c-7.2,0-10.4,4.8-10.4,12s2.9,10.3,8.1,10.3a11,11,0,0,0,7.3-2.9Z" fill="#00bc70"/><path d="M942.8,5840.8c0,4.7-2.7,7.2-6.9,7.2s-7-2.4-7-7.1,3-6.9,7-6.9S942.8,5836.4,942.8,5840.8Zm-12.7,14.4a12.8,12.8,0,0,1,5.8-1c2.8,0,4.7.4,5.7,1v38.3c-1,.6-2.9,1-5.7,1a12.8,12.8,0,0,1-5.8-1Z" fill="#00bc70"/><path d="M973.9,5885.5a22.3,22.3,0,0,0,10-2.3c.5,3.2-.9,8.1-3.1,10.3a23.6,23.6,0,0,1-10.6,2.2c-12.9,0-19.9-7.8-19.9-20.8,0-14.8,8.9-21.9,21-21.9,3.9,0,7.4.7,9.7,2.1s2.6,7,2.1,10.3a16.7,16.7,0,0,0-9.2-2.5c-7.1,0-11.7,3.2-11.7,11.2S966.8,5885.5,973.9,5885.5Z" fill="#00bc70"/><path d="M1013.1,5890c-1.7,3.5-5.5,5.7-11,5.7s-13-3.5-13-12.7,7-13.4,16.2-13.4a24.3,24.3,0,0,1,7.3,1v-1.1c0-4.8-2.4-6.6-7.7-6.6a26.6,26.6,0,0,0-12.7,3.3c-.9-3.1-.5-8,1.3-10.6s7.8-2.6,13.7-2.6c11.4,0,16.9,4,16.9,15.8v13.7c0,2.5,1.1,3.1,2.7,3.1a6,6,0,0,0,3.4-1,15.7,15.7,0,0,1-2.1,9.3,11.7,11.7,0,0,1-6.6,1.8c-4.6,0-7-1.9-7.7-5.7Zm-.3-11.7a12.7,12.7,0,0,0-5.2-1c-4.7,0-7,1.9-7,4.9s2.3,4.2,5.5,4.2a8.5,8.5,0,0,0,6.7-2.7Z" fill="#00bc70"/><path d="M1046.1,5895.7c-7.9,0-10.3-5.1-10.3-12.2v-46.3c2.7-1.6,6.4-2.4,11.5-2.4v46.8c0,3,1,3.8,3.3,3.8a8.8,8.8,0,0,0,4.9-1.4,17.7,17.7,0,0,1-2.2,9.9A13.9,13.9,0,0,1,1046.1,5895.7Z" fill="#00bc70"/><path d="M1102,5848.2v45.3a13.5,13.5,0,0,1-6,1,14.1,14.1,0,0,1-6-1v-45.3h-16a14.1,14.1,0,0,1-.9-5.3,16.4,16.4,0,0,1,.9-5.3h44a16.1,16.1,0,0,1,0,10.6Z" fill="#00bc70"/><path d="M1139.2,5853a8.6,8.6,0,0,1,3.8.7,17.2,17.2,0,0,1,.9,12.1,9.7,9.7,0,0,0-5.5-1.4c-4,0-7.1,2.8-8.6,7v22.1c-1,.6-2.9,1-5.7,1a12.8,12.8,0,0,1-5.8-1v-37.9c2.2-1.2,5.5-1.8,9.3-1.8l.8,7.3h.6C1130.2,5856.7,1132.7,5853,1139.2,5853Z" fill="#00bc70"/><path d="M1170.1,5890c-1.7,3.5-5.4,5.8-10.9,5.8s-13.1-3.5-13.1-12.8,7-13.4,16.2-13.4a24.3,24.3,0,0,1,7.3,1v-1.1c0-4.8-2.4-6.6-7.6-6.6a25.7,25.7,0,0,0-12.8,3.4c-.9-3.1-.5-8.1,1.3-10.7s7.8-2.6,13.7-2.6c11.4,0,16.9,4.1,16.9,15.8v13.8c0,2.4,1.1,3,2.7,3a5.7,5.7,0,0,0,3.4-1,16.4,16.4,0,0,1-2,9.3,11.2,11.2,0,0,1-6.6,1.9c-4.6,0-7-2-7.8-5.8Zm-.3-11.7a12.7,12.7,0,0,0-5.2-1c-4.6,0-6.9,1.9-6.9,5s2.3,4.2,5.4,4.2a8.3,8.3,0,0,0,6.7-2.8Z" fill="#00bc70"/><path d="M1208.7,5885.6c.6-3.5,1.4-7,2.3-10.3l6.1-20.5a13,13,0,0,1,4.7-.7,12.7,12.7,0,0,1,6.9,1.6l-12.5,37.7c-4.2,1.2-10.1,1.6-15.8,1.6l-13-39.3a13.1,13.1,0,0,1,7-1.6,14.1,14.1,0,0,1,4.8.7l6.4,20.5a103.4,103.4,0,0,1,2.5,10.3Z" fill="#00bc70"/><path d="M1243.5,5878.1c.5,5.6,4.5,8.3,12.3,8.3a30.9,30.9,0,0,0,12.4-2.4,13.5,13.5,0,0,1-2.8,9,26.4,26.4,0,0,1-12.6,2.8c-13.9,0-21.3-8-21.3-20.9s8-21.9,20.5-21.9,16.9,7.2,16.9,17.7a24.4,24.4,0,0,1-1.2,7.4Zm14.6-8.3c.6-4.1-.9-8.2-6.6-8.2s-8,3.2-8.3,8.2Z" fill="#00bc70"/><path d="M1287.9,5895.8c-8,0-10.4-5.2-10.3-12.3v-46.3c2.7-1.5,6.4-2.3,11.5-2.3v46.7c0,3.1,1,3.9,3.3,3.9a8.6,8.6,0,0,0,4.9-1.5,17.1,17.1,0,0,1-2.3,10A13.5,13.5,0,0,1,1287.9,5895.8Z" fill="#00bc70"/><path d="M6603.2,3209.3c4,15.7,13.1,46.9,13.1,46.9s29.4-6.4,74.8-42.3C6683,3214.6,6636.9,3215.1,6603.2,3209.3Z" fill="#e36b3b"/><path d="M7024.8,3070.7c6.1,15,17.3,45.5,17.3,45.5s-27.5,12.4-85.3,10.4C6963.8,3122.3,7001.2,3095.4,7024.8,3070.7Z" fill="#39b54a"/><circle cx="6674.4" cy="2716.1" r="454.1" fill="#5ec8dc"/><path d="M6448.7,2229.9s-219.6,386.2-28,977.5c0,0,66.3,45.7,176.4,62,0,0-228.7-717.1,51.7-1097.1C6648.8,2172.3,6522.4,2178.3,6448.7,2229.9Z" fill="#ff671d" stroke="#fff" stroke-miterlimit="10" stroke-width="44.72"/><path d="M6156.6,2726.9s-11.7,101.6,27,159.3c103,45,652.9,94.2,987.6-326.1,0,0-7.4-76.6-79.7-145.9C6894.4,2687,6468.3,2809.8,6156.6,2726.9Z" fill="#fbcf63" stroke="#fff" stroke-miterlimit="10" stroke-width="44.72"/><path d="M6611.1,2231.8c131.3,75.2,436,372.8,563,762.3,0,0-22.2,61.9-112.7,147.1,0,0-188.1-512-512.7-754.5C6555.9,2359.3,6575.6,2286.8,6611.1,2231.8Z" fill="#00bc70" stroke="#fff" stroke-miterlimit="10" stroke-width="44.72"/><path d="M6484.6,3643.4h-87.1l-13.8,49c-6.9,4.3-19.6,6.2-34.1,6.2s-26.5-2.2-32.3-6.2l82.4-253.7c9.1-2.9,23.3-4.8,42.2-4.8s33,1.9,42.1,4.8l83,253.7c-5.8,4-17,6.2-33,6.2s-27.9-1.8-34.8-6.2Zm-15.2-52.3-10.5-35.9a570.4,570.4,0,0,1-16.3-76.6h-3.3c-4,26.9-11.3,56.3-17.1,76.9l-10.1,35.6Z" fill="#5ec8dc"/><path d="M6831.3,3485.9h-3.2c-2.6,23.3-11.6,59.6-17.5,80.2L6775,3694.3c-6.9,2.9-17,4.7-31.2,4.7s-24.7-1.8-31.6-4.7l-37.3-130.7c-4.7-16.7-13.4-56.6-15.6-77.7H6656v207.6c-5.1,2.6-12.7,5.1-28.7,5.1s-23.2-2.5-28.3-5.1V3439.1c12-3.3,25.4-4.8,48.3-4.8s36.3,1.5,47.6,4.8l34.8,123.4c5.4,19.6,11.6,50.5,13.8,74.8h3.2a469.8,469.8,0,0,1,13.5-74.1l33-124.1c11.3-3.3,24-4.7,47.6-4.7s36.3,1.4,48.3,4.7v254.5c-5.1,2.5-13,5.1-29,5.1s-23.6-2.6-28.7-5.1Z" fill="#5ec8dc"/><path d="M7062.9,3493.2v200c-5.4,2.9-15.2,5.5-33.4,5.5s-27.6-2.6-33-5.5v-200h-69.7c-2.2-4-4.7-13.8-4.7-28.7s2.5-24.3,4.7-28.3h205.8c2.2,3.9,4.8,13.4,4.8,28.3s-2.6,24.7-4.8,28.6Z" fill="#5ec8dc"/><path d="M6339.4,3781.3h-20.1l-4,12.3c-1.3.8-3.5,1.1-6.2,1.1s-4.7-.4-6-1.1l19.2-55.5a27.5,27.5,0,0,1,7.2-.8,27,27,0,0,1,7.2.8l19.1,55.5c-1.1.7-3.2,1.1-6.2,1.1a13.4,13.4,0,0,1-6.2-1.1Zm-3.1-9.7-3-9.4a104.6,104.6,0,0,1-3.6-16.3h-.7a118.1,118.1,0,0,1-3.8,16.5l-2.9,9.1Z" fill="#5ec8dc"/><path d="M6386.4,3789.6c-1.7,3.6-5.5,6.4-12.5,6.4s-13.2-2.2-13.2-15.4v-24.2c2.7-1.5,6.6-2.4,11.6-2.4v24.6c0,4.3,1.3,6.7,5.9,6.7a9.5,9.5,0,0,0,7.7-3.4v-26.5a14.7,14.7,0,0,1,5.8-.9,13.8,13.8,0,0,1,5.7.9v37.9a18.8,18.8,0,0,1-9,1.9l-1.3-5.6Z" fill="#5ec8dc"/><path d="M6432.2,3754.8a12.4,12.4,0,0,1,.7,4.9,13.3,13.3,0,0,1-.7,5h-10.6v14.9c0,3.8,1.2,5.8,5.4,5.8a13,13,0,0,0,7.3-2.1,16.6,16.6,0,0,1-2.5,10.1,15.1,15.1,0,0,1-9.1,2.6c-9.7,0-12.6-5.9-12.6-14.7v-16.7H6404a29.2,29.2,0,0,1,1.6-9.8h4.5v-8.6c2.9-2.1,7.1-3.1,11.5-3.2v11.8Z" fill="#5ec8dc"/><path d="M6453.8,3741c0,4.7-2.7,7.3-6.9,7.3s-7-2.5-7-7.2,3-6.9,7-6.9S6453.8,3736.7,6453.8,3741Zm-12.7,14.4a19.1,19.1,0,0,1,11.6,0v38.4a13.8,13.8,0,0,1-5.7.9,14.7,14.7,0,0,1-5.8-.9Z" fill="#5ec8dc"/><path d="M6474.8,3787.1c4.1,0,5.7-1.3,5.7-3.7,0-6.3-18.2-3.2-18.2-17.3,0-8.1,5.2-12.9,14.8-12.9,4,0,8.2.8,11.3,2.7,1.5,2.3,2.3,6.7,1.9,9.8a23.7,23.7,0,0,0-11.9-3.7c-3.4,0-4.4,1.2-4.4,3.1,0,5.8,18.2,2.9,18.2,17,0,10.2-7.1,13.9-17,13.9a32.1,32.1,0,0,1-12.1-2.2,17.1,17.1,0,0,1-1.7-10.3C6464.6,3785.6,6470.5,3787.1,6474.8,3787.1Z" fill="#5ec8dc"/><path d="M6512.1,3793.8a13.8,13.8,0,0,1-5.7.9,14.7,14.7,0,0,1-5.8-.9v-38c2.1-1.2,5.6-1.8,9.4-1.8l.6,6.5h.6c1.9-3.9,5.8-7.3,12.9-7.3,4.7,0,9.4,1.4,11.6,6.9h.6c1.7-3.7,5.6-6.9,12.6-6.9s13,2.2,13,15.3v25.3a14.5,14.5,0,0,1-5.7.9,14.7,14.7,0,0,1-5.8-.9v-23.2c0-4.2-1.4-6.8-5.9-6.8a8.4,8.4,0,0,0-7.7,4.5,36.6,36.6,0,0,1,.2,4.1v21.4a13.6,13.6,0,0,1-5.6.9,14.7,14.7,0,0,1-5.8-.9v-23.2c0-4.2-1.3-6.8-5.8-6.8a8.3,8.3,0,0,0-7.7,4.5Z" fill="#5ec8dc"/><path d="M6639.3,3747.2h-.6c-.6,4.8-2.6,11.8-3.8,15.9l-9.5,31c-1.2.6-3,.8-5.8.8s-4.5-.2-5.6-.8l-9.8-31.4a100.7,100.7,0,0,1-3.5-15.5h-.6v46.7c-1.1.6-2.8.8-5.4.8a12.3,12.3,0,0,1-5.3-.8v-55.5a40.9,40.9,0,0,1,8.9-.8,34,34,0,0,1,9,.9l9.1,29.2a93.8,93.8,0,0,1,3.4,15.7h.6a105.9,105.9,0,0,1,3.1-15.5l8.8-29.4a33.5,33.5,0,0,1,9-.9,34.8,34.8,0,0,1,8.9.9v55.4c-1.2.6-2.8.8-5.4.8s-4.3-.2-5.4-.8Z" fill="#5ec8dc"/><path d="M6671.9,3778.4c.5,5.5,4.5,8.2,12.3,8.2a33,33,0,0,0,12.4-2.3,13,13,0,0,1-2.8,8.9c-2.6,1.6-7.1,2.8-12.6,2.8-13.9,0-21.3-8-21.3-20.9s8-21.9,20.5-21.8,16.9,7.1,16.9,17.6a25.6,25.6,0,0,1-1.2,7.5Zm14.6-8.4c.6-4.1-.9-8.2-6.6-8.2s-8,3.2-8.3,8.2Z" fill="#5ec8dc"/><path d="M6730.7,3737.4c2.7-1.5,6.4-2.3,11.5-2.3v58.3a18.3,18.3,0,0,1-8.6,1.8l-1.5-5.4h-.6c-2.1,4.1-6.7,6.2-12,6.2-10.8,0-15.9-8-15.9-19.8,0-14.6,7.7-22.9,19.7-22.9a16.6,16.6,0,0,1,7.4,1.4Zm.1,26.9a10.9,10.9,0,0,0-5-1c-7.1,0-10.3,4.8-10.3,12.1s2.8,10.2,8.1,10.2a10.7,10.7,0,0,0,7.2-2.9Z" fill="#5ec8dc"/><path d="M6766.2,3741.1c0,4.7-2.8,7.2-6.9,7.2s-7-2.4-7-7.1,2.9-6.9,7-6.9S6766.2,3736.7,6766.2,3741.1Zm-12.7,14.4a12.8,12.8,0,0,1,5.8-1c2.8,0,4.7.4,5.7,1v38.3c-1,.6-2.9,1-5.7,1a12.8,12.8,0,0,1-5.8-1Z" fill="#5ec8dc"/><path d="M6797.3,3785.8a22.3,22.3,0,0,0,10-2.3c.5,3.2-.9,8.1-3.1,10.3a23.6,23.6,0,0,1-10.6,2.2c-12.9,0-19.9-7.8-19.9-20.8,0-14.8,8.9-21.9,21-21.9,3.9,0,7.4.7,9.7,2.1s2.6,7,2,10.3a16.1,16.1,0,0,0-9.1-2.5c-7.2,0-11.8,3.2-11.8,11.2S6790.1,3785.8,6797.3,3785.8Z" fill="#5ec8dc"/><path d="M6836.5,3790.3c-1.8,3.5-5.5,5.8-11,5.7s-13-3.5-13-12.7,7-13.4,16.2-13.4a24.1,24.1,0,0,1,7.2,1v-1.1c0-4.8-2.3-6.6-7.6-6.6a25.6,25.6,0,0,0-12.7,3.4c-1-3.1-.6-8.1,1.3-10.7s7.8-2.6,13.6-2.6c11.5,0,17,4,17,15.8v13.8c0,2.4,1.1,3,2.7,3a6,6,0,0,0,3.4-1,16.4,16.4,0,0,1-2.1,9.3,12,12,0,0,1-6.6,1.9c-4.6,0-7-2-7.8-5.8Zm-.3-11.7a13.2,13.2,0,0,0-5.3-1c-4.6,0-6.9,1.9-6.9,4.9s2.3,4.2,5.5,4.2,5.1-.7,6.7-2.7Z" fill="#5ec8dc"/><path d="M6869.5,3796.1c-8,0-10.3-5.2-10.3-12.3v-46.3c2.7-1.5,6.4-2.3,11.5-2.3v46.7c0,3,1,3.8,3.3,3.8a9.3,9.3,0,0,0,4.9-1.4,16.9,16.9,0,0,1-2.3,9.9A13.5,13.5,0,0,1,6869.5,3796.1Z" fill="#5ec8dc"/><path d="M6925.4,3748.5v45.3a13.5,13.5,0,0,1-6,1,14.1,14.1,0,0,1-6-1v-45.3h-16a16.1,16.1,0,0,1,0-10.6h44a16.2,16.2,0,0,1,.8,5.2,16.9,16.9,0,0,1-.8,5.3Z" fill="#5ec8dc"/><path d="M6962.6,3753.3a7.9,7.9,0,0,1,3.7.7,14.3,14.3,0,0,1,1.7,7.3,13.5,13.5,0,0,1-.7,4.8,9.7,9.7,0,0,0-5.5-1.3c-4.1,0-7.1,2.7-8.6,6.9v22.1c-1,.6-2.9,1-5.7,1a12.8,12.8,0,0,1-5.8-1v-37.9c2.1-1.2,5.5-1.8,9.3-1.8l.8,7.3h.6C6953.5,3757,6956.1,3753.3,6962.6,3753.3Z" fill="#5ec8dc"/><path d="M6993.5,3790.4c-1.7,3.5-5.5,5.7-11,5.7s-13-3.5-13-12.7,7-13.5,16.2-13.5a21.9,21.9,0,0,1,7.3,1.1v-1.2c0-4.8-2.4-6.6-7.7-6.6a25.6,25.6,0,0,0-12.7,3.4c-.9-3.1-.5-8,1.3-10.7s7.8-2.6,13.7-2.6c11.4,0,16.9,4.1,16.9,15.8v13.8c0,2.5,1.1,3,2.7,3a6.8,6.8,0,0,0,3.4-.9,16,16,0,0,1-2.1,9.3,11.7,11.7,0,0,1-6.6,1.8c-4.6,0-7-2-7.8-5.7Zm-.3-11.8a14.6,14.6,0,0,0-5.2-1c-4.7,0-7,1.9-7,5s2.3,4.2,5.5,4.2a8.3,8.3,0,0,0,6.7-2.8Z" fill="#5ec8dc"/><path d="M7032.1,3785.9a65.9,65.9,0,0,1,2.3-10.2l6-20.6a14.1,14.1,0,0,1,4.8-.7,12.7,12.7,0,0,1,6.9,1.6l-12.6,37.7c-4.2,1.2-10.1,1.6-15.7,1.6l-13-39.3c1.4-.9,3.6-1.6,7-1.6a13,13,0,0,1,4.7.7l6.5,20.6a80,80,0,0,1,2.4,10.2Z" fill="#5ec8dc"/><path d="M7066.9,3778.4c.5,5.6,4.5,8.3,12.3,8.3a30.9,30.9,0,0,0,12.4-2.4,13.3,13.3,0,0,1-2.8,9,26.7,26.7,0,0,1-12.6,2.8c-13.9,0-21.3-8-21.3-20.9s7.9-21.9,20.4-21.9,17,7.2,17,17.7a24.4,24.4,0,0,1-1.2,7.4Zm14.6-8.3c.6-4.1-.9-8.2-6.6-8.2s-8,3.2-8.3,8.2Z" fill="#5ec8dc"/><path d="M7111.3,3796.1c-8,0-10.4-5.2-10.4-12.2v-46.4c2.7-1.5,6.5-2.3,11.6-2.3V3782c0,3,1,3.8,3.3,3.8a8.1,8.1,0,0,0,4.8-1.5,17.1,17.1,0,0,1-2.2,10A13.5,13.5,0,0,1,7111.3,3796.1Z" fill="#5ec8dc"/><path d="M1582.6,3152.9c4,15.7,13.1,46.9,13.1,46.9s29.4-6.4,74.8-42.3C1662.4,3158.2,1616.3,3158.7,1582.6,3152.9Z" fill="#ffa168"/><path d="M2004.2,3014.3c6.1,15,17.3,45.5,17.3,45.5s-27.5,12.4-85.3,10.4C1943.1,3065.9,1980.5,3039,2004.2,3014.3Z" fill="#00bc70"/><circle cx="1653.8" cy="2659.7" r="454.1" fill="#5ec8dc"/><path d="M1428.1,2173.5S1208.4,2559.7,1400,3151c0,0,66.4,45.7,176.5,62,0,0-228.7-717.1,51.6-1097.1C1628.1,2115.9,1501.8,2121.9,1428.1,2173.5Z" fill="#ffa168" stroke="#fff" stroke-miterlimit="10" stroke-width="44.72"/><path d="M1136,2670.5s-11.7,101.6,27,159.3c103,45,652.8,94.2,987.5-326.1,0,0-7.3-76.6-79.6-145.9C1873.8,2630.6,1447.7,2753.4,1136,2670.5Z" fill="#fbcf63" stroke="#fff" stroke-miterlimit="10" stroke-width="44.72"/><path d="M1590.5,2175.4c131.3,75.2,435.9,372.8,562.9,762.3,0,0-22.1,61.9-112.6,147.1,0,0-188.1-512-512.8-754.5C1535.3,2302.9,1555,2230.4,1590.5,2175.4Z" fill="#00bc70" stroke="#fff" stroke-miterlimit="10" stroke-width="44.72"/><path d="M1464,3587h-87.1l-13.8,49c-6.9,4.4-19.6,6.2-34.1,6.2s-26.5-2.2-32.3-6.2l82.4-253.7c9.1-2.9,23.3-4.8,42.1-4.7s33.1,1.8,42.1,4.7l83.1,253.7c-5.8,4-17,6.2-33,6.2s-28-1.8-34.9-6.2Zm-15.2-52.3-10.5-35.9a555.3,555.3,0,0,1-16.3-76.6h-3.3c-4,26.9-11.3,56.3-17.1,77l-10.2,35.5Z" fill="#5ec8dc"/><path d="M1810.7,3429.5h-3.2c-2.6,23.3-11.7,59.6-17.5,80.3l-35.6,128.1c-6.9,2.9-17,4.7-31.2,4.7s-24.7-1.8-31.6-4.7l-37.3-130.7c-4.8-16.7-13.5-56.6-15.6-77.7h-3.3v207.6c-5.1,2.6-12.7,5.1-28.7,5.1s-23.3-2.5-28.3-5.1V3382.7c12-3.3,25.4-4.8,48.3-4.7s36.3,1.4,47.5,4.7l34.9,123.4c5.4,19.6,11.6,50.5,13.8,74.8h3.2a469.8,469.8,0,0,1,13.5-74.1l33-124.1c11.3-3.3,24-4.7,47.6-4.7s36.3,1.4,48.3,4.7v254.5c-5.1,2.5-13.1,5.1-29,5.1s-23.6-2.6-28.7-5.1Z" fill="#5ec8dc"/><path d="M2042.3,3436.8v200c-5.5,3-15.3,5.5-33.4,5.5s-27.6-2.6-33-5.5v-200h-69.7c-2.2-4-4.7-13.8-4.7-28.7s2.5-24.3,4.7-28.3H2112c2.2,4,4.7,13.4,4.7,28.3s-2.5,24.7-4.7,28.6Z" fill="#5ec8dc"/><path d="M1318.8,3724.9h-20.1l-4,12.3c-1.3.8-3.5,1.1-6.2,1.1s-4.8-.4-6-1.1l19.2-55.5a32.8,32.8,0,0,1,14.4,0l19.1,55.5c-1.1.7-3.2,1.1-6.2,1.1s-4.9-.4-6.2-1.1Zm-3.1-9.7-3-9.4a117.5,117.5,0,0,1-3.7-16.3h-.6a118.1,118.1,0,0,1-3.8,16.5l-3,9.2Z" fill="#ffa168"/><path d="M1365.8,3733.2c-1.8,3.6-5.5,6.4-12.5,6.4s-13.2-2.2-13.2-15.4V3700c2.7-1.5,6.5-2.4,11.6-2.4v24.6c0,4.3,1.4,6.7,6,6.7a9.3,9.3,0,0,0,7.6-3.4V3699a15.5,15.5,0,0,1,5.8-.9,14.7,14.7,0,0,1,5.8.9v38a20.5,20.5,0,0,1-9,1.8l-1.4-5.6Z" fill="#ffa168"/><path d="M1411.6,3698.4a12.7,12.7,0,0,1,.7,4.9,13.3,13.3,0,0,1-.7,5H1401v14.9c0,3.8,1.1,5.8,5.4,5.8a13,13,0,0,0,7.3-2.1,16.6,16.6,0,0,1-2.5,10.1,15.1,15.1,0,0,1-9.1,2.6c-9.8,0-12.6-5.9-12.6-14.7v-16.6h-6.1a27.1,27.1,0,0,1,1.6-9.9h4.5v-8.6c2.9-2.1,7.1-3.1,11.5-3.2v11.8Z" fill="#ffa168"/><path d="M1433.2,3684.6c0,4.7-2.8,7.3-6.9,7.3s-7-2.5-7-7.2,3-6.9,7-6.9S1433.2,3680.3,1433.2,3684.6Zm-12.7,14.4a14.7,14.7,0,0,1,5.8-.9,13.8,13.8,0,0,1,5.7.9v38.4a13.8,13.8,0,0,1-5.7.9,14.7,14.7,0,0,1-5.8-.9Z" fill="#ffa168"/><path d="M1454.2,3730.7c4.1,0,5.6-1.3,5.7-3.7,0-6.3-18.2-3.2-18.2-17.3,0-8.1,5.2-12.9,14.8-12.9,4,0,8.2.8,11.3,2.7a17.6,17.6,0,0,1,1.9,9.8,24,24,0,0,0-11.9-3.7c-3.4,0-4.5,1.2-4.5,3.1,0,5.8,18.2,2.9,18.2,17,0,10.2-7,13.9-16.9,13.9-4.1,0-8.7-.6-12.1-2.2a16.4,16.4,0,0,1-1.7-10.3C1444,3729.2,1449.8,3730.7,1454.2,3730.7Z" fill="#ffa168"/><path d="M1491.5,3737.4a14.1,14.1,0,0,1-5.7.9,14.7,14.7,0,0,1-5.8-.9v-38a21.5,21.5,0,0,1,9.4-1.8l.6,6.5h.6c1.9-3.9,5.7-7.3,12.9-7.3,4.7,0,9.4,1.4,11.5,6.9h.7c1.6-3.7,5.5-6.9,12.6-6.9s13,2.2,13,15.3v25.3a14.7,14.7,0,0,1-5.8.9,15.1,15.1,0,0,1-5.8-.9v-23.2c0-4.2-1.3-6.8-5.8-6.8a8.4,8.4,0,0,0-7.7,4.5,36.6,36.6,0,0,1,.2,4.1v21.4a18.5,18.5,0,0,1-11.4,0v-23.2c0-4.2-1.3-6.8-5.9-6.8a8.1,8.1,0,0,0-7.6,4.5Z" fill="#ffa168"/><path d="M1618.7,3690.8h-.6a137.3,137.3,0,0,1-3.8,15.9l-9.5,31c-1.2.6-3,.8-5.8.8a14.1,14.1,0,0,1-5.7-.8l-9.7-31.4a90.2,90.2,0,0,1-3.5-15.5h-.7v46.7c-1.1.6-2.8.8-5.4.8s-4.2-.2-5.3-.8v-55.4a45,45,0,0,1,17.9,0l9.1,29.2a93.8,93.8,0,0,1,3.4,15.7h.6a105.9,105.9,0,0,1,3.1-15.5l8.8-29.4a33.2,33.2,0,0,1,8.9-.9,33.7,33.7,0,0,1,8.9.9v55.4c-1.1.6-2.8.8-5.3.8s-4.3-.2-5.4-.8Z" fill="#ffa168"/><path d="M1651.3,3722c.5,5.5,4.4,8.2,12.3,8.2a33,33,0,0,0,12.4-2.3,13,13,0,0,1-2.8,8.9c-2.7,1.6-7.1,2.8-12.6,2.8-13.9,0-21.3-8-21.3-20.9s7.9-21.8,20.4-21.8,17,7.1,17,17.6a25.1,25.1,0,0,1-1.2,7.5Zm14.5-8.4c.7-4.1-.8-8.2-6.5-8.2s-8,3.2-8.3,8.2Z" fill="#ffa168"/><path d="M1710.1,3681c2.7-1.5,6.4-2.3,11.5-2.3V3737a18.6,18.6,0,0,1-8.6,1.8l-1.5-5.4h-.7c-2,4.1-6.6,6.2-12,6.2-10.7,0-15.8-8-15.8-19.8,0-14.6,7.7-22.9,19.7-22.9a16.9,16.9,0,0,1,7.4,1.4Zm.1,26.9a11.2,11.2,0,0,0-5-1c-7.1,0-10.3,4.8-10.3,12.1s2.8,10.2,8.1,10.2a10.7,10.7,0,0,0,7.2-2.9Z" fill="#ffa168"/><path d="M1745.6,3684.7c0,4.7-2.8,7.2-6.9,7.2s-7-2.4-7-7.1,2.9-6.9,7-6.9S1745.6,3680.3,1745.6,3684.7Zm-12.7,14.4a12.8,12.8,0,0,1,5.8-1c2.8,0,4.7.4,5.7,1v38.3c-1,.6-2.9,1-5.7,1a12.8,12.8,0,0,1-5.8-1Z" fill="#ffa168"/><path d="M1776.7,3729.4a22.7,22.7,0,0,0,10-2.3c.5,3.2-1,8.1-3.1,10.3a23.7,23.7,0,0,1-10.7,2.2c-12.8,0-19.8-7.8-19.8-20.8,0-14.8,8.9-21.9,21-21.9,3.9,0,7.4.7,9.7,2.1s2.6,7,2,10.3a16.4,16.4,0,0,0-9.1-2.5c-7.2,0-11.8,3.2-11.8,11.2S1769.5,3729.4,1776.7,3729.4Z" fill="#ffa168"/><path d="M1815.9,3733.9c-1.8,3.5-5.5,5.8-11,5.8s-13-3.5-13-12.8,7-13.4,16.2-13.4a24.1,24.1,0,0,1,7.2,1v-1.1c0-4.8-2.4-6.6-7.6-6.6a25.3,25.3,0,0,0-12.7,3.4c-1-3.1-.6-8.1,1.2-10.7s7.8-2.6,13.7-2.6c11.5,0,16.9,4,16.9,15.8v13.8c0,2.4,1.2,3,2.7,3a6.1,6.1,0,0,0,3.5-1,16.4,16.4,0,0,1-2.1,9.3,12,12,0,0,1-6.6,1.9c-4.6,0-7-2-7.8-5.8Zm-.3-11.7a13.2,13.2,0,0,0-5.3-1c-4.6,0-6.9,1.9-6.9,4.9s2.3,4.3,5.5,4.3a8.4,8.4,0,0,0,6.7-2.8Z" fill="#ffa168"/><path d="M1848.9,3739.7c-8,0-10.4-5.2-10.4-12.3v-46.3c2.7-1.5,6.5-2.3,11.6-2.3v46.7c0,3,1,3.8,3.3,3.8a8,8,0,0,0,4.8-1.4,16.9,16.9,0,0,1-2.2,9.9A13.5,13.5,0,0,1,1848.9,3739.7Z" fill="#ffa168"/><path d="M1904.8,3692.1v45.3a13.8,13.8,0,0,1-6,1,13.5,13.5,0,0,1-6-1v-45.3h-16a14.1,14.1,0,0,1-.9-5.3,13.5,13.5,0,0,1,.9-5.2h43.9a13.5,13.5,0,0,1,.9,5.2,13.7,13.7,0,0,1-.9,5.3Z" fill="#ffa168"/><path d="M1942,3696.9a7.9,7.9,0,0,1,3.7.7,14.3,14.3,0,0,1,1.7,7.3,13.5,13.5,0,0,1-.7,4.8,10.2,10.2,0,0,0-5.5-1.3c-4.1,0-7.1,2.7-8.6,6.9v22.2a14.5,14.5,0,0,1-5.7.9,12.8,12.8,0,0,1-5.8-1v-37.9c2.1-1.2,5.4-1.8,9.3-1.8l.8,7.3h.6C1932.9,3700.6,1935.5,3696.9,1942,3696.9Z" fill="#ffa168"/><path d="M1972.9,3734c-1.8,3.5-5.5,5.7-11,5.7s-13-3.5-13-12.7,7-13.5,16.2-13.5a21.3,21.3,0,0,1,7.2,1.1v-1.2c0-4.8-2.3-6.6-7.6-6.6a25.6,25.6,0,0,0-12.7,3.4c-1-3.1-.6-8,1.3-10.7s7.8-2.6,13.6-2.6c11.5,0,17,4.1,17,15.8v13.8c0,2.5,1.1,3,2.7,3a6.8,6.8,0,0,0,3.4-.9,16.8,16.8,0,0,1-2.1,9.3,12,12,0,0,1-6.6,1.8c-4.6,0-7-2-7.8-5.7Zm-.3-11.8a15.1,15.1,0,0,0-5.3-1c-4.6,0-6.9,1.9-6.9,5s2.3,4.2,5.5,4.2a8.4,8.4,0,0,0,6.7-2.8Z" fill="#ffa168"/><path d="M2011.5,3729.5a65.9,65.9,0,0,1,2.3-10.2l6-20.6a13.7,13.7,0,0,1,4.8-.7,12.9,12.9,0,0,1,6.9,1.6l-12.6,37.7c-4.2,1.2-10.1,1.6-15.7,1.6l-13-39.3a12.7,12.7,0,0,1,6.9-1.6,13.7,13.7,0,0,1,4.8.7l6.5,20.6a80,80,0,0,1,2.4,10.2Z" fill="#ffa168"/><path d="M2046.3,3722c.5,5.6,4.4,8.3,12.3,8.3a31.3,31.3,0,0,0,12.4-2.4c.2,3.1-1,7-2.9,9a25.9,25.9,0,0,1-12.5,2.8c-13.9,0-21.3-8-21.3-20.9s7.9-21.9,20.4-21.9,16.9,7.2,16.9,17.7a22.7,22.7,0,0,1-1.2,7.5Zm14.5-8.3c.7-4.1-.8-8.2-6.6-8.2s-7.9,3.2-8.2,8.2Z" fill="#ffa168"/><path d="M2090.6,3739.7c-7.9,0-10.3-5.2-10.3-12.2v-46.4c2.7-1.5,6.5-2.3,11.5-2.3v46.8c0,3,1.1,3.8,3.4,3.8a8.1,8.1,0,0,0,4.8-1.5,17.9,17.9,0,0,1-2.2,10A13.7,13.7,0,0,1,2090.6,3739.7Z" fill="#ffa168"/></g></svg>