<svg id="Layer_1" data-name="Layer 1" xmlns="http://www.w3.org/2000/svg" width="679.4" height="137.3" viewBox="0 0 679.4 137.3"><title>cocon-pro-bold</title><g id="A_B_C_D_E_F_G_H_I_J_K_L_M_N_O_P_Q_R_S_T_U_V_W_X_Y_Z" data-name="A B C D E F G H I J K L M N O P Q R S T U V W X Y Z" style="isolation:isolate"><g style="isolation:isolate"><path d="M18,34.4c-2.2,0-3.3-1.2-3.5-2.7a13.9,13.9,0,0,0-.6-3.4H7.2c-.4,1.8-.7,3.8-1,6.1H3.6c-1.8,0-2.5-1.2-2.5-2.8,0-3.5,4-17.7,7.1-21.9h2.5a4.5,4.5,0,0,1,4.1,2.4c2.3,4.6,5.3,16.9,5.9,22.3ZM10.6,15.7a54.9,54.9,0,0,0-2.4,7.8H13A51.2,51.2,0,0,0,10.6,15.7Z" fill="#fff"/><path d="M37.9,34.7H35.6c-4.2,0-6.5-2.2-6.5-6.3V10.7a22.7,22.7,0,0,1,6.2-1.2h2.6c4.3,0,7.5,2.5,7.5,6.9a5.3,5.3,0,0,1-2.7,5,6.5,6.5,0,0,1,3,5.3C45.7,31.9,42.2,34.7,37.9,34.7Zm-.6-20H34.9v4.6h2.3c1.5,0,2.3-.8,2.3-2.5A2,2,0,0,0,37.3,14.7Zm-2.4,9.4v4.1a1.5,1.5,0,0,0,1.5,1.4h1.1c1.6,0,2.3-.9,2.3-2.8s-.7-2.7-2.5-2.7Z" fill="#fff"/><path d="M71.5,16.8c-.8-1.3-2.6-2.3-5.1-2.3s-5.7,2.7-5.7,7.1,2.4,8,5.8,8a6.4,6.4,0,0,0,5-2.2h.2v2.3c0,3.1-2.4,5.2-6.4,5.2-5.8,0-10.5-4.9-10.5-12.6S58.9,9.2,65.6,9.2c3.6,0,6.1,1.7,6.1,5.4v2.2Z" fill="#fff"/><path d="M88.6,34.7H86.5c-3.8,0-6.5-1.8-6.5-5.9V10.5a18.1,18.1,0,0,1,5.8-1.1h2.3c5.8,0,10.5,4,10.5,12.4S94.5,34.7,88.6,34.7ZM88,14.5H86.9l-1,.2V27.6c0,1.1.6,1.9,1.6,1.9h.4c3.1,0,4.8-2.3,4.8-7.1S90.8,14.5,88,14.5Z" fill="#fff"/><path d="M118.3,34.7h-2c-5.4,0-8.5-3.1-8.5-10.1V20.5a48.8,48.8,0,0,1,.4-6.8c.3-3,1.8-4,3.7-4h11.4v2.2c0,1.9-1.4,2.9-3.2,2.9h-6.2c-.1,1.5-.3,3.3-.3,4.7h7.6v2.1c0,1.9-1.1,2.7-2.9,2.7h-4.7v1.4c0,2.8.8,3.9,3.6,3.9h1.3a11.7,11.7,0,0,0,4.6-.9v2.4C123.1,33.8,121.6,34.7,118.3,34.7Z" fill="#fff"/><path d="M143.9,14.9h-5.3v4.8h6.9v2.1a2.7,2.7,0,0,1-2.5,2.8h-4.3v9.8h-2.6a3.1,3.1,0,0,1-3.3-3.2V13.9c0-3.3,1.6-4.2,4.2-4.2h9.7V12A2.9,2.9,0,0,1,143.9,14.9Z" fill="#fff"/><path d="M165.4,34.9c-6.4,0-10.8-4.6-10.8-12.6s4.3-13.1,11.8-13.1c4.1,0,6.1,2.5,6.1,5v2.2h-.2c-1-1.2-3.2-2-5.9-2s-5.9,2.5-5.9,7.3,2.2,8,5.2,8c1.4,0,1.7-.4,1.7-1.8V26.1a19.6,19.6,0,0,0-.4-4.2h2.9a3,3,0,0,1,3,2.8v3.8C172.9,32.4,170.9,34.9,165.4,34.9Z" fill="#fff"/><path d="M198.3,34.4a3.6,3.6,0,0,1-3.8-3.6V24.3h-6.1V34.4h-2.2a3.5,3.5,0,0,1-3.6-3.6V9.7h2.3a3.3,3.3,0,0,1,3.5,3.3v6.4h6.1V9.7h2.7a3.3,3.3,0,0,1,3.2,3.3V34.4Z" fill="#fff"/><path d="M214.1,34.4a3.3,3.3,0,0,1-3.3-3.6V9.7h2.7a3.2,3.2,0,0,1,3.1,3.3V34.4Z" fill="#fff"/><path d="M229.4,34.7c-2.4,0-4.2-1.4-4.2-3.3V28.7a5.1,5.1,0,0,0,3,1.1c1.8,0,2.4-.8,2.4-2.3V9.7h2a3.6,3.6,0,0,1,3.9,3.7v14C236.5,31.7,234,34.7,229.4,34.7Z" fill="#fff"/><path d="M257.7,21a58.9,58.9,0,0,0,4.4,7.3c1,1.3,1.8,2.6,3.4,3-.6,2.5-1.7,3.3-3.5,3.3a4.8,4.8,0,0,1-3.4-1.8,93.6,93.6,0,0,1-6.2-10.3V34.4h-2.1c-2.4,0-3.7-1.3-3.7-3.7V9.7h1.9c2.4,0,3.9,1.3,3.9,3.7v6.7c1.8-3,3.5-5.8,5.5-8.6a3.9,3.9,0,0,1,3.6-1.8h3.9V10C263.3,12.7,259.7,17.7,257.7,21Z" fill="#fff"/><path d="M283.6,34.6h-2c-5.4,0-7.6-3-7.6-8.4V9.7h2.2c2.2,0,3.7,1.6,3.7,4.3V25.5c0,2.9.8,3.9,3.1,3.9h.9a12,12,0,0,0,4.2-.8v2.3C288.1,33.3,287.1,34.6,283.6,34.6Z" fill="#fff"/><path d="M320.5,34.4a3.4,3.4,0,0,1-3.6-3.7c0-2.4-.2-8.5-.5-12.2-.6,1.5-.9,3.4-1.5,5.5l-1.3,4.7a42.3,42.3,0,0,1-2.1,5.7h-1.8c-1.5,0-3.2-1.8-4.6-6.8s-1.9-6.9-2.6-9.2c-.3,4.3-.5,11.9-.5,16h-2.1a3.3,3.3,0,0,1-3.6-3.7,122.7,122.7,0,0,1,1.8-21h1.4c3.6,0,6,1.9,7.2,5.8l1.6,5.2a44.5,44.5,0,0,1,1.4,5.5,37.1,37.1,0,0,1,1.6-5.7l1.4-5c.8-2.5,1.8-4.9,2.8-5.8h1c2.9,0,4.9,2,5.3,5.4s1.1,14.6,1.1,19.3Z" fill="#fff"/><path d="M349.2,34.4c-2.7,0-4.7-1.8-6.6-6.4l-3.1-7.3a21.6,21.6,0,0,1-.8-2.3v16h-2.5c-1.5,0-3.1-1.3-3.1-3.7V9.7h2.3a7.2,7.2,0,0,1,6.8,5l2.6,6.8,1.2,3.4V9.7h2.6a2.9,2.9,0,0,1,2.8,3V34.4Z" fill="#fff"/><path d="M370.7,34.9c-5,0-9.5-4.9-9.5-12.5s3.5-13.2,10.1-13.2,9.5,4.7,9.5,12.5S377.9,34.9,370.7,34.9Zm.1-20.7c-2.2,0-3.7,2.7-3.7,7.5s1.5,8.2,4.1,8.2,3.6-2.8,3.6-7.5S373.7,14.2,370.8,14.2Z" fill="#fff"/><path d="M398.8,25.7a5.4,5.4,0,0,1-2.3-.3v9h-2.6c-1.8,0-3.3-1.2-3.3-4v-20a24.3,24.3,0,0,1,6-1h2.3c4.3,0,7.6,2.8,7.6,7.8S403.4,25.7,398.8,25.7Zm-.4-11.4h-2v6.1a4.4,4.4,0,0,0,1.9.3c1.5,0,2.3-1,2.3-3S399.9,14.3,398.4,14.3Z" fill="#fff"/><path d="M414.5,22.4c0-7.9,3.7-13.2,10.2-13.2s9.6,4.8,9.6,12.5-2.6,9.7-5.4,10.8a29.6,29.6,0,0,0,6.5.8v2.1a2.3,2.3,0,0,1-2.5,2.4,21.6,21.6,0,0,1-11.6-3.7C417.5,32.9,414.5,28.6,414.5,22.4Zm9.7-8c-2.8,0-3.8,3.4-3.8,7.3,0,5.6,1.7,8.1,4.3,8.1s3.7-2.7,3.7-7.4S426.8,14.4,424.2,14.4Z" fill="#fff"/><path d="M458.7,34.6a4.3,4.3,0,0,1-3.6-2.9l-1.3-3.8c-.7-2.2-1.4-2.7-2.5-2.9l-1.1-.2v9.6h-2.5c-2.1,0-3.3-1.6-3.3-3.7V10.4a19.3,19.3,0,0,1,6-1h2.7c4.4,0,7.6,3,7.6,7.3s-1.8,5.9-3.9,6.5a5.5,5.5,0,0,1,2.2,3l1.4,3.8a21.2,21.2,0,0,0,1.7,3.4A4.2,4.2,0,0,1,458.7,34.6Zm-7.4-20.4h-1.1v6.1h2.1a2.7,2.7,0,0,0,2.5-3c0-2.4-1-3.3-2.4-3.3Z" fill="#fff"/><path d="M477.4,34.9c-4.9,0-7-2.4-7-5.7v-2h.1a9.4,9.4,0,0,0,6.1,2.5c2.7,0,3.5-.9,3.5-2.7s-.6-2.1-4-2.9-6.2-3.5-6.2-6.7a8.1,8.1,0,0,1,8.5-8.2c5.1,0,6.9,2.4,6.9,4.9v2.6h-.1a7.6,7.6,0,0,0-5.7-2.3c-2.7,0-3.8,1.1-3.8,2.6s.9,1.9,4.6,2.9,5.6,3.2,5.6,6.8S482.7,34.9,477.4,34.9Z" fill="#fff"/><path d="M508.1,14.9h-2.9V34.4h-2.6a3.1,3.1,0,0,1-3.4-3.3V14.9h-5.7V12.7a3,3,0,0,1,3.1-3h14.5v2.1A2.9,2.9,0,0,1,508.1,14.9Z" fill="#fff"/><path d="M528.1,34.9c-5.2,0-8.6-3.5-8.6-9.4V9.7h2.8c1.8,0,3.1,1,3.1,4.1V24.9c0,3.7.9,4.8,3.2,4.8s2.7-1.3,2.7-4.5V9.7h2.6c2.1,0,3.3,1.1,3.3,4V25C537.2,31,533.7,34.9,528.1,34.9Z" fill="#fff"/><path d="M556.9,34.7h-1.2c-1.5,0-2.2-.6-3.1-2.3-3.3-5.4-6.2-14.7-7-22.7h3.5c1.8,0,2.8,1.3,3,3.1a73.2,73.2,0,0,0,3.3,12.8c1.8-4.9,3.6-12.4,3.8-15.9h3.2c1.4,0,2.4,1.2,2.4,2.9s-.1.6-.1.8C563.8,19,559.5,30.8,556.9,34.7Z" fill="#fff"/><path d="M601,19.2a95.6,95.6,0,0,1-5.3,15.4h-2.2a3.1,3.1,0,0,1-2.7-1.7,45.6,45.6,0,0,1-3.7-11.5,52.3,52.3,0,0,1-4.3,13.2h-2a3.5,3.5,0,0,1-3-1.8c-2.8-5.1-5.4-16.1-6-23.1h3.5c1.9,0,3,1.3,3.2,3.2a74.9,74.9,0,0,0,2.7,12.4,105.9,105.9,0,0,0,3.3-14.7h2.2c2.2,0,3.7,1,4.1,3.6a95,95,0,0,0,2.8,11.1,79.7,79.7,0,0,0,3.2-15.6h3a2.5,2.5,0,0,1,2.6,2.8A54.1,54.1,0,0,1,601,19.2Z" fill="#fff"/><path d="M620.1,29.8l-1.8-3.2a21.5,21.5,0,0,0-3.3,7.8h-2.8c-1.3,0-2.1-1.1-2.1-2.8a12.1,12.1,0,0,1,.8-3.4,32.9,32.9,0,0,1,2-3.4l2.5-3.3-2.2-3.7a26.1,26.1,0,0,1-3.4-8.1h3.5c1.2,0,2.5.7,4.4,4.3l1.8,3.3c2.6-3.7,3.2-5.3,3.7-7.6h2.1c1.8,0,2.4,1.5,2.4,3s-2.8,6.3-5.4,9.6l2.5,4.4a37.6,37.6,0,0,0,4.5,6,3.8,3.8,0,0,1-3.7,2C623.5,34.7,622,33.2,620.1,29.8Z" fill="#fff"/><path d="M648.3,24V34.4h-2.6c-2.2,0-3.4-1-3.4-3.3V24c-2.4-3.4-4.9-9.3-6.3-14.3h2.8a3.5,3.5,0,0,1,3.5,2,54,54,0,0,0,3.3,7.3,39.1,39.1,0,0,0,3.7-9.3h2.9a2,2,0,0,1,2.1,2C654.3,13.7,650.3,21.4,648.3,24Z" fill="#fff"/><path d="M675.4,34.4H665a3,3,0,0,1-3-3.1c0-2,.8-3.6,2.7-6.1l6.4-8.6a6.7,6.7,0,0,0,1.1-1.8H662V13.1c0-2.1,1.2-3.4,3.6-3.4h9.7a3.1,3.1,0,0,1,3.1,3,9.2,9.2,0,0,1-2.3,5.8l-6,8.2a10.8,10.8,0,0,0-1.5,2.6h10v2.1A2.9,2.9,0,0,1,675.4,34.4Z" fill="#fff"/></g></g><g id="a_b_c_d_e_f_g_h_i_j_k_l_m_n_o_p_q_r_s_t_u_v_wy_z-2" data-name="a b c d e f g h i j k l m n o p q r s t u v wy z-2" style="isolation:isolate"><g style="isolation:isolate"><path d="M9,78.5c-4,0-7-2.3-7-6.2S4.5,66,10.3,66H11v-.7C11,63.4,9.9,63,7.9,63a6.4,6.4,0,0,0-5.3,2.1H2.5V62.9c0-2.1,1.9-4.7,6.6-4.7s7.3,2.7,7.3,8v4.2C16.4,76.1,14.4,78.5,9,78.5Zm2.1-8.6h-.9c-2,0-2.8.7-2.8,2.1s.6,1.9,2,1.9,1.7-.4,1.7-2.5Z" fill="#fff"/><path d="M33.6,78.5c-5.3,0-8.3-3.5-8.3-9.3V52.7H27c2.8,0,3.9,1.2,3.9,3.7v3.9a4.3,4.3,0,0,1,3.8-2.1c4.1,0,7.4,3.3,7.4,9.9S38.9,78.5,33.6,78.5Zm-.2-15.4c-1.4,0-2.5,2-2.5,5.1s1,5.5,3,5.5,2.4-1.7,2.4-4.9S35.3,63.1,33.4,63.1Z" fill="#fff"/><path d="M63.9,65c-.7-1.4-2.5-1.8-3.7-1.8s-4.1,1.9-4.1,4.8,1.7,5.4,4,5.4,3-.5,3.7-1.5H64v2c0,2.7-2.1,4.6-5.2,4.6-4.8,0-8.5-3.9-8.5-9.8s3.4-10.5,9-10.5a4.5,4.5,0,0,1,4.8,4.5V65Z" fill="#fff"/><path d="M80.3,78.5c-5,0-8.4-4.2-8.4-9.7S75,58.2,79.5,58.2a3.9,3.9,0,0,1,3.6,2.1V52.7h2c2.3,0,3.6,1.4,3.6,4.1V68.4C88.7,75.2,86.3,78.5,80.3,78.5ZM80,63.1c-1.3,0-2.4,1.6-2.4,4.9s1.5,5.7,3.2,5.7S83,71.8,83,68.9C83,64.2,81.7,63.1,80,63.1Z" fill="#fff"/><path d="M105.2,70.5h-2.1c0,2.1,1.7,3.2,3.9,3.2s4.1-.6,4.9-1.5h.2v1.7c0,2.4-1.6,4.6-6.2,4.6s-8.5-4-8.5-9.8,3.4-10.5,8.4-10.5,7.3,2.8,7.3,7.5S110.5,70.5,105.2,70.5Zm.4-7.6c-1.5,0-2.6,1.5-2.6,3.7h1.6c2.7,0,3.2-.5,3.2-1.5A1.9,1.9,0,0,0,105.6,62.9Z" fill="#fff"/><path d="M132,57.8a4.2,4.2,0,0,0-2.5-.6c-1.3,0-2,.7-2,2.4v1.7h3.7v2.2a2.4,2.4,0,0,1-2.6,2.4h-1.1V78h-1.7c-2.6,0-3.9-1.1-3.9-3.7V60.7c0-5.7,2.9-8.3,6.5-8.3a3.4,3.4,0,0,1,3.7,3.2v2.2Z" fill="#fff"/><path d="M155,72.6c.1,1.1.1,2.2.1,2.7,0,5.7-3.4,9-8.4,9s-6.6-2-6.6-4.6v-2h.3c1.2,1.3,3.1,1.7,5.4,1.7s3.6-1.5,3.6-4.3a6.6,6.6,0,0,0-.1-1.4,3.6,3.6,0,0,1-3.2,2.4c-4.1,0-7.1-2.7-7.1-7.8s3.3-10.1,8.5-10.1,7.4,2.7,7.4,9v2.6C154.9,70.4,154.9,71.6,155,72.6ZM147.3,63c-1.5,0-2.6,1.6-2.6,4.3s1,4,2.3,4,2.3-1.2,2.3-4S148.8,63,147.3,63Z" fill="#fff"/><path d="M178.1,78c-2.4,0-3.4-1.4-3.4-3.6V67.3c0-3.2-.8-4.1-2.2-4.1s-2.5,1-2.5,3.9V78h-2.2c-2.6,0-3.5-1.5-3.5-3.6V52.7h1.8c2.4,0,3.8,1.3,3.8,3.6v4a5.2,5.2,0,0,1,4.4-2.1c3.4,0,6.2,2.8,6.2,8.3V78Z" fill="#fff"/><path d="M193,57.4a3.1,3.1,0,1,1,3.1-3.1A3.1,3.1,0,0,1,193,57.4Zm2.7,20.9c-3.2,0-5.5-1.6-5.5-6V59.1h1.9c2.5,0,3.7,1.2,3.7,3.7v8.8c0,1.6.6,2.1,2.2,2.1h.9v1.9C198.9,77.3,197.8,78.3,195.7,78.3Z" fill="#fff"/><path d="M206.7,84.8c-1.8,0-3.4-.9-3.4-2.4V80.6c2.4-.1,4.1-1,4.1-4.1V59.1h2c2.4,0,3.6,1.5,3.6,3.7V77.1C213,81.7,210.8,84.8,206.7,84.8Zm3.5-27.4a3.1,3.1,0,1,1,3.1-3.1A3.1,3.1,0,0,1,210.2,57.4Z" fill="#fff"/><path d="M233.5,67.7a47.2,47.2,0,0,0,3,5c1.2,1.7,1.7,2.1,2.7,2.1-.1,2.5-1.4,3.5-3.3,3.5a4,4,0,0,1-3.1-1.7c-1.6-2.5-2.9-4.9-4.2-7.4V78h-2.4c-2.2,0-3.3-1.5-3.3-3.5V52.7h2.3a3.3,3.3,0,0,1,3.4,3.3V66.7a57.6,57.6,0,0,1,3.7-6.3,3.4,3.4,0,0,1,3.4-1.7h3.5V59A77.6,77.6,0,0,0,233.5,67.7Z" fill="#fff"/><path d="M255.9,76.5a3.1,3.1,0,0,1-3.2,1.8c-3.2,0-5.6-1.8-5.6-6.2V52.7h1.8c2.6,0,3.7,1.3,3.7,3.8V71.4c0,1.6.7,2.1,2.2,2.1H256v1.9A3.7,3.7,0,0,1,255.9,76.5Z" fill="#fff"/><path d="M287.5,78c-2.8,0-3.9-1.3-3.9-3.6V67.1c0-3.3-.7-3.9-2.2-3.9s-1.9.8-1.9,3.8V78h-1.7c-2.5,0-3.8-1-3.8-3.6V66.8c0-2.1-.3-3.6-2.2-3.6s-2,.9-2,3.9V78h-2a3.5,3.5,0,0,1-3.8-3.6V67c0-5.4,2.8-8.8,7.8-8.8a5.3,5.3,0,0,1,5,2.8,6.5,6.5,0,0,1,5.1-2.8c4.8,0,7.5,2.5,7.5,8.4V78Z" fill="#fff"/><path d="M312.4,78c-2.2,0-3.3-1-3.3-3.6V67.1c0-3.1-.7-3.9-2.3-3.9s-2.2.9-2.2,3.7V78h-2.2c-2.2,0-3.5-1.2-3.5-3.6V67.1c0-5.6,2.9-8.9,8.1-8.9s7.9,2.9,7.9,8.8V78Z" fill="#fff"/><path d="M332.2,58.2c4.9,0,8.3,3.8,8.3,10s-3,10.3-8.4,10.3-8.4-4.1-8.4-10S326.9,58.2,332.2,58.2Zm-.2,4.9c-1.5,0-2.6,1.7-2.6,4.9s1.1,5.6,2.9,5.6,2.6-1.3,2.6-4.9S333.6,63.1,332,63.1Z" fill="#fff"/><path d="M358.9,78.5a4.3,4.3,0,0,1-3.9-2.2V84h-2c-2.2,0-3.6-1.2-3.6-4.1v-11c0-6.6,3.1-10.7,8.7-10.7s8.1,3.6,8.1,9.8S363.4,78.5,358.9,78.5Zm-1.3-15.4c-1.4,0-2.5,1.5-2.5,4.8s1.2,5.8,2.9,5.8,2.5-1.7,2.5-5S359.7,63.1,357.6,63.1Z" fill="#fff"/><path d="M389,84c-2.2,0-3.3-1.5-3.3-4.1V76.3a3.8,3.8,0,0,1-3.5,2.2c-4.4,0-7.7-3.8-7.7-9.7s3.1-10.6,8.7-10.6,8.1,3.6,8.1,9.8V84Zm-6.2-20.9c-1.4,0-2.6,1.4-2.6,4.9s1.4,5.7,3,5.7,2.4-1.3,2.4-5.2S384.7,63.1,382.8,63.1Z" fill="#fff"/><path d="M410.6,63.6a4.5,4.5,0,0,0-2.2-.5c-1.3,0-2,.6-2,3.3V78h-1.9a3.4,3.4,0,0,1-3.7-3.7V65.6c0-4.9,2.4-7.4,6.1-7.4s4,1.4,4,3.2v2.2Z" fill="#fff"/><path d="M424.7,78.5c-4,0-6.1-1.6-6.1-4.6V72h.2c1.1,1.2,2.8,1.7,5,1.7s2.4-.6,2.4-1.5-.6-1.4-3.2-2-4.7-2.3-4.7-5.2,2.8-6.8,7.3-6.8,5.7,1.8,5.7,4.5v1.9h-.2a6.4,6.4,0,0,0-4.7-1.7c-2,0-2.7.7-2.7,1.6s.5,1.2,3.2,1.8,4.8,2.3,4.8,5.5S429.1,78.5,424.7,78.5Z" fill="#fff"/><path d="M446.2,58.7h4.7v2.2a2.8,2.8,0,0,1-2.8,2.7h-2v7.5c0,1.6.8,2.2,2,2.2a3.5,3.5,0,0,0,2.4-.6h.2v2.5c0,1.8-1.4,3.1-4,3.1s-6.2-1.7-6.2-7V58.8a5,5,0,0,1,1.9-3.7,4.9,4.9,0,0,1,2.9-1.1h.9Z" fill="#fff"/><path d="M466.9,78.5c-4.6,0-7.9-2.5-7.9-8.7V58.7h2.3c2.3,0,3.5,1.2,3.5,3.6v7.3c0,3.2,1,4,2.4,4s2.1-.8,2.1-3.9v-11h2.2a3.3,3.3,0,0,1,3.6,3.6v7.4C475.1,75.8,472.1,78.5,466.9,78.5Z" fill="#fff"/><path d="M493.1,78.2h-1.4a4,4,0,0,1-3.4-2.2c-2.3-3.8-4.3-10.3-5.2-17.3h3a3.1,3.1,0,0,1,3.1,2.8c.5,2.8,1.6,7.3,2.2,9.3a60.7,60.7,0,0,0,2.8-12.1h2.7a2.3,2.3,0,0,1,2.3,2.6v.4C498.9,65.5,495.2,75.3,493.1,78.2Z" fill="#fff"/><path d="M525.1,78.2h-1.6a2.9,2.9,0,0,1-2.5-1.7,40.9,40.9,0,0,1-2.6-7.5,34.3,34.3,0,0,1-3.5,9.2h-1.3a3.1,3.1,0,0,1-2.7-1.6c-2.5-4.3-4.7-12.5-5.2-17.9h3a3.1,3.1,0,0,1,3.1,2.8,43.3,43.3,0,0,0,1.8,8.2,72.1,72.1,0,0,0,2.7-10.4h2.4c1.3,0,2.4,1.2,2.8,3.1a50.3,50.3,0,0,0,1.9,7.4,61.8,61.8,0,0,0,2.3-11.1h2.6c1.5,0,2.4,1.2,2.4,2.8C530.7,65.5,527.1,74.8,525.1,78.2Z" fill="#fff"/><path d="M550.2,78.3c-1.7,0-3.1-1-4.5-3.6l-1.2-2.1a13.8,13.8,0,0,0-2.4,5.4h-2.2a2.2,2.2,0,0,1-2.2-2.2c0-2,1.1-4,4-7.6l-1.9-3.4a19,19,0,0,1-2.2-6.1h2.9c1.5,0,2.4.8,3.5,3.1l1.3,2.6c1.9-2.5,2.4-3.9,2.6-5.7H550c1.5,0,2.1,1.3,2.1,2.6s-.7,2.5-1.8,4.2L548,68.7l2.2,3.4c1.4,2.3,1.9,2.7,3.2,2.7C553.4,77.1,552.2,78.3,550.2,78.3Z" fill="#fff"/><path d="M572.7,73.9c-2.2,5.7-3.7,8.3-5.4,9.4a4.8,4.8,0,0,1-3.2.9c-1.6,0-3.5-.9-3.5-3V79.7h1.8c1.6-.1,2.4-.6,3.5-3.3-2.4-4.1-5.4-13-5.7-17.7h3a3,3,0,0,1,3.1,2.7,53.1,53.1,0,0,0,2.3,8.7,49.6,49.6,0,0,0,2.6-11.4h2.7a2.5,2.5,0,0,1,2.6,2.4c0,.3-.1.6-.1.9A96.5,96.5,0,0,1,572.7,73.9Z" fill="#fff"/><path d="M594.9,78h-7c-1.9,0-3.9-.6-3.9-2.8s.6-3,2.1-4.9l4.2-5.3a9.5,9.5,0,0,0,1-1.7H584V61.7a3.2,3.2,0,0,1,3.3-3h6.8c1.8,0,3.4.7,3.4,2.9s-.6,3.1-2,4.9l-3.9,4.8a9.1,9.1,0,0,0-1.3,2h7.3v2A2.6,2.6,0,0,1,594.9,78Z" fill="#fff"/></g></g><g id="_1_2_3_4_5_6_7_8_9_0" data-name=" 1 2 3 4 5 6 7 8 9 0" style="isolation:isolate"><g style="isolation:isolate"><path d="M12.4,126.4c-1.8,0-3-1.1-3-3.2V107.8l-1.6.7a4.5,4.5,0,0,1-1.6.3,2.4,2.4,0,0,1-2.4-2.1l-.3-1.4,4.2-2.2a8.7,8.7,0,0,1,4.2-1.2,2.7,2.7,0,0,1,2.7,2.9v21.6Z" fill="#fff"/><path d="M37.7,126.4H28.1a2.5,2.5,0,0,1-2.5-2.7c0-1.9,1.1-3.6,3.1-5.7l4.1-4.4c1.5-1.6,2.4-2.8,2.4-4.2s-1.5-2.8-3.4-2.8-4.5.8-5.7,2.8h-.2v-1.9c0-3.4,2.2-5.8,7.3-5.8a7.1,7.1,0,0,1,7.4,7.4c0,2.8-1,4.4-2.8,6.3l-4.9,4.8a8.8,8.8,0,0,0-1.2,1.5h9.1v1.9C40.8,125.5,39.4,126.4,37.7,126.4Z" fill="#fff"/><path d="M57,126.9c-3.3,0-6.5-1.7-6.5-5v-2.3h.2c1.3,1.6,3.4,2.3,6,2.3s3.2-1.2,3.2-2.7-1.1-2.7-3.3-2.8-2.6-.8-2.6-2.2v-1.8l2.7-.2c2.1,0,3.1-.8,3.1-2.7s-.8-2.9-3.6-2.9a6.9,6.9,0,0,0-5.4,2.3h-.2v-2.4c0-2.3,2.1-4.8,7.1-4.8s7.5,2.6,7.5,6.9-1.5,4.8-3,5.4a5.8,5.8,0,0,1,3.1,5C65.3,123.9,62.4,126.9,57,126.9Z" fill="#fff"/><path d="M88.7,120.9h-.6v5.5H86c-1.9,0-3.3-.9-3.3-2.8v-2.7H76.8c-1.6,0-3.1-1.1-3.1-2.5a7,7,0,0,1,.6-2.9c2.1-4.8,6.3-11.3,8.5-13.3h2.1c1.8,0,3.2,1.4,3.2,3.8v10.2h2.8v2.4A2,2,0,0,1,88.7,120.9ZM82.6,109a61.4,61.4,0,0,0-3.7,7.2h3.7Z" fill="#fff"/><path d="M106.1,126.9c-4.5,0-6.5-1.7-6.5-4.8v-2.2h.1c1.2,1.4,3.2,2,5.8,2s3.4-1.1,3.4-3.1-1-2.9-4-2.9a17.2,17.2,0,0,0-5.3.9V107c0-3.2,1-4.8,3.8-4.8h10.5v1.7a3,3,0,0,1-3.2,3.2h-5.9v4.5h2c4,0,7.6,2.3,7.6,7S111,126.9,106.1,126.9Z" fill="#fff"/><path d="M131.2,126.9c-4.6,0-7.9-3.5-7.9-11.5s3.6-13.7,9.8-13.7c3.4,0,5.5,1.9,5.5,4.6v1.9h-.2c-1.1-1.2-2.5-1.6-5.1-1.6s-4.3,1.7-4.6,5.6a4.6,4.6,0,0,1,3.6-1.7c4.5,0,7.1,2.8,7.1,7.8S137.2,126.9,131.2,126.9Zm.2-11.8a2.7,2.7,0,0,0-2.7,2.6c0,3.1,1.2,4.3,3,4.3s2.5-1.2,2.5-3.2S133,115.1,131.4,115.1Z" fill="#fff"/><path d="M161.6,110.7l-3.2,7.1a17.2,17.2,0,0,0-1.3,6.1v2.7h-2.5c-1.5,0-3.1-1.3-3.1-3.8a15.6,15.6,0,0,1,1.8-6.6l2.5-5.1a18.4,18.4,0,0,0,1.6-3.8h-10v-1.7c0-2.1,1.2-3.4,3.1-3.4h9.4c2.2,0,3.5,1.2,3.5,3.1S162.6,108.5,161.6,110.7Z" fill="#fff"/><path d="M179.9,126.9c-5,0-7.7-3-7.7-7.3a6.7,6.7,0,0,1,2.8-5.4,5.7,5.7,0,0,1-2.7-5.2c0-4.6,3.6-7.3,7.9-7.3s7.5,2.5,7.5,7a5.5,5.5,0,0,1-2.8,5.2,6.7,6.7,0,0,1,2.9,5.4C187.8,123.6,185.3,126.9,179.9,126.9Zm0-10.5a2.5,2.5,0,0,0-2.4,2.6c0,2.1.8,3,2.6,3s2.4-1,2.4-2.7S181.5,116.4,179.9,116.4Zm-2.3-7.4c0,1.7.9,2.8,2.5,2.8a2.3,2.3,0,0,0,2.3-2.4c0-1.8-.8-2.8-2.5-2.8A2.2,2.2,0,0,0,177.6,109Z" fill="#fff"/><path d="M203.6,126.9c-3.2,0-6.1-1.5-6.1-4.6V120h.1a6.6,6.6,0,0,0,5.3,2.1c2.2,0,3.7-1.2,3.8-5a3.9,3.9,0,0,1-3,1.4c-3.6,0-7.7-1.9-7.7-8,0-4.6,2.8-8.8,8.4-8.8s8,3.2,8,11.7S209.7,126.9,203.6,126.9Zm-2-17.1c0,3.1,1.1,4.1,2.6,4.1a2.6,2.6,0,0,0,2.6-2.7c0-3.9-1-4.7-2.8-4.7S201.6,107.7,201.6,109.8Z" fill="#fff"/><path d="M228.6,126.9c-4.2,0-8-4.3-8-12.2s3.1-13,8.4-13,8,3.6,8,12.1S234.4,126.9,228.6,126.9Zm-2.1-13.3c0,6.4.8,8.2,2.5,8.2s2.2-1.9,2.2-7c0-6.7-.7-8.1-2.6-8.1S226.5,108.1,226.5,113.6Z" fill="#fff"/></g></g></svg>