<svg id="Layer_1" data-name="Layer 1" xmlns="http://www.w3.org/2000/svg" width="21.4in" height="9.2in" viewBox="0 0 1537.3 661.8"><title>awt-horizontal-1-black 2</title><path d="M193.7,325.1s-.2-32.1,15-95.8L106.6,276.5,84.5,337.6Z" fill="#010101"/><path d="M392.1,325.1s.2-32.1-15-95.8l102.1,47.2,22.1,61.2Z" fill="#010101"/><path d="M230.5,575.8c13.2-24.2,32-54.2,53.2-87.5-22.3-35-29.7-45.5-44.8-70.5-28,47.5-48.6,83.5-54.4,104.1Z" fill="#010101"/><path d="M293.1,84.4a2.8,2.8,0,0,0-1.5.4C269.8,98.7,263,138,260.1,169.6c-1,12.1-1.5,24-1.5,34.5,7.9-33.4,19.5-53.3,34.1-53.3s26.5,19.5,34.4,53.1c-.1-10.3-.5-21.9-1.7-33.8-3.2-31.7-9.5-71.4-31-85.3a2,2,0,0,0-1.3-.4Z" fill="#010101"/><path d="M248.2,238c-1-11.3-1.9-39.3.8-69,1.6-17.7,4.3-33.2,8.2-46.2C229.5,181.3,207,287.2,207,327.1c0,28.4,105.1,175.5,144.9,249.1l46-53.8C383.7,471.2,248.8,273.4,248.2,238Z" fill="#010101"/><path d="M328.4,122.7c3.8,13.2,6.5,28.9,8.1,46.9,2.6,29.3,1.8,57,.9,68.3s-16.7,44.2-37.2,80.5c19.2,33.9,28.9,50.6,44.9,77.2,16.9-28.5,33.4-59,33.4-68.4C378.5,287.3,356.1,181.2,328.4,122.7Z" fill="#010101"/><path d="M684.3,297.4c-9.9,0-14.5-5-15.3-11.8a128.1,128.1,0,0,0-2.6-14.4H636.5c-1.7,7.8-2.9,16.3-4.3,26.2H620.8c-7.7,0-10.9-5-10.9-12.1,0-15.1,17.6-76.3,31.3-94.2h10.7c8.7,0,15,4.3,18.2,10.5,10.2,19.7,23.3,72.5,26,95.8ZM651.8,217a211.8,211.8,0,0,0-10.6,33.7h20.9A224.6,224.6,0,0,0,651.8,217Z" fill="#010101"/><path d="M739.4,299.5c-20.6,0-35.3-11.1-35.3-38.3V212.6h10.2c10.3,0,15.7,5.1,15.7,15.8v32.1c0,13.9,4.5,17.3,10.8,17.3s9.4-3.1,9.4-17.1V212.6h10c9.6,0,15.9,5.4,15.9,15.8v32.3C776.1,287.5,762.7,299.5,739.4,299.5Z" fill="#010101"/><path d="M815.8,212.6h21.1v9.6c0,6.6-5.7,11.9-12.3,11.9h-9v33.1c0,6.9,3.7,9.7,8.8,9.7s8.6-1.3,11-2.8h.7v10.8c0,7.8-6.1,13.8-17.8,13.8-15.6,0-27.8-7.5-27.8-30.8V213.3c0-7.4,3.9-12.5,8.5-16.4a20.3,20.3,0,0,1,12.8-4.9h4Z" fill="#010101"/><path d="M862.8,207.1a13.7,13.7,0,1,1,0-27.3,13.7,13.7,0,1,1,0,27.3Zm11.8,91.6c-14.1,0-24.3-7.2-24.3-26.5V214.3h8.2c11.5,0,16.7,5.4,16.7,16.4v38.5c0,6.9,2.8,9.1,9.7,9.1h4v8.3C888.9,294.1,884.3,298.7,874.6,298.7Z" fill="#010101"/><path d="M925.8,299.5c-17.9,0-27.2-6.9-27.2-20.3V271h1c4.9,5.1,12.6,7.6,22.3,7.6,7.9,0,10.6-2.7,10.6-6.8s-2.7-6-14.1-8.6c-14.7-3.4-21.1-10-21.1-22.8,0-17.4,12.3-29.9,32.6-29.9,16.6,0,25.6,7.8,25.6,19.9v8.1h-.9c-4.7-4.8-12.4-7.2-21-7.2s-12,2.9-12,6.9,2,4.9,14.2,7.7,21.4,10.3,21.4,24.2C957.2,287.8,945.8,299.5,925.8,299.5Z" fill="#010101"/><path d="M1074.1,297.4c-12.7,0-17.3-5.9-17.3-15.8V249.5c0-14.5-3.1-17.3-9.8-17.3s-8.7,3.5-8.7,16.6v48.6h-7.7c-11.2,0-17.1-4.5-17.1-15.8V248.4c0-9.6-1.3-16.2-9.8-16.2-6.9,0-8.8,4-8.8,17.1v48.1H986c-11,0-17-6.5-17-15.8V249c0-23.7,12.5-38.5,34.8-38.5,11.6,0,19.6,6,22.7,12.3,4-5.8,12.5-12.3,22.8-12.3,21.4,0,33.5,10.9,33.5,36.8v50.1Z" fill="#010101"/><path d="M739.1,379.9c-5.4,20.9-15.2,49.9-23.1,66.2H706a13.5,13.5,0,0,1-11.7-7.4c-6.9-13.1-13.3-32.9-16.5-49.6-2.6,16.7-10.6,41.9-18.6,57h-9c-4,0-10.1-2.3-13-7.5-12.4-22.4-24.1-69.5-26.5-99.7h15.5c8.3,0,13,5.7,13.7,13.7,1.4,13.3,7.3,38.7,12,53.5,6.4-18.8,12.2-45.6,14.7-63.5h9.5c9.7,0,16.3,4.6,18.3,15.9s7.3,34,12.1,47.6c5.5-15.3,12.7-48.4,14.1-67.2H734c7.1,0,11.3,4.7,11.3,11.9C745.3,354.6,741.3,371.6,739.1,379.9Z" fill="#010101"/><path d="M786.5,358.3c22.1,0,37.3,16.7,37.3,43.9s-13.4,45.2-37.9,45.2c-22.9,0-37.4-17.9-37.4-43.8S763,358.3,786.5,358.3Zm-.9,21.6c-6.6,0-11.7,7.5-11.7,21.3,0,18.3,5.1,24.7,13.1,24.7,5.7,0,11.4-6,11.4-21.4C798.4,385,792.9,379.9,785.6,379.9Z" fill="#010101"/><path d="M879.9,382.1a21.3,21.3,0,0,0-9.9-2.2c-6,0-9.2,2.5-9.2,14.2v51.1h-8.3c-9.6,0-16.8-4.9-16.8-16.2V390.8c0-21.4,11.1-32.5,27.5-32.5,12.5,0,18.1,6.4,18.1,13.9v9.9Z" fill="#010101"/><path d="M931.8,438.6c-2,5.5-7.9,7.8-14.4,7.8-14.1,0-25.1-8-25.1-27.2V334.3h8.2c11.6,0,16.6,5.4,16.6,16.3v65.6c0,7,3.1,9.1,10,9.1h5.4V434A16.4,16.4,0,0,1,931.8,438.6Z" fill="#010101"/><path d="M978.7,447.4c-22.4,0-37.7-18.7-37.7-42.6,0-30,13.7-46.5,34-46.5,7.6,0,13.6,3.9,16.2,9.1V334.3h8.9c10.4,0,16.1,6.2,16.1,17.9v51C1016.2,433,1005.7,447.4,978.7,447.4Zm-1.2-67.5c-5.8,0-10.8,6.8-10.8,21.3,0,18.7,6.8,25.1,14,25.1s10.2-8.5,10.2-21C990.9,384.5,985.1,379.9,977.5,379.9Z" fill="#010101"/><path d="M1115.8,361.3h-12.9v83.9h-11.4c-7.6,0-14.7-3.9-14.7-14.3V361.3h-25.1v-9.4a13,13,0,0,1,13.4-13h64.1V348C1129.2,354.6,1124.7,361.3,1115.8,361.3Z" fill="#010101"/><path d="M1172.5,382.1a21,21,0,0,0-9.9-2.2c-6,0-9.2,2.5-9.2,14.2v51.1h-8.3c-9.6,0-16.8-4.9-16.8-16.2V390.8c0-21.4,11.1-32.5,27.5-32.5,12.5,0,18.1,6.4,18.1,13.9v9.9Z" fill="#010101"/><path d="M1214.1,447.4c-18.1,0-31.8-10.1-31.8-27.5s11.4-27.5,37.3-27.5h3.1v-2.8c0-8.3-5-10.3-13.9-10.3-12.3,0-18.8,3.8-23.4,9.2h-.8v-9.4c0-9.5,8.7-20.8,29.6-20.8s33,11.7,33,35v18.6C1247.2,436.9,1237.9,447.4,1214.1,447.4Zm9-37.9h-4c-8.9,0-12.4,3.2-12.4,9.2s2.7,8.6,8.7,8.6c4,0,7.7-2,7.7-10.9Z" fill="#010101"/><path d="M1297.7,446h-6.2c-6.6,0-11.2-3.3-15.2-9.7-10.3-16.7-19.4-45.3-23.3-75.8h13.1c7.6,0,12.6,4.8,14,12.5,2.2,12.1,7.1,32,10,40.8,3.9-9.3,9.6-33.7,12.4-53.3h12.1c6.9,0,10.3,5.4,10.3,11.5v1.6C1323.6,390.2,1306.9,433.5,1297.7,446Z" fill="#010101"/><path d="M1365.6,412.4H1356c0,8.9,7.4,13.9,17.4,13.9,12.1,0,18.4-2.8,22.2-6.7h.8v7.7c0,10.5-7.4,20.1-28,20.1-23.3,0-38.1-17.4-38.1-43s15.3-46.1,37.6-46.1c19.3,0,33,12.4,33,32.7C1400.9,408.2,1389.2,412.4,1365.6,412.4Zm1.5-33.6c-6.6,0-11.4,6.5-11.7,16.5h7.1c12.2,0,14.6-2.5,14.6-6.6C1377.1,382.2,1373.9,378.8,1367.1,378.8Z" fill="#010101"/><path d="M1451.7,438.6c-2,5.5-7.9,7.8-14.3,7.8-14.2,0-25.1-8-25.1-27.2V334.3h8.1c11.6,0,16.7,5.4,16.7,16.3v65.6c0,7,3,9.1,10,9.1h5.4V434A16.4,16.4,0,0,1,1451.7,438.6Z" fill="#010101"/></svg>