<svg xmlns="http://www.w3.org/2000/svg"><symbol id="arrow-hover" viewBox="0 0 127.9 52.5"><path fill="#4babd6" d="M63.9 52.5a4.4 4.4 0 0 1-2.5-.8L1.8 7.8a4.2 4.2 0 0 1-1-6 4.4 4.4 0 0 1 6.1-1l57 42L121 .9a4.2 4.2 0 0 1 6 .9 4.2 4.2 0 0 1-.9 6L66.5 51.7a5 5 0 0 1-2.6.8z"/></symbol><symbol id="arrow" viewBox="0 0 127.9 52.5"><path fill="#8dc6e8" d="M63.9 52.5a4.4 4.4 0 0 1-2.5-.8L1.8 7.8a4.2 4.2 0 0 1-1-6 4.4 4.4 0 0 1 6.1-1l57 42L121 .9a4.2 4.2 0 0 1 6 .9 4.2 4.2 0 0 1-.9 6L66.5 51.7a5 5 0 0 1-2.6.8z"/></symbol><symbol id="behance-gray" viewBox="0 0 131.1 131.1"><g fill="#898a8d"><path d="M55.4 54.6c0-5.1-3.5-5.1-3.5-5.1H37.6v11H51c2.3 0 4.4-.8 4.4-5.9zm32.3 5.7a8.9 8.9 0 0 0-8.6 7.6h16.1a7.4 7.4 0 0 0-7.1-7.6zm-35.8 7.4H37.6v13.1h13.5c2.1 0 5.9-.6 5.9-6.4s-5.1-6.7-5.1-6.7z"/><path d="M65.6 0a65.6 65.6 0 1 0 65.5 65.6A65.6 65.6 0 0 0 65.6 0zm11.6 43.9h19.9v5.9H77.2zM67.1 75.1c0 14.7-15.3 14.2-15.3 14.2H26.7V41h25.1a12.5 12.5 0 0 1 13.6 11 12 12 0 0 1 0 1.9 8.3 8.3 0 0 1-7.3 9.2c9.7 0 9 12 9 12zm37.3-.8H79.3a7.9 7.9 0 0 0 7.3 8.4h1.2c8.1 0 7.8-5.2 7.8-5.2h8.5c0 13.8-16.5 12.8-16.5 12.8A17.2 17.2 0 0 1 69 74.7a13.1 13.1 0 0 1 0-2.8s0-18.6 18.6-18.6 16.7 21 16.8 21z"/></g></symbol><symbol id="behance-hover" viewBox="0 0 131.1 131.1"><g fill="#4babd6"><path d="M55.4 54.6c0-5.1-3.5-5.1-3.5-5.1H37.6v11H51c2.3 0 4.4-.8 4.4-5.9zm32.3 5.7a8.9 8.9 0 0 0-8.6 7.6h16.1a7.4 7.4 0 0 0-7.1-7.6zm-35.8 7.4H37.6v13.1h13.5c2.1 0 5.9-.6 5.9-6.4s-5.1-6.7-5.1-6.7z"/><path d="M65.6 0a65.6 65.6 0 1 0 65.5 65.6A65.6 65.6 0 0 0 65.6 0zm11.6 43.9h19.9v5.9H77.2zM67.1 75.1c0 14.7-15.3 14.2-15.3 14.2H26.7V41h25.1a12.5 12.5 0 0 1 13.6 11 12 12 0 0 1 0 1.9 8.3 8.3 0 0 1-7.3 9.2c9.7 0 9 12 9 12zm37.3-.8H79.3a7.9 7.9 0 0 0 7.3 8.4h1.2c8.1 0 7.8-5.2 7.8-5.2h8.5c0 13.8-16.5 12.8-16.5 12.8A17.2 17.2 0 0 1 69 74.7a13.1 13.1 0 0 1 0-2.8s0-18.6 18.6-18.6 16.7 21 16.8 21z"/></g></symbol><symbol id="facebook-gray" viewBox="0 0 131.1 131.1"><path fill="#898a8d" d="M65.4-.2A65.7 65.7 0 1 0 131 65.5 65.7 65.7 0 0 0 65.4-.2zm20.2 65.1H73.1V111H54.2V65.2H43.9V49.4h10c0-4.7.1-8.9 0-13.3 0-12.5 9.6-16.1 18.3-16.1h14.5v15.7h-8.4c-.3 0-5.5-.3-5.5 4.6.1 2.1 0 9 0 9h14z"/></symbol><symbol id="facebook-hover" viewBox="0 0 131.1 131.1"><path fill="#4babd6" d="M65.4-.2A65.7 65.7 0 1 0 131 65.5 65.7 65.7 0 0 0 65.4-.2zm20.2 65.1H73.1V111H54.2V65.2H43.9V49.4h10c0-4.7.1-8.9 0-13.3 0-12.5 9.6-16.1 18.3-16.1h14.5v15.7h-8.4c-.3 0-5.5-.3-5.5 4.6.1 2.1 0 9 0 9h14z"/></symbol><symbol id="instagram-gray" viewBox="0 0 131.1 131.1"><path fill="#898a8d" d="M77.9 65.6A12.5 12.5 0 1 1 65.4 53a12.5 12.5 0 0 1 12.5 12.6z"/><path fill="#898a8d" d="M94.7 43.4a12.3 12.3 0 0 0-2.8-4.3 11.1 11.1 0 0 0-4.3-2.8 18.2 18.2 0 0 0-7-1.3c-4-.2-5.2-.3-15.2-.3s-11.2.1-15.2.3a17.3 17.3 0 0 0-7 1.3 11.1 11.1 0 0 0-4.3 2.8 12.3 12.3 0 0 0-2.8 4.3 21.8 21.8 0 0 0-1.3 7c-.2 3.9-.2 5.1-.2 15.2s0 11.2.2 15.2a21.7 21.7 0 0 0 1.3 6.9 12.7 12.7 0 0 0 2.8 4.4 12.3 12.3 0 0 0 4.3 2.8 21.8 21.8 0 0 0 7 1.3c4 .1 5.2.2 15.2.2s11.2-.1 15.2-.2a23.2 23.2 0 0 0 7-1.3 12.9 12.9 0 0 0 7.1-7.2 21.7 21.7 0 0 0 1.3-6.9c.2-4 .2-5.2.2-15.2s0-11.3-.2-15.2a21.8 21.8 0 0 0-1.3-7zM65.4 84.9a19.3 19.3 0 1 1 19.3-19.3 19.3 19.3 0 0 1-19.3 19.3zM85.5 50a4.5 4.5 0 1 1 4.5-4.5 4.6 4.6 0 0 1-4.5 4.5z"/><path fill="#898a8d" d="M65.4.1a65.5 65.5 0 1 0 65.4 65.5A65.5 65.5 0 0 0 65.4.1zm37.3 81a26.3 26.3 0 0 1-1.7 9.1 19.5 19.5 0 0 1-11 11 28.9 28.9 0 0 1-9.1 1.7c-4 .2-5.3.2-15.5.2s-11.5 0-15.5-.2a28.9 28.9 0 0 1-9.1-1.7 18.6 18.6 0 0 1-6.7-4.4 17.2 17.2 0 0 1-4.3-6.6 26.1 26.1 0 0 1-1.8-9.1c-.2-4-.2-5.3-.2-15.5s0-11.5.2-15.5a26.7 26.7 0 0 1 1.8-9.2 18 18 0 0 1 4.3-6.6 18.3 18.3 0 0 1 6.7-4.3 26.1 26.1 0 0 1 9.1-1.8c4-.2 5.3-.2 15.5-.2s11.5 0 15.5.2a28.9 28.9 0 0 1 9.1 1.7 20 20 0 0 1 6.7 4.4 18 18 0 0 1 4.3 6.6 26.9 26.9 0 0 1 1.7 9.2c.2 4 .3 5.3.3 15.5s-.1 11.5-.3 15.5z"/></symbol><symbol id="instagram-hover" viewBox="0 0 131.1 131.1"><path fill="#4babd6" d="M77.9 65.6A12.5 12.5 0 1 1 65.4 53a12.5 12.5 0 0 1 12.5 12.6z"/><path fill="#4babd6" d="M94.7 43.4a12.3 12.3 0 0 0-2.8-4.3 11.1 11.1 0 0 0-4.3-2.8 18.2 18.2 0 0 0-7-1.3c-4-.2-5.2-.3-15.2-.3s-11.2.1-15.2.3a17.3 17.3 0 0 0-7 1.3 11.1 11.1 0 0 0-4.3 2.8 12.3 12.3 0 0 0-2.8 4.3 21.8 21.8 0 0 0-1.3 7c-.2 3.9-.2 5.1-.2 15.2s0 11.2.2 15.2a21.7 21.7 0 0 0 1.3 6.9 12.7 12.7 0 0 0 2.8 4.4 12.3 12.3 0 0 0 4.3 2.8 21.8 21.8 0 0 0 7 1.3c4 .1 5.2.2 15.2.2s11.2-.1 15.2-.2a23.2 23.2 0 0 0 7-1.3 12.9 12.9 0 0 0 7.1-7.2 21.7 21.7 0 0 0 1.3-6.9c.2-4 .2-5.2.2-15.2s0-11.3-.2-15.2a21.8 21.8 0 0 0-1.3-7zM65.4 84.9a19.3 19.3 0 1 1 19.3-19.3 19.3 19.3 0 0 1-19.3 19.3zM85.5 50a4.5 4.5 0 1 1 4.5-4.5 4.6 4.6 0 0 1-4.5 4.5z"/><path fill="#4babd6" d="M65.4.1a65.5 65.5 0 1 0 65.4 65.5A65.5 65.5 0 0 0 65.4.1zm37.3 81a26.3 26.3 0 0 1-1.7 9.1 19.5 19.5 0 0 1-11 11 28.9 28.9 0 0 1-9.1 1.7c-4 .2-5.3.2-15.5.2s-11.5 0-15.5-.2a28.9 28.9 0 0 1-9.1-1.7 18.6 18.6 0 0 1-6.7-4.4 17.2 17.2 0 0 1-4.3-6.6 26.1 26.1 0 0 1-1.8-9.1c-.2-4-.2-5.3-.2-15.5s0-11.5.2-15.5a26.7 26.7 0 0 1 1.8-9.2 18 18 0 0 1 4.3-6.6 18.3 18.3 0 0 1 6.7-4.3 26.1 26.1 0 0 1 9.1-1.8c4-.2 5.3-.2 15.5-.2s11.5 0 15.5.2a28.9 28.9 0 0 1 9.1 1.7 20 20 0 0 1 6.7 4.4 18 18 0 0 1 4.3 6.6 26.9 26.9 0 0 1 1.7 9.2c.2 4 .3 5.3.3 15.5s-.1 11.5-.3 15.5z"/></symbol><symbol id="linkedin-gray" viewBox="0 0 131.1 131.1"><path fill="#898a8d" d="M65.4-.1A65.6 65.6 0 1 0 131 65.5 65.6 65.6 0 0 0 65.4-.1zM48.1 97.8H32.4V50.6h15.7zm-7.8-53.6h-.1c-5.3 0-8.7-3.6-8.7-8.1s3.5-8.2 8.9-8.2 8.6 3.5 8.7 8.2-3.4 8.1-8.8 8.1zm64.3 53.6H88.9V72.5c0-6.3-2.2-10.6-7.9-10.6a8.5 8.5 0 0 0-8 5.7 8.9 8.9 0 0 0-.6 3.8v26.4H56.8s.2-42.7 0-47.2h15.6v6.7c2.1-3.2 5.8-7.8 14.2-7.8 10.3 0 18 6.8 18 21.2z"/><path fill="#898a8d" d="M72.4 57.5v-.2c0 .1 0 .1-.1.2z"/></symbol><symbol id="linkedin-hover" viewBox="0 0 131.1 131.1"><path fill="#4babd6" d="M65.4-.1A65.6 65.6 0 1 0 131 65.5 65.6 65.6 0 0 0 65.4-.1zM48.1 97.8H32.4V50.6h15.7zm-7.8-53.6h-.1c-5.3 0-8.7-3.6-8.7-8.1s3.5-8.2 8.9-8.2 8.6 3.5 8.7 8.2-3.4 8.1-8.8 8.1zm64.3 53.6H88.9V72.5c0-6.3-2.2-10.6-7.9-10.6a8.5 8.5 0 0 0-8 5.7 8.9 8.9 0 0 0-.6 3.8v26.4H56.8s.2-42.7 0-47.2h15.6v6.7c2.1-3.2 5.8-7.8 14.2-7.8 10.3 0 18 6.8 18 21.2z"/><path fill="#4babd6" d="M72.4 57.5v-.2c0 .1 0 .1-.1.2z"/></symbol></svg>