<svg xmlns="http://www.w3.org/2000/svg" width="9.4in" height="2.9in" viewBox="0 0 676.9 209.5"><path fill="#898a8d" d="M111.6.2L38.8.4V70h48.8a24 24 0 0 1 24 23.8v21.9a24 24 0 0 1-23.9 24H0v69.7h150.6a41.7 41.7 0 0 0 41.7-41.7V.2z"/><path fill="#636569" d="M111.6.2L38.8.4V70h48.8a24 24 0 0 1 24 23.8s56.7-2.6 80.7 39.9V.2z"/><path fill="#8dc6e8" d="M38.8.3V70h59.6c36.1 0 93.9 17.1 93.9 69.7V0z"/><g fill="#636569"><path d="M295.6 36.8v40.4h-.1a19.8 19.8 0 0 1-39.4 2.9v-2.9h12.1a7.7 7.7 0 0 0 12.8 5.7l.3-.3a7.7 7.7 0 0 0 2.2-5.4h.3V47.8h-12.7l.2-11z"/><path d="M275.8 99a20.2 20.2 0 0 1-13.3-4.9 20.6 20.6 0 0 1-7-14 15 15 0 0 1 0-3v-.6h13.4v.7a7 7 0 0 0 2 4.9 7.4 7.4 0 0 0 4.8 2.2 6.6 6.6 0 0 0 4.8-1.9l.3-.3a7.1 7.1 0 0 0 2.1-4.9v-.7h.3V48.4h-12.8l.3-12.3h25.6v41.7h-.1A20.3 20.3 0 0 1 277.3 99zm-19-21.2a8.1 8.1 0 0 0 0 2.2 19.2 19.2 0 0 0 6.6 13.1 18.6 18.6 0 0 0 13.8 4.5 18.9 18.9 0 0 0 13.1-6.5 19.5 19.5 0 0 0 4.6-13.9v-.7h.2v-39H272l-.2 9.6h12.7v30.7h-.3a8.7 8.7 0 0 1-2.4 5.3l-.4.3A8 8 0 0 1 270 83a7.7 7.7 0 0 1-2.4-5.2z"/></g><g fill="#636569"><path d="M353.8 97V60.2l-17.3 15.7-17.2-15.7V97h-12.1V36.8h4.2l25.1 22.8 25.1-22.8h4.2V97z"/><path d="M320 97.7h-13.4V36.1h5l.2.2 24.7 22.4 24.8-22.6h5.2v61.6h-13.3v-36l-16.7 15.1L320 61.7zm-12.1-1.3h10.8V58.7L336.5 75l18-16.3v37.7h10.7V37.5h-3.4l-25.3 23-25.4-23h-3.2z"/></g><g fill="#636569"><path d="M439.6 36.8v40.4h-.1a19.8 19.8 0 0 1-39.4 2.9v-2.9h12a7.9 7.9 0 0 0 7.8 7.7 7.8 7.8 0 0 0 5.4-2.3 7.3 7.3 0 0 0 2.2-5.4h.4V47.8h-12.8l.2-11z"/><path d="M419.8 99a20.2 20.2 0 0 1-13.3-4.9 20.6 20.6 0 0 1-7-14 15 15 0 0 1 0-3v-.6h13.3v.7a7.4 7.4 0 0 0 2 4.9 8.2 8.2 0 0 0 5.1 2.2 7.6 7.6 0 0 0 4.9-2.2 7.1 7.1 0 0 0 2.1-4.9v-.7h.3V48.4h-12.8l.3-12.3h25.6v41.7h-.1A20.3 20.3 0 0 1 421.3 99zm-19-21.2a8.1 8.1 0 0 0 0 2.2 19.2 19.2 0 0 0 6.6 13.1 18.6 18.6 0 0 0 13.8 4.5 18.9 18.9 0 0 0 13.1-6.5 19.5 19.5 0 0 0 4.6-13.9v-.7h.2v-39H416l-.2 9.6h12.7v30.7h-.3a8.7 8.7 0 0 1-2.4 5.3 8.3 8.3 0 0 1-11.9 0 8.9 8.9 0 0 1-2.4-5.3z"/></g><g fill="#636569"><path d="M512.7 66.9a31.1 31.1 0 1 1-31-31.3 31.6 31.6 0 0 1 21.9 9.2 31.1 31.1 0 0 1 9.1 22.1zm-49.9 0a18.8 18.8 0 1 0 18.8-18.8 18.8 18.8 0 0 0-18.8 18.8z"/><path d="M481.6 98.5h-.1a31.6 31.6 0 0 1-22.5-9.3 32.3 32.3 0 0 1-9.2-22.5A31.8 31.8 0 0 1 481.6 35h.1a31.4 31.4 0 0 1 22.4 9.3 32 32 0 0 1 9.3 22.6 31.9 31.9 0 0 1-9.4 22.4 31.5 31.5 0 0 1-22.4 9.2zm0-62.2A30.4 30.4 0 0 0 460 88.2a30 30 0 0 0 21.5 9h.1A30.2 30.2 0 0 0 512 66.9a30.4 30.4 0 0 0-30.3-30.6zm0 50a19.5 19.5 0 0 1-19.5-19.4 19.8 19.8 0 0 1 5.7-13.8 19.4 19.4 0 0 1 13.8-5.7 19.5 19.5 0 1 1 0 38.9zm-18.8-19.4h.7a18.1 18.1 0 1 0 18.1-18.2 18.1 18.1 0 0 0-12.8 5.3 17.9 17.9 0 0 0-5.3 12.9z"/></g><g fill="#636569"><path d="M568.9 97L535 61.9V97h-12V36.8h3.8l33.3 33.7V36.8h12V97z"/><path d="M535.7 97.7h-13.4V36.1h4.8l.2.2 32.1 32.6V36.1h13.3v61.6h-4.1l-.2-.2-32.7-34zm-12-1.3h10.6V60.2l34.9 36.2h2.2V37.5h-10.7v34.6l-34.1-34.6h-2.9z"/></g><g fill="#636569"><path d="M623.3 48.8h-28.1v11.1h23.2V72h-23.2v13H623v12h-39.8V36.8h40.1z"/><path d="M623.7 97.7h-41.1V36.1h41.3v13.4h-28v9.7H619v13.4h-23.1v11.8h27.8zm-39.8-1.3h38.5V85.7h-27.8V71.3h23.1V60.5h-23.1V48.1h28V37.5h-38.7z"/></g><g fill="#636569"><path d="M653.6 71.5a27.9 27.9 0 0 1-9.1-3.8 17 17 0 0 1-3.3-25.8 20.2 20.2 0 0 1 13.9-5.9 30.4 30.4 0 0 1 18.1 5.9l2 1.4-6.3 10.2-2.1-1.4c-3.9-2.5-6.4-4.1-11.7-4.1a9.6 9.6 0 0 0-5.3 2.2 4.1 4.1 0 0 0-.9 3.4c0 3.2 2.2 4.9 7.6 6.3l1.8.4a31.1 31.1 0 0 1 13.3 8.1 17.2 17.2 0 0 1 4.7 11.6 19.4 19.4 0 0 1-4.8 12 18.4 18.4 0 0 1-13.8 6.2 37.7 37.7 0 0 1-10.6-1.5 32.9 32.9 0 0 1-14.4-9l8.8-8.3a21 21 0 0 0 16.2 6.8 6.6 6.6 0 0 0 6.5-6.2c0-3.2-3.7-6.2-9.9-8.4h-.7z"/><path d="M657.4 98.9a37.5 37.5 0 0 1-10.5-1.5 34.5 34.5 0 0 1-14.7-9.3l-.4-.4 9.8-9.3.4.5a20.2 20.2 0 0 0 15.6 6.6 5.9 5.9 0 0 0 6-5.5c0-2.8-3.5-5.7-9.5-7.7h-1.2v-.2a32.6 32.6 0 0 1-8.8-3.8 17.6 17.6 0 0 1-8-14.1 16.8 16.8 0 0 1 4.6-12.7 21.3 21.3 0 0 1 14.4-6.2 31.5 31.5 0 0 1 18.5 6.1l2.5 1.7-7 11.3-2.7-1.7c-3.9-2.6-6.2-4.1-11.3-4.1a9 9 0 0 0-4.8 2.1 3.2 3.2 0 0 0-.8 2.8c0 2.3 1.2 4.1 7.2 5.6l1.8.4a33.6 33.6 0 0 1 13.6 8.3 17.6 17.6 0 0 1 4.8 12.2 19.5 19.5 0 0 1-4.9 12.5 19.3 19.3 0 0 1-14.2 6.4zm-23.7-11.2a33.6 33.6 0 0 0 13.6 8.4 38.5 38.5 0 0 0 10.1 1.4h.4a17.7 17.7 0 0 0 13.2-5.9 18.4 18.4 0 0 0 4.6-11.6 16.4 16.4 0 0 0-4.5-11.2 31.7 31.7 0 0 0-13-7.9l-1.7-.4c-4.9-1.2-8.2-2.9-8.2-6.8a4.9 4.9 0 0 1 1.1-3.9h.1a10.1 10.1 0 0 1 5.7-2.4c5.5 0 8.1 1.7 12 4.2l1.6 1.1 5.6-9.1-1.5-1a29.6 29.6 0 0 0-17.6-5.9h-.1a20 20 0 0 0-13.4 5.8 15.4 15.4 0 0 0-4.3 11.7 16.3 16.3 0 0 0 7.5 13.1 28 28 0 0 0 8.9 3.7h.7c6.6 2.3 10.4 5.6 10.4 9a7.2 7.2 0 0 1-7.2 6.9 21.4 21.4 0 0 1-16.2-6.6z"/></g><g fill="#8dc6e8"><path d="M277.4 142.1h14.5v20.7a69.7 69.7 0 0 1-6.9 1.6 70.1 70.1 0 0 1-8 .5 20 20 0 0 1-15.1-5.7c-3.6-3.9-5.3-9.2-5.3-16.1a25 25 0 0 1 2.6-11.7 18.2 18.2 0 0 1 7.7-7.6 24.8 24.8 0 0 1 11.7-2.6 32.7 32.7 0 0 1 12.7 2.5l-2 4.3a30.3 30.3 0 0 0-11.1-2.4 15.4 15.4 0 0 0-12.1 4.7 18 18 0 0 0-4.3 12.8 18.1 18.1 0 0 0 4.1 13 16.8 16.8 0 0 0 12.4 4.4 41.2 41.2 0 0 0 8.6-.9v-13.1h-9.5z"/><path d="M275.8 165.5a20.1 20.1 0 0 1-14.3-5.9c-3.7-3.9-5.5-9.3-5.5-16.5a24.5 24.5 0 0 1 2.7-11.9 17.8 17.8 0 0 1 7.9-7.9 25.1 25.1 0 0 1 12-2.7 33.7 33.7 0 0 1 12.9 2.5l.6.3-2.5 5.4-.6-.2a28.3 28.3 0 0 0-10.8-2.4 15.1 15.1 0 0 0-11.6 4.5 16.9 16.9 0 0 0-4.2 12.4 17.9 17.9 0 0 0 4 12.6 16 16 0 0 0 11.9 4.2 35.6 35.6 0 0 0 8-.8v-12h-9.5v-5.6h15.7v21.7h-.4a41.8 41.8 0 0 1-7 1.6 55.2 55.2 0 0 1-8.1.6zm2.2-43.7a25.6 25.6 0 0 0-10.9 2.5 17.4 17.4 0 0 0-7.3 7.4 23.8 23.8 0 0 0-2.6 11.4c0 6.9 1.7 12 5.1 15.6a19.1 19.1 0 0 0 14.6 5.6 70.1 70.1 0 0 0 8-.5c2.2-.4 4.3-.9 6.4-1.5v-19.6H278v3.2h9.5v14.2h-.4a42.8 42.8 0 0 1-8.7.9h-.1a17.4 17.4 0 0 1-12.8-4.6 18.8 18.8 0 0 1-4.3-13.4 18.4 18.4 0 0 1 4.5-13.2 16.1 16.1 0 0 1 12.6-4.9 28.2 28.2 0 0 1 10.7 2.3l1.5-3.3a32.2 32.2 0 0 0-11.9-2.2z"/></g><g fill="#8dc6e8"><path d="M315.9 131.9a23.4 23.4 0 0 1 3.8.3l-.7 4.5a19.7 19.7 0 0 0-3.5-.5 8.4 8.4 0 0 0-6.6 3.2 11.9 11.9 0 0 0-2.7 7.9v17h-4.8v-31.8h3.9l.6 5.8h.3a13.6 13.6 0 0 1 4.2-4.7 8.6 8.6 0 0 1 5.5-1.7z"/><path d="M306.8 164.9h-6v-33h5l.6 4.9a14.5 14.5 0 0 1 3.7-3.7 9.3 9.3 0 0 1 5.8-1.8 16.7 16.7 0 0 1 3.9.3h.6l-.9 5.8-.7-.2a12.6 12.6 0 0 0-3.3-.5 7.7 7.7 0 0 0-6.1 3 10.7 10.7 0 0 0-2.6 7.4zm-4.8-1.2h3.6v-16.4a12.1 12.1 0 0 1 2.9-8.3 9 9 0 0 1 7-3.4 15.4 15.4 0 0 1 3 .4l.6-3.3a17.7 17.7 0 0 0-3.2-.2h-.1a8.1 8.1 0 0 0-5 1.6 12.7 12.7 0 0 0-4.1 4.5l-.2.3h-1.1l-.6-5.8H302z"/></g><g fill="#8dc6e8"><path d="M345.2 164.4l-.9-4.6h-.2a13.2 13.2 0 0 1-4.8 4 13.5 13.5 0 0 1-5.9 1.1 10.1 10.1 0 0 1-7.4-2.5 8.8 8.8 0 0 1-2.8-6.9c0-6.4 5.2-9.8 15.5-10.2h5.5v-2a8.5 8.5 0 0 0-1.6-5.5 7.1 7.1 0 0 0-5.2-1.8 23.6 23.6 0 0 0-9.1 2.4l-1.4-3.7a29.5 29.5 0 0 1 5.2-2 26 26 0 0 1 5.6-.6 12.6 12.6 0 0 1 8.4 2.4 10.7 10.7 0 0 1 2.7 8.2v21.8zm-10.8-3.4a9.6 9.6 0 0 0 7-2.6 8.9 8.9 0 0 0 2.7-6.9v-2.9l-4.9.3a17.1 17.1 0 0 0-8.3 1.8 5 5 0 0 0-2.5 4.8 5.1 5.1 0 0 0 1.5 4.1 8 8 0 0 0 4.5 1.4z"/><path d="M332.6 165.5a10.8 10.8 0 0 1-7-2.6 9.7 9.7 0 0 1-3-7.4c0-6.8 5.5-10.4 16.1-10.7h4.9v-1.5a7.9 7.9 0 0 0-1.5-5.1 6.7 6.7 0 0 0-4.7-1.6 21.1 21.1 0 0 0-8.8 2.4l-.6.3-1.9-4.9.5-.2a26.6 26.6 0 0 1 5.3-2.1 27.6 27.6 0 0 1 5.7-.6h.1a12.9 12.9 0 0 1 8.7 2.5h.1a11 11 0 0 1 2.9 8.6V165l-4.7-.2-.8-3.9a13.4 13.4 0 0 1-4.4 3.4 14.1 14.1 0 0 1-6.1 1.1zm6.1-19.6c-10 .4-14.9 3.5-14.9 9.6a8.3 8.3 0 0 0 2.6 6.5 9.5 9.5 0 0 0 7 2.3 13 13 0 0 0 5.6-1 12.3 12.3 0 0 0 4.6-3.9v-.2h1.1l.9 4.6h2.5v-21.1a9.7 9.7 0 0 0-2.5-7.7 12 12 0 0 0-8-2.3 25.1 25.1 0 0 0-5.5.6 25.4 25.4 0 0 0-4.6 1.7l1.1 2.6a21.5 21.5 0 0 1 8.6-2.2 8 8 0 0 1 5.7 2h.1a10 10 0 0 1 1.7 6v2.5zm-3.8 15.7h-.5a8.3 8.3 0 0 1-4.8-1.5 5.6 5.6 0 0 1-1.8-4.6 5.8 5.8 0 0 1 2.8-5.4 17.1 17.1 0 0 1 8.6-1.8l5.5-.3v3.5a9.2 9.2 0 0 1-2.9 7.3 9.8 9.8 0 0 1-6.9 2.8zm-.5-1.2a9.5 9.5 0 0 0 6.6-2.4 8.6 8.6 0 0 0 2.5-6.5v-2.2l-4.3.2a16.7 16.7 0 0 0-8 1.7 4.7 4.7 0 0 0-2.3 4.3 4.8 4.8 0 0 0 1.5 3.6 6.2 6.2 0 0 0 4 1.3z"/></g><g fill="#8dc6e8"><path d="M373.6 164.9a13.1 13.1 0 0 1-5.6-1.2 9.5 9.5 0 0 1-4.4-3.5h-.3a47.1 47.1 0 0 1 .3 5.3v13.1h-4.8v-46.1h4l.6 4.4h.2a11 11 0 0 1 4.4-3.9 12 12 0 0 1 5.6-1.1 12.2 12.2 0 0 1 9.9 4.3 20.1 20.1 0 0 1 3.4 12.1 19.4 19.4 0 0 1-3.5 12.2 11.9 11.9 0 0 1-9.8 4.4zM373 136a8.6 8.6 0 0 0-7.2 2.7 14.2 14.2 0 0 0-2.2 8.6v1a16.4 16.4 0 0 0 2.2 9.7 9.1 9.1 0 0 0 7.3 2.9 7.5 7.5 0 0 0 6.4-3.3 15.3 15.3 0 0 0 2.4-9.3 14.7 14.7 0 0 0-2.4-9.1 7.7 7.7 0 0 0-6.5-3.2z"/><path d="M364.2 179.2h-6v-47.3h5.1l.5 3.7a11.6 11.6 0 0 1 3.9-3.1 14.7 14.7 0 0 1 5.8-1.2h.1a12.7 12.7 0 0 1 10.3 4.5 20.2 20.2 0 0 1 3.6 12.6 20.1 20.1 0 0 1-3.6 12.5 13.3 13.3 0 0 1-10.3 4.6 14.8 14.8 0 0 1-5.9-1.2 11.8 11.8 0 0 1-3.7-2.6c.1 1.3.2 2.5.2 3.8zm-4.8-1.2h3.6v-12.5a45.3 45.3 0 0 0-.3-5.2v-.7h1.3l.2.3a10.2 10.2 0 0 0 4.1 3.3 12.7 12.7 0 0 0 5.4 1.1 11.4 11.4 0 0 0 9.3-4.1 19 19 0 0 0 3.4-11.8 19.4 19.4 0 0 0-3.3-11.8 11.3 11.3 0 0 0-9.4-4.1 11.2 11.2 0 0 0-5.4 1.1 9.5 9.5 0 0 0-4.1 3.6l-.2.3h-1l-.7-4.4h-2.8zm12.9-16.5a9.1 9.1 0 0 1-6.9-3.1h-.1a16.7 16.7 0 0 1-2.3-10v-1a15.2 15.2 0 0 1 2.3-9h.1a9.3 9.3 0 0 1 7.6-2.8 8.3 8.3 0 0 1 7 3.4 15.6 15.6 0 0 1 2.5 9.6 16.2 16.2 0 0 1-2.5 9.5 8.1 8.1 0 0 1-7 3.6zm-6-3.9a8.2 8.2 0 0 0 6.7 2.7 6.9 6.9 0 0 0 6-3.1 14.4 14.4 0 0 0 2.3-8.8 14.5 14.5 0 0 0-2.3-8.9 6.9 6.9 0 0 0-6-2.9h-.1a8.5 8.5 0 0 0-6.6 2.4 13.8 13.8 0 0 0-2.1 8.2v1.1a15.1 15.1 0 0 0 2.1 9.3z"/></g><g fill="#8dc6e8"><path d="M417.1 164.4v-20.6a8.5 8.5 0 0 0-1.8-5.9 7 7 0 0 0-5.5-1.9 9.9 9.9 0 0 0-7.3 2.7 14.2 14.2 0 0 0-2.4 9v16.7h-4.8v-45.3h4.8v13.7a28.2 28.2 0 0 1-.2 4.1h.2a10.7 10.7 0 0 1 4.2-3.7 13.3 13.3 0 0 1 5.9-1.2 12.1 12.1 0 0 1 8.8 2.7 11.4 11.4 0 0 1 2.9 8.8v20.9z"/><path d="M422.5 165h-6v-21.2a7.6 7.6 0 0 0-1.6-5.5 6.5 6.5 0 0 0-5-1.7 10.3 10.3 0 0 0-7 2.4 14.6 14.6 0 0 0-2.2 8.6V165h-6v-46.5h6v16.7a9 9 0 0 1 3.3-2.5 13.6 13.6 0 0 1 6.2-1.3 12.4 12.4 0 0 1 9.2 2.9 11.6 11.6 0 0 1 3.1 9.3zm-4.8-1.2h3.6v-20.3a11.1 11.1 0 0 0-2.7-8.4 11.3 11.3 0 0 0-8.3-2.5 12.9 12.9 0 0 0-5.8 1.2 9.1 9.1 0 0 0-3.9 3.4v.3h-1.2v-.7a26.8 26.8 0 0 0 .2-4v-13.1H396v44.1h3.6v-16.1a15.7 15.7 0 0 1 2.5-9.4h.1a11 11 0 0 1 7.7-2.8 7.6 7.6 0 0 1 5.9 2.1 8.6 8.6 0 0 1 2 6.3z"/></g><g fill="#8dc6e8"><path d="M431.5 123.8a3.3 3.3 0 0 1 .8-2.5 3.1 3.1 0 0 1 2-.7 3.8 3.8 0 0 1 2.1.7 4 4 0 0 1 0 4.9 2.9 2.9 0 0 1-2.1.9 2.7 2.7 0 0 1-2-.9 3 3 0 0 1-.8-2.4zm5.2 40.6h-4.8v-31.9h4.8z"/><path d="M437.3 165h-6v-33.1h6zm-4.8-1.2h3.6v-30.7h-3.6zm1.8-36.1a3.6 3.6 0 0 1-3.4-3.9 3.5 3.5 0 0 1 1-2.9 3.4 3.4 0 0 1 2.5-.9 3.5 3.5 0 0 1 2.3.9h.1a4.5 4.5 0 0 1 0 5.6 3.8 3.8 0 0 1-2.4 1.1zm-.1-6.5a2 2 0 0 0-1.5.6 2.2 2.2 0 0 0-.6 1.9 2.2 2.2 0 0 0 .6 1.9 2.6 2.6 0 0 0 1.6.7 2.4 2.4 0 0 0 1.6-.7 3.3 3.3 0 0 0 0-4 2.3 2.3 0 0 0-1.6-.6z"/></g><g fill="#8dc6e8"><path d="M459.7 164.9a13.2 13.2 0 0 1-10.7-4.3 17.8 17.8 0 0 1-3.8-12 18.7 18.7 0 0 1 3.8-12.4 13.8 13.8 0 0 1 11-4.3 23.1 23.1 0 0 1 4.6.5 10.9 10.9 0 0 1 3.6 1.2l-1.5 4-3.5-1.1-3.4-.4c-6.5 0-9.6 4.2-9.6 12.4a14.6 14.6 0 0 0 2.3 9.1 8.2 8.2 0 0 0 7 3 19.5 19.5 0 0 0 8.2-1.7v4.4a18.2 18.2 0 0 1-8 1.6z"/><path d="M458.8 165.5a13.6 13.6 0 0 1-10.2-4.5 18.5 18.5 0 0 1-4-12.4 18.8 18.8 0 0 1 3.9-12.7 14.2 14.2 0 0 1 11.6-4.6 24 24 0 0 1 4.6.5 12.9 12.9 0 0 1 3.8 1.2l.5.3-1.9 5-4-1.2-3.3-.4c-6.1 0-9 3.9-9 11.8a13.9 13.9 0 0 0 2.2 8.7 7.3 7.3 0 0 0 6.5 2.8 19.2 19.2 0 0 0 7.9-1.6l.9-.4v5.7h-.4a17.8 17.8 0 0 1-8.2 1.7zm.3-33.1a13.2 13.2 0 0 0-9.7 4.2 18.3 18.3 0 0 0-3.6 12 17.4 17.4 0 0 0 3.7 11.7 12.5 12.5 0 0 0 10.2 4 17.1 17.1 0 0 0 7.4-1.4v-3.1a19.7 19.7 0 0 1-7.6 1.4 8.6 8.6 0 0 1-7.5-3.3 14.9 14.9 0 0 1-2.4-9.4c0-8.6 3.4-13 10.2-13l3.5.4 3.1 1 1.1-3a8.6 8.6 0 0 0-3-.9 23 23 0 0 0-4.5-.5z"/></g><g fill="#8dc6e8"><path d="M526.6 142.7c0 7-1.9 12.3-5.7 16s-9.3 5.7-16.5 5.7h-11.8v-42.6h13.1a19.2 19.2 0 0 1 20.9 17.2 22.9 22.9 0 0 1 0 3.7zm-5.2.1a16.8 16.8 0 0 0-4.2-12.5c-2.9-2.9-6.9-4.2-12.3-4.2h-7.3V160h6.1c5.8 0 10.3-1.4 13.3-4.2s4.4-7.3 4.4-13z"/><path d="M504.4 165H492v-43.8h13.7a19.7 19.7 0 0 1 21.5 17.7 24.1 24.1 0 0 1 0 3.8c0 7.1-2 12.6-5.9 16.5s-9.6 5.8-16.9 5.8zm-11.2-1.2h11.2c7 0 12.3-1.8 16.1-5.5s5.5-8.7 5.5-15.6a20.4 20.4 0 0 0 0-3.5 18.5 18.5 0 0 0-20.2-16.7h-12.6zm10.5-3.2H497v-35.1h7.9c5.6 0 9.8 1.4 12.7 4.3a17.4 17.4 0 0 1 4.4 13c0 5.9-1.5 10.4-4.6 13.4s-7.7 4.4-13.7 4.4zm-5.5-1.2h5.5c5.7 0 10-1.4 12.8-4.1s4.3-6.9 4.3-12.5a16.3 16.3 0 0 0-4.1-12.1c-2.7-2.7-6.4-4-11.8-4h-6.7z"/></g><g fill="#8dc6e8"><path d="M548.8 164.9a14.5 14.5 0 0 1-11.1-4.3 16.5 16.5 0 0 1-4.1-12 19.2 19.2 0 0 1 3.7-12.2 12.5 12.5 0 0 1 10.2-4.5 11.9 11.9 0 0 1 9.6 3.9 15.1 15.1 0 0 1 3.5 10.4v3.1h-22a12.6 12.6 0 0 0 2.9 8.5 9.6 9.6 0 0 0 7.5 2.8 23.9 23.9 0 0 0 10.2-2.1v4.4a25.6 25.6 0 0 1-4.9 1.6 33.1 33.1 0 0 1-5.5.4zm-1.3-29a7.9 7.9 0 0 0-6.1 2.5 11.9 11.9 0 0 0-2.7 6.9h16.7a11.7 11.7 0 0 0-2-7 7.6 7.6 0 0 0-5.9-2.4z"/><path d="M548 165.5a15.6 15.6 0 0 1-10.8-4.4 17.3 17.3 0 0 1-4.2-12.5 19.6 19.6 0 0 1 3.9-12.5 13 13 0 0 1 10.7-4.8 12.5 12.5 0 0 1 9.9 4.1 15.3 15.3 0 0 1 3.7 10.8v3.7h-22a11.6 11.6 0 0 0 2.8 7.5 9 9 0 0 0 7 2.6 24.5 24.5 0 0 0 10-2l.8-.4v5.7h-.3a29.5 29.5 0 0 1-5 1.7 36.4 36.4 0 0 1-5.7.4zm-.9-33a12.2 12.2 0 0 0-9.3 4.3 18.5 18.5 0 0 0-3.6 11.8 15.8 15.8 0 0 0 3.9 11.6 14.2 14.2 0 0 0 10.7 4.1 31.9 31.9 0 0 0 5.4-.4 22.5 22.5 0 0 0 4.4-1.4v-3.1a25.5 25.5 0 0 1-9.5 1.8h-.1a10.2 10.2 0 0 1-7.9-3 13.3 13.3 0 0 1-3.1-8.9v-.6h22v-2.5a14 14 0 0 0-3.4-10 11.1 11.1 0 0 0-9-3.7zm8.9 13.4h-17.9v-.6a12 12 0 0 1 2.8-7.2 8.4 8.4 0 0 1 6.6-2.8 7.9 7.9 0 0 1 6.3 2.6 12 12 0 0 1 2.2 7.5zm-16.6-1.2h15.4a10.7 10.7 0 0 0-1.9-6 6.6 6.6 0 0 0-5.3-2.2h-.1a7.4 7.4 0 0 0-5.7 2.4 11.1 11.1 0 0 0-2.4 5.8z"/></g><g fill="#8dc6e8"><path d="M590.6 155.6a7.8 7.8 0 0 1-3.3 6.8 15 15 0 0 1-9.4 2.5 20 20 0 0 1-9.9-2v-4.5a22.2 22.2 0 0 0 4.9 1.8 18.1 18.1 0 0 0 5.1.8 12.1 12.1 0 0 0 5.9-1.3 3.8 3.8 0 0 0 2-3.6 3.9 3.9 0 0 0-1.6-3.2 24.9 24.9 0 0 0-6.3-3.2 33.2 33.2 0 0 1-6.4-2.9 9.9 9.9 0 0 1-2.7-2.7 7.6 7.6 0 0 1 2.2-10 14.9 14.9 0 0 1 8.7-2.2 25 25 0 0 1 10.1 2.1l-1.7 3.9a23.5 23.5 0 0 0-8.7-2 11.5 11.5 0 0 0-5.2 1 3.5 3.5 0 0 0-1.8 3 4.8 4.8 0 0 0 .7 2.3 12 12 0 0 0 2.1 1.7l5.6 2.3a20.1 20.1 0 0 1 7.6 4.1 7.7 7.7 0 0 1 2.1 5.3z"/><path d="M579 165.5h-1.1a20.6 20.6 0 0 1-10.1-2.1l-.4-.2v-5.8l.9.5a24.8 24.8 0 0 0 4.8 1.7 16.2 16.2 0 0 0 4.9.8 10.7 10.7 0 0 0 5.6-1.2 3.3 3.3 0 0 0 1.7-3.1 3.2 3.2 0 0 0-1.4-2.7 21.9 21.9 0 0 0-6.1-3.1 34.5 34.5 0 0 1-6.5-3 10 10 0 0 1-2.9-2.9 7.8 7.8 0 0 1-1.1-4.2 8 8 0 0 1 3.5-6.6 15.3 15.3 0 0 1 9.1-2.3 25.5 25.5 0 0 1 10.2 2.1l.6.3-2.2 5-.5-.2a21.2 21.2 0 0 0-8.5-2 10.3 10.3 0 0 0-4.9 1 2.8 2.8 0 0 0-1.5 2.4 3.3 3.3 0 0 0 .6 1.9 6.5 6.5 0 0 0 1.8 1.5l5.6 2.3a21.3 21.3 0 0 1 7.8 4.3 8.1 8.1 0 0 1 2.3 5.7 8.4 8.4 0 0 1-3.6 7.3 15.8 15.8 0 0 1-8.6 2.6zm-1.1-1.2a14.2 14.2 0 0 0 9-2.4 7 7 0 0 0 3.1-6.2 6.9 6.9 0 0 0-1.9-4.9 19.5 19.5 0 0 0-7.4-3.9l-5.7-2.4a6.7 6.7 0 0 1-2.2-1.9 4.1 4.1 0 0 1-.9-2.6 3.9 3.9 0 0 1 2.1-3.5 11.5 11.5 0 0 1 5.5-1.1 24.3 24.3 0 0 1 8.4 1.8l1.2-2.8a24.4 24.4 0 0 0-9.3-1.8 13.7 13.7 0 0 0-8.4 2.1 6.8 6.8 0 0 0-2.9 5.6 7.4 7.4 0 0 0 .9 3.6 8.9 8.9 0 0 0 2.6 2.5 26.7 26.7 0 0 0 6.2 2.8 24.3 24.3 0 0 1 6.4 3.3 4.5 4.5 0 0 1 1.9 3.7 4.3 4.3 0 0 1-2.4 4.1 11.7 11.7 0 0 1-6.1 1.4 19.5 19.5 0 0 1-5.3-.8 39.9 39.9 0 0 1-4.1-1.4v3.1a19.8 19.8 0 0 0 9.3 1.7z"/></g><g fill="#8dc6e8"><path d="M598 123.8a3.3 3.3 0 0 1 .8-2.5 3.1 3.1 0 0 1 2.1-.7 3.7 3.7 0 0 1 2 .7 4 4 0 0 1 0 4.9 2.8 2.8 0 0 1-2 .9 2.9 2.9 0 0 1-2.1-.9 3 3 0 0 1-.8-2.4zm5.2 40.6h-4.8v-31.9h4.8z"/><path d="M603.8 165h-6v-33.1h6zm-4.8-1.2h3.6v-30.7H599zm1.8-36.1a3.2 3.2 0 0 1-2.4-1.1 3.7 3.7 0 0 1-1-2.8 3.8 3.8 0 0 1 1-2.9 3.4 3.4 0 0 1 2.5-.9 3.3 3.3 0 0 1 2.3.9h.1a4.3 4.3 0 0 1 0 5.6 3.2 3.2 0 0 1-2.4 1.1zm-.1-6.5a1.8 1.8 0 0 0-1.4.6 2.4 2.4 0 0 0-.7 2 2.4 2.4 0 0 0 .7 2 2.1 2.1 0 0 0 1.5.7 2.2 2.2 0 0 0 1.6-.7 3 3 0 0 0 0-4 2.3 2.3 0 0 0-1.6-.6z"/></g><g fill="#8dc6e8"><path d="M639.5 132.5v3l-5.8.7a11.7 11.7 0 0 1 1.5 2.7 11.5 11.5 0 0 1 .6 3.7 9.2 9.2 0 0 1-3.3 7.4 14 14 0 0 1-11.4 2.6c-2.1 1.1-3 2.4-3 4.1a1.8 1.8 0 0 0 1 1.9 7.7 7.7 0 0 0 3.6.7h5.8a12.1 12.1 0 0 1 7.8 2.2 7.1 7.1 0 0 1 2.9 6.3 9 9 0 0 1-4.3 8 22.2 22.2 0 0 1-12.4 2.8c-5.4 0-7.4-.8-9.6-2.2a7.7 7.7 0 0 1-3.4-6.6 6.9 6.9 0 0 1 1.9-5.1 9.7 9.7 0 0 1 5.2-2.9 3.4 3.4 0 0 1-2-1.7 4.4 4.4 0 0 1-.9-2.7 4.7 4.7 0 0 1 1-3 11.6 11.6 0 0 1 2.8-2.6 8 8 0 0 1-4-3.5 11.6 11.6 0 0 1 1.6-13.6 13.6 13.6 0 0 1 8.9-2.9 14.3 14.3 0 0 1 4.6.7zm-25.4 37.2a4.3 4.3 0 0 0 2.3 3.9 12.3 12.3 0 0 0 6.2 1.4 18 18 0 0 0 8.9-1.8 5.6 5.6 0 0 0 3-5 3.9 3.9 0 0 0-1.6-3.6 12.5 12.5 0 0 0-6-1h-5.8a8.2 8.2 0 0 0-5.2 1.6 5.9 5.9 0 0 0-1.8 4.5zm2.7-27a5.9 5.9 0 0 0 1.9 5 7.4 7.4 0 0 0 5.2 1.7c4.7 0 7.1-2.2 7.1-6.8a6.4 6.4 0 0 0-5.7-7.2h-1.5a7.1 7.1 0 0 0-5.2 1.8 7.8 7.8 0 0 0-1.8 5.5z"/><path d="M624.1 179.2h-1.6c-5.5 0-7.6-.8-10-2.3a8.4 8.4 0 0 1-3.6-7.1 7.8 7.8 0 0 1 2-5.5 9.5 9.5 0 0 1 4.2-2.7 4.3 4.3 0 0 1-1.1-1.2 5 5 0 0 1-.9-2.9 6.1 6.1 0 0 1 1.1-3.5 10.4 10.4 0 0 1 2.1-2.1 9.5 9.5 0 0 1-3.3-3.3 12.4 12.4 0 0 1 1.6-14.3 13.1 13.1 0 0 1 9.4-3 12.7 12.7 0 0 1 4.7.6h11.4v4.1l-5.4.7a7.5 7.5 0 0 1 1 2 10.8 10.8 0 0 1-2.8 11.8 13.2 13.2 0 0 1-9.1 3 11.5 11.5 0 0 1-2.6-.3c-1.8 1-2.5 2.1-2.5 3.5a1.3 1.3 0 0 0 .7 1.4 6.3 6.3 0 0 0 3.3.6h5.8a12.8 12.8 0 0 1 8.2 2.3 7.8 7.8 0 0 1 3.1 6.8 9.7 9.7 0 0 1-4.5 8.5 22.3 22.3 0 0 1-11.2 2.9zm-.9-46.8a12.2 12.2 0 0 0-7.7 2.8A11 11 0 0 0 614 148a8.1 8.1 0 0 0 3.8 3.3l1 .4-1 .6a15.5 15.5 0 0 0-2.7 2.4 5.3 5.3 0 0 0-.8 2.7 4.8 4.8 0 0 0 .7 2.4 4.9 4.9 0 0 0 1.8 1.4l1.8.8-1.9.4a8.6 8.6 0 0 0-4.9 2.7 6.7 6.7 0 0 0-1.7 4.7 7.1 7.1 0 0 0 3.1 6.1c2.2 1.4 4.1 2.1 9.3 2.1a21.5 21.5 0 0 0 12.2-2.7 8.6 8.6 0 0 0 3.9-7.5 6.7 6.7 0 0 0-2.6-5.8 11.2 11.2 0 0 0-7.5-2.1h-5.8a8.3 8.3 0 0 1-3.8-.7 2.5 2.5 0 0 1-1.4-2.5c0-1.9 1-3.4 3.4-4.7h.4a10.1 10.1 0 0 0 2.5.3 11.9 11.9 0 0 0 8.3-2.7 8.5 8.5 0 0 0 3.1-7 10.3 10.3 0 0 0-.6-3.5 7.7 7.7 0 0 0-1.4-2.5l-.6-.8 6.3-.9v-1.8h-10.5a13.1 13.1 0 0 0-4.4-.7zm.5 43.2h-1.1a12.4 12.4 0 0 1-6.5-1.5 5 5 0 0 1-2.6-4.4 6.3 6.3 0 0 1 2-4.9 8.5 8.5 0 0 1 5.7-1.8h5.7a13.7 13.7 0 0 1 6.3 1h.1a4.4 4.4 0 0 1 1.8 4.1 6.1 6.1 0 0 1-3.3 5.5 17.5 17.5 0 0 1-8.1 2zm-1.1-1.2a16.5 16.5 0 0 0 8.7-1.8 4.9 4.9 0 0 0 2.6-4.4 3.6 3.6 0 0 0-1.3-3.1 13.7 13.7 0 0 0-5.7-.9h-5.8a7.1 7.1 0 0 0-4.8 1.5 5.2 5.2 0 0 0-1.6 3.6v.4a3.9 3.9 0 0 0 1.9 3.4 12.5 12.5 0 0 0 6 1.3zm.7-24.4a7.8 7.8 0 0 1-5-1.9 6.5 6.5 0 0 1-2.1-5.4 8.2 8.2 0 0 1 1.9-5.9 8 8 0 0 1 5.7-2 4.3 4.3 0 0 1 1.6 0 6.6 6.6 0 0 1 4.7 2.6 7.2 7.2 0 0 1 1.5 5.3c0 4.7-2.7 7.3-7.7 7.3zm.1-14a6.5 6.5 0 0 0-4.4 1.6 7.6 7.6 0 0 0-1.6 5.1 5.4 5.4 0 0 0 1.7 4.5 6.3 6.3 0 0 0 4.7 1.6c4.5 0 6.6-2 6.6-6.2a5.8 5.8 0 0 0-5.1-6.6h-1.9z"/></g><g fill="#8dc6e8"><path d="M669.1 164.3v-20.6a8.2 8.2 0 0 0-1.8-5.8 7 7 0 0 0-5.5-1.9 10.3 10.3 0 0 0-7.3 2.6 14.4 14.4 0 0 0-2.4 9v16.7h-4.8v-31.8h3.9l.8 4.4h.3a8.9 8.9 0 0 1 4.1-3.8 13.7 13.7 0 0 1 6-1.2 12.1 12.1 0 0 1 8.7 2.7 12.1 12.1 0 0 1 2.8 8.9v20.8z"/><path d="M674.5 164.9h-6v-21.2a7.4 7.4 0 0 0-1.6-5.4 6.5 6.5 0 0 0-5-1.7 10.1 10.1 0 0 0-7 2.4 14.1 14.1 0 0 0-2.2 8.5v17.4h-6v-33h5l.7 3.7a10.2 10.2 0 0 1 3.8-3 13.1 13.1 0 0 1 6.2-1.3 12.4 12.4 0 0 1 9 2.9h.1a12.9 12.9 0 0 1 3 9.4zm-4.8-1.2h3.6v-20.2a11.1 11.1 0 0 0-2.7-8.4 11.6 11.6 0 0 0-8.2-2.6 12.2 12.2 0 0 0-5.7 1.2 7.8 7.8 0 0 0-3.9 3.5l-.2.3h-1.1l-.8-4.4h-2.8v30.6h3.6v-16.1a15.2 15.2 0 0 1 2.5-9.3h.1a11 11 0 0 1 7.7-2.8 7.7 7.7 0 0 1 5.9 2.1 8.6 8.6 0 0 1 2 6.3z"/></g></svg>