<svg id="Layer_1" data-name="Layer 1" xmlns="http://www.w3.org/2000/svg" width="130.7in" height="100.4in" viewBox="0 0 9414 7230"><title>awt-refine</title><path d="M8026.4,5625.7s-.5-69.2,32.2-206.2L7838.8,5521l-47.5,131.6Z" fill="#ffa168"/><path d="M8453.5,5625.8s.5-69.2-32.2-206.3l219.8,101.7,47.4,131.6Z" fill="#ffa168"/><path d="M8105.7,6165.4c28.3-52.1,68.9-116.7,114.5-188.3-48-75.3-64-97.9-96.6-151.9-60.2,102.4-104.6,179.9-117,224.2Z" fill="#fbcf63"/><path d="M8238.7,5107.4c-48.1,29-65.7,114.9-71.8,183.5-2.4,26.1-3.3,51.6-3.4,74.3,17.1-71.9,44.6-114.8,76.1-114.8s59.6,41.9,76.7,114.4c-.3-22.2-1.3-47.2-3.8-72.7-6.9-69.1-23.4-155.5-70.5-184.6" fill="#ffa168"/><path d="M8143.8,5438.2c-2.3-24.4-4.1-84.5,1.7-148.6,3.4-38.1,9.3-71.5,17.6-99.5-59.7,126-108,354.1-108.1,439.9,0,61.2,226.2,377.9,312,536.3l99.1-115.9C8435.6,5940.2,8145.1,5514.5,8143.8,5438.2Z" fill="#96daea"/><path d="M8316.4,5190c8.2,28.3,14.1,62.2,17.5,101,5.5,63,3.9,122.6,1.8,147.1-.2,25.1-35.8,95-80.1,173.3,41.5,72.8,62.4,108.8,96.8,166.1,36.4-61.4,71.9-127,71.9-147.3C8424.4,5544.4,8376,5315.9,8316.4,5190Z" fill="#fbcf63"/><path d="M7686.9,2089.2l23.7-61.7c1-2.9,3.3-4.7,10.5-4.7s9.3,1.8,10.3,4.7l24.3,61.6c.5,1.3-3.9,4.9-8.7,4.9s-7-1.8-9.1-7.5l-4.2-10.9h-25.4l-4.4,11.1c-1.9,5.5-5.3,7.3-8.6,7.3S7686.4,2090.6,7686.9,2089.2Zm43.4-25.6-9.5-25.4-9.5,25.4Z" fill="#ffa168"/><path d="M7813.6,2047.4V2092c0,.5-2.7,1.7-5.7,1.7s-6.8-1.2-8.6-5.7a19.2,19.2,0,0,1-.5-2.9c-3.7,5.5-9.1,9.6-17.4,9.6-13.7,0-19.4-9.6-19.4-21.8v-25.5c0-5.5,2.8-7.4,6.5-7.4h1.8c4,0,6.8,1.8,6.8,7.4v23.2c0,7.1,3.7,11.3,9.9,11.3a12.9,12.9,0,0,0,11.5-6.9v-27.6c0-5.5,2.7-7.4,6.6-7.4h1.6C7810.8,2040,7813.6,2041.8,7813.6,2047.4Z" fill="#ffa168"/><path d="M7829.7,2076.7v-24.2H7827c-4.3,0-6.3-2-6.3-5.4v-.9c0-3.6,2-5.6,6.2-5.6h2.8v-6.7c0-5,2.5-7.4,6.8-7.4h1.4c4,0,6.7,1.8,6.7,7.4v6.7h9.2c4.3,0,6.1,1.8,6.1,5.3v.9c0,3.7-1.9,5.7-6.2,5.7h-9.3v22.4c0,5.2,1.6,7.8,5.8,7.8a7.6,7.6,0,0,0,6.6-3.6c.6-.2,3.8,2,3.8,6a7.8,7.8,0,0,1-2.6,5.8c-2.4,2.4-6.3,3.9-11.3,3.9C7835.1,2094.8,7829.7,2088.6,7829.7,2076.7Z" fill="#ffa168"/><path d="M7876.2,2016.5c5.2,0,8.5,3,8.5,7.9s-3.1,7.9-8.5,7.9-8.6-3.1-8.6-7.9S7870.9,2016.5,7876.2,2016.5Zm-7.7,30.9c0-5.5,2.9-7.4,6.8-7.4h1.6c4,0,6.8,1.8,6.8,7.4v39.1c0,5.5-2.8,7.2-6.8,7.2h-1.5c-4.1,0-6.9-1.6-6.9-7.2Z" fill="#ffa168"/><path d="M7892,2082.9c0-3.9,4.2-6.4,4.7-6,3.5,4,9.6,7.1,17.4,7.1,5.9,0,9.2-2.1,9.2-5.4s-4.3-4.9-11.3-6.4-18.5-3.9-18.5-15.7c0-10.3,8.4-17.1,22-17.1,10.7,0,17.3,2.9,20,7a8.3,8.3,0,0,1,1.3,4.3c0,4-4.7,6.7-4.9,6.4a21,21,0,0,0-15.4-7.1c-5.9,0-9,2.1-9,5.5s4.1,4.5,11.2,6.1,19.4,4,19.4,15.9-8.5,17-23.3,17c-8.3,0-14.3-1.6-18.1-4S7892,2085.8,7892,2082.9Z" fill="#ffa168"/><path d="M8031.6,2060.3v26.2c0,5.5-2.8,7.2-6.7,7.2h-1.6c-4.1,0-6.9-1.6-6.9-7.2v-23.8c0-6.9-3-10.6-9.2-10.6-4.3,0-8.2,2.7-10.4,6.5v27.9c0,5.5-2.8,7.2-6.7,7.2h-1.6c-4,0-6.9-1.6-6.9-7.2V2063c0-7.2-3-10.9-9.1-10.9a12.1,12.1,0,0,0-10.3,6.5v27.9c0,5.5-2.9,7.2-6.7,7.2h-1.7c-4.1,0-6.9-1.6-6.9-7.2v-44.7c0-.6,2.7-1.8,5.7-1.8s7.9,1.7,9.1,8.7c3.6-5.3,8.7-9.3,16.3-9.3s14.3,4.2,16.9,10.8c3.6-6.1,9-10.8,17.7-10.8C8026,2039.4,8031.6,2047.9,8031.6,2060.3Z" fill="#ffa168"/><path d="M8061.4,2031c0-5.2,3-8,7.9-8h4.4c4.9,0,6.4,1.5,8.3,5.7l14.1,32.9,14.3-32.9c1.8-4.4,3.6-5.7,8.1-5.7h4.2c5.1,0,8.1,2.8,8.1,8v55.5c0,4.7-1.8,7.2-6.4,7.2h-2.3c-4.5,0-6.3-2.5-6.3-7.2v-41.7l-11.7,28.4c-1.2,2.7-1.8,5-8.1,5s-6.7-2.3-8-5l-11.5-27.9v41.2c0,4.7-1.8,7.2-6.3,7.2h-2.6c-4.3,0-6.2-2.5-6.2-7.2Z" fill="#ffa168"/><path d="M8167.4,2039.4c15.7,0,26.3,10.9,26.3,26.3v1c-.1,2.6-.9,4-3.7,4h-36.5l.3,1.7c1.6,7,7.4,11.4,15.1,11.4s12.5-3.5,14.9-7.7c.1-.2,7.4.4,7.4,6.5,0,2.9-2,5.9-5.8,8.2s-9.5,4-16.9,4c-17.2,0-28.4-10.7-28.4-27.4S8151.6,2039.4,8167.4,2039.4Zm-.1,10.5c-7.2,0-12.6,5.2-13.6,12.5h25.9C8179.2,2054.7,8174.6,2049.9,8167.3,2049.9Z" fill="#ffa168"/><path d="M8199.5,2067c0-16.7,10-27.6,24.6-27.6,7.5,0,13.6,3.5,16.6,8V2020c0-.5,2.7-1.8,5.7-1.8,4.6,0,9.5,2.4,9.5,12.2v56.1c0,5.5-2.7,7.2-6.7,7.2h-1.5c-3.4,0-6-1.2-6.6-5.3-.1-1.2-.2-2.3-.2-3.6-3.6,6.1-9.4,10-17.2,10C8209.5,2094.8,8199.5,2083.6,8199.5,2067Zm41.3-7c-2.3-5.2-6.6-8.4-13.1-8.4-8.2,0-13.7,5.9-13.7,15.4s5.6,15.6,13.5,15.6,13.3-5.1,13.3-12.6Z" fill="#ffa168"/><path d="M8275.8,2016.5c5.3,0,8.5,3,8.5,7.9s-3.1,7.9-8.5,7.9-8.5-3.1-8.5-7.9S8270.5,2016.5,8275.8,2016.5Zm-7.7,30.9c0-5.5,2.9-7.4,6.8-7.4h1.7c4,0,6.8,1.8,6.8,7.4v39.1c0,5.5-2.8,7.2-6.8,7.2H8275c-4.1,0-6.9-1.6-6.9-7.2Z" fill="#ffa168"/><path d="M8320,2039.4c8.1,0,13.7,2.4,17.3,5.3s5.2,6.5,5.2,9.1c0,6.1-8.2,7.3-8.6,6.7-2-5.1-5.8-8.8-13.3-8.8s-14.2,6.4-14.2,15.2,5.9,15.6,14.2,15.6,11.3-3.7,13.3-8.8c.4-.6,8.6.3,8.6,6.8,0,2.5-1.7,6.1-5.3,8.9s-9.3,5.4-17.2,5.4c-16.2,0-27.6-11.4-27.6-27.9S8304,2039.4,8320,2039.4Z" fill="#ffa168"/><path d="M8381.8,2061.9h1.7a8.1,8.1,0,0,0-.1-1.6c-.2-6.1-4-9.5-10.7-9.5s-11.1,3.7-13,7.7c-.1.2-9.8,1-9.8-6a9.4,9.4,0,0,1,3.3-6.9c3.5-3.7,10.3-6.2,20.5-6.2,16.7,0,24.8,7.7,24.8,21.8v31.1c0,.8-2.8,1.7-5.7,1.7s-6.6-1.5-8-5a24.5,24.5,0,0,1-.8-3.6c-3.7,5.7-10.4,9.1-18.3,9.1-11,0-17.7-6.1-17.7-15.1C8348,2067.6,8359.4,2062.2,8381.8,2061.9Zm1.7,7.6h-2.9c-12,.5-18.4,2.7-18.4,8.7,0,4,3.2,6.4,8.2,6.4,7.6,0,13-4.6,13.1-11.3Z" fill="#ffa168"/><path d="M8409.8,2086.5V2020c0-.5,2.7-1.8,5.7-1.8,4.5,0,9.5,2.4,9.5,12.2v56.1c0,5.5-2.8,7.2-6.7,7.2h-1.6C8412.7,2093.7,8409.8,2092.1,8409.8,2086.5Z" fill="#ffa168"/><path d="M8470.8,2037.3H8455c-4.7,0-7.3-2.3-7.3-6.8v-.5c0-4.3,2.6-6.6,7.3-6.6h47.3c4.8,0,7.3,2.3,7.3,6.6v.5c0,4.5-2.5,6.8-7.3,6.8h-15.5v49.2c0,4.7-2.6,7.2-7.1,7.2h-2.3c-4.3,0-6.6-2.5-6.6-7.2Z" fill="#ffa168"/><path d="M8551.5,2048.3c0,6-4.6,8.2-4.8,7.9a10.8,10.8,0,0,0-7-2.5c-7.3,0-10.5,6.4-10.5,17v15.8c0,5.5-2.9,7.2-6.7,7.2h-1.7c-4.1,0-6.9-1.6-6.9-7.2v-44.7c0-.6,2.6-1.8,5.8-1.8a8.5,8.5,0,0,1,8.3,5.8,23,23,0,0,1,.7,3.6c2.1-6.2,6.5-10,13.1-10S8551.5,2042.9,8551.5,2048.3Z" fill="#ffa168"/><path d="M8588.6,2061.9h1.7a8.1,8.1,0,0,0-.1-1.6c-.2-6.1-4-9.5-10.7-9.5s-11.1,3.7-13,7.7c-.1.2-9.8,1-9.8-6a9.4,9.4,0,0,1,3.3-6.9c3.5-3.7,10.3-6.2,20.5-6.2,16.7,0,24.8,7.7,24.8,21.8v31.1c0,.8-2.8,1.7-5.7,1.7s-6.6-1.5-8-5q-.5-1.5-.9-3.6c-3.6,5.7-10.3,9.1-18.2,9.1-11,0-17.7-6.1-17.7-15.1C8554.8,2067.6,8566.2,2062.2,8588.6,2061.9Zm1.7,7.6h-2.9c-12,.5-18.4,2.7-18.4,8.7,0,4,3.2,6.4,8.2,6.4,7.6,0,13-4.6,13.1-11.3Z" fill="#ffa168"/><path d="M8610.5,2044.5c-.2-.9,3.8-4.6,8.3-4.6s6.7,1.8,8.7,7.9l10.6,31,11-31c1.9-6.1,5.1-7.9,8.3-7.9,4.7,0,8.5,3.7,8.2,4.6l-18.9,45.4c-1.3,3.2-5.1,4-8.5,4s-7.3-.7-8.6-3.9Z" fill="#ffa168"/><path d="M8695.7,2039.4c15.6,0,26.2,10.9,26.2,26.3v1c-.1,2.6-.9,4-3.7,4h-36.5l.3,1.7c1.7,7,7.4,11.4,15.2,11.4s12.4-3.5,14.8-7.7c.1-.2,7.4.4,7.4,6.5,0,2.9-2,5.9-5.8,8.2s-9.5,4-16.9,4c-17.1,0-28.4-10.7-28.4-27.4S8679.8,2039.4,8695.7,2039.4Zm-.2,10.5c-7.2,0-12.6,5.2-13.6,12.5h26C8707.4,2054.7,8702.8,2049.9,8695.5,2049.9Z" fill="#ffa168"/><path d="M8730.8,2086.5V2020c0-.5,2.7-1.8,5.7-1.8,4.5,0,9.5,2.4,9.5,12.2v56.1c0,5.5-2.8,7.2-6.7,7.2h-1.6C8733.7,2093.7,8730.8,2092.1,8730.8,2086.5Z" fill="#ffa168"/><path d="M8026.4,932.7s-.5-69.2,32.2-206.2L7838.8,828l-47.5,131.6Z" fill="#ffa168"/><path d="M8453.5,932.8s.5-69.2-32.2-206.3l219.8,101.7,47.4,131.6Z" fill="#ffa168"/><path d="M8105.7,1472.4c28.3-52.1,68.9-116.7,114.5-188.3-48-75.3-64-97.9-96.6-151.9-60.2,102.4-104.6,179.9-117,224.2Z" fill="#fbcf63"/><path d="M8238.7,414.4c-48.1,29-65.7,114.9-71.8,183.5-2.4,26.1-3.3,51.6-3.4,74.3,17.1-71.9,44.6-114.8,76.1-114.8s59.6,41.9,76.7,114.4c-.3-22.2-1.3-47.2-3.8-72.7-6.9-69.1-23.4-155.5-70.5-184.6" fill="#ffa168"/><path d="M8143.8,745.2c-2.3-24.4-4.1-84.5,1.7-148.6,3.4-38.1,9.3-71.5,17.6-99.5-59.7,126-108,354.1-108.1,439.9,0,61.2,226.2,377.9,312,536.3l99.1-115.9C8435.6,1247.2,8145.1,821.5,8143.8,745.2Z" fill="#96daea"/><path d="M8316.4,497c8.2,28.3,14.1,62.2,17.5,101,5.5,63,3.9,122.6,1.8,147.1-.2,25.1-35.8,95-80.1,173.3,41.5,72.8,62.4,108.8,96.8,166.1,36.4-61.4,71.9-127,71.9-147.3C8424.4,851.4,8376,622.9,8316.4,497Z" fill="#fbcf63"/><path d="M7945.6,1904.6l-88.9-1.2-13.4,47c-9.1,5.2-25.5,7.4-45.6,7.1s-34.8-3.3-42.1-8.3l90-287.5c14-3,35.4-4.8,59.1-4.5s45.9,2.7,59.4,6.2l85,289.8c-7.8,4.8-22.6,7.5-43.6,7.2s-37.2-3-47-8.4Zm-24.8-100.8a664.3,664.3,0,0,1-16.1-82.6h-4.9c-5,30.3-11.5,57.3-18,81.8l-8.2,31.9,55.3.7Z" fill="#96daea"/><path d="M8351.9,1733.5h-5c-3.6,27.9-11.9,67.1-18.4,92.4L8294.2,1959c-10.3,3.2-24.6,5-42.7,4.8s-32.3-2.5-42.1-5.9l-32.6-137.8c-4.6-19.8-11.8-66.6-13.1-89.2h-4.9l-3.1,225.5c-7.5,4-19.8,5.5-38.6,5.2s-31.2-2-38.5-6.2l4-289.9c14-3.5,34.9-5.2,65.7-4.8s52,2.7,65.1,6.6l28.1,128.7c4.6,21.8,9.1,58,11.2,85.5h4.9c2.8-27.5,7.8-64.7,12.6-84.3l30.1-128.8c13.1-3.5,34.1-5.3,64.8-4.8s50.8,2.7,64.7,6.6l-4,289.8c-7.4,4-19.7,5.5-38.6,5.2s-31.1-2-38.4-6.2Z" fill="#96daea"/><path d="M8633.4,1744.3l-3,217.7c-8.7,4.4-23.9,6.7-45.2,6.4s-36-3-44.6-7.6l3-217.7-75.8-1c-3.6-7.1-5.4-23.1-5.2-37.8s2.4-30.3,6.2-37.3l241.5,3.4c3.6,7,5.4,22.2,5.2,37.3s-2.5,30.8-6.2,37.7Z" fill="#96daea"/><path d="M932.4,5625.7s-.5-69.2,32.2-206.2L744.8,5521l-47.5,131.6Z" fill="#ffa168"/><path d="M1359.5,5625.8s.5-69.2-32.2-206.3l219.8,101.7,47.4,131.6Z" fill="#ffa168"/><path d="M1011.7,6165.4c28.3-52.1,68.9-116.7,114.5-188.3-48-75.3-64-97.9-96.6-151.9-60.2,102.4-104.6,179.9-117,224.2Z" fill="#fbcf63"/><path d="M1144.7,5107.4c-48.1,29-65.7,114.9-71.8,183.5-2.4,26.1-3.3,51.6-3.4,74.3,17.1-71.9,44.6-114.8,76.1-114.8s59.6,41.9,76.7,114.4c-.3-22.2-1.3-47.2-3.8-72.7-6.9-69.1-23.4-155.5-70.5-184.6" fill="#ffa168"/><path d="M1049.8,5438.2c-2.3-24.4-4.1-84.5,1.7-148.6,3.4-38.1,9.3-71.5,17.6-99.5-59.7,126-108,354.1-108.1,439.9,0,61.2,226.2,377.9,312,536.3l99.1-115.9C1341.6,5940.2,1051.1,5514.5,1049.8,5438.2Z" fill="#96daea"/><path d="M1222.4,5190c8.2,28.3,14.1,62.2,17.5,101,5.5,63,3.9,122.6,1.8,147.1-.2,25.1-35.8,95-80.1,173.3,41.5,72.8,62.4,108.8,96.8,166.1,36.4-61.4,71.9-127,71.9-147.3C1330.4,5544.4,1282,5315.9,1222.4,5190Z" fill="#fbcf63"/><path d="M627.8,6795.6H602l-5.1,15.7c-1.7,1-4.5,1.4-7.9,1.4s-6.2-.5-7.8-1.4l24.7-71.2a36,36,0,0,1,9.2-1.1,36.9,36.9,0,0,1,9.3,1.1l24.5,71.2c-1.5.9-4.1,1.4-8,1.4s-6.2-.5-8-1.4Zm-3.9-12.6-3.9-12a133,133,0,0,1-4.7-20.9h-.8a147.2,147.2,0,0,1-4.9,21.2l-3.8,11.7Z" fill="#ffa168"/><path d="M688.2,6806.2c-2.3,4.6-7.1,8.1-16.1,8.1s-16.9-2.7-16.9-19.7v-31.1c3.5-1.9,8.4-3,14.8-3v31.6c0,5.5,1.7,8.6,7.6,8.6a12,12,0,0,0,9.8-4.4v-34a18.3,18.3,0,0,1,7.5-1.2c3.6,0,6,.5,7.3,1.2V6811c-2.6,1.5-6.8,2.3-11.5,2.3l-1.7-7.1Z" fill="#ffa168"/><path d="M746.9,6761.5a17.2,17.2,0,0,1,.9,6.3,16.8,16.8,0,0,1-.9,6.3H733.4v19.2c0,4.9,1.4,7.5,6.9,7.5a16.2,16.2,0,0,0,9.3-2.8c.5,4.3-1.1,10.3-3.2,13s-6.5,3.3-11.6,3.3c-12.6,0-16.2-7.5-16.2-18.7v-21.5h-7.9a37.8,37.8,0,0,1,2-12.6h5.9v-11c3.6-2.7,9-4,14.8-4.1v15.1Z" fill="#ffa168"/><path d="M774.7,6743.8c0,6.1-3.6,9.3-8.9,9.3s-9-3.1-9-9.2,3.8-8.8,9-8.8S774.7,6738.2,774.7,6743.8Zm-16.3,18.5c1.4-.7,3.8-1.2,7.4-1.2s6,.5,7.3,1.2v49.2c-1.3.7-3.7,1.2-7.3,1.2s-6-.5-7.4-1.2Z" fill="#ffa168"/><path d="M801.6,6802.9c5.2,0,7.3-1.6,7.3-4.7,0-8-23.3-4.1-23.3-22.2,0-10.4,6.6-16.5,19-16.5,5.1,0,10.5,1,14.5,3.4a22.9,22.9,0,0,1,2.4,12.6,30.1,30.1,0,0,0-15.3-4.7c-4.4,0-5.7,1.4-5.7,3.8,0,7.6,23.4,3.8,23.4,21.9,0,13-9.1,17.8-21.8,17.8-5.3,0-11.1-.8-15.5-2.8-2.1-3.5-2.9-9.7-2.2-13.2C788.6,6801,796,6802.9,801.6,6802.9Z" fill="#ffa168"/><path d="M849.5,6811.5c-1.4.7-3.8,1.2-7.4,1.2s-6-.5-7.4-1.2v-48.7c2.7-1.5,7.1-2.3,12-2.3l.8,8.3h.9c2.3-5,7.3-9.3,16.5-9.3,6,0,12,1.7,14.8,8.8h.8c2.1-4.8,7.1-8.8,16.2-8.8s16.6,2.7,16.6,19.5v32.5c-1.3.7-3.7,1.2-7.3,1.2s-6-.5-7.4-1.2v-29.8c0-5.3-1.8-8.7-7.6-8.7a10.6,10.6,0,0,0-9.8,5.8c.1.9.2,3.1.2,5.2v27.5c-1.3.7-3.7,1.2-7.2,1.2s-6-.5-7.4-1.2v-29.8c0-5.3-1.7-8.7-7.5-8.7a10.5,10.5,0,0,0-9.8,5.8Z" fill="#ffa168"/><path d="M1012.7,6751.7h-.8a138.3,138.3,0,0,1-4.9,20.4l-12.1,39.8c-1.6.7-3.9,1-7.5,1s-5.7-.3-7.2-1l-12.6-40.3a141.8,141.8,0,0,1-4.5-19.9h-.8v59.9c-1.4.8-3.6,1.1-6.9,1.1s-5.4-.3-6.8-1.1v-71.1a47.4,47.4,0,0,1,11.4-1.1,46.6,46.6,0,0,1,11.5,1.1l11.7,37.5a112.7,112.7,0,0,1,4.3,20.1h.8a166,166,0,0,1,4-19.9l11.3-37.7a46.6,46.6,0,0,1,11.5-1.1,47.4,47.4,0,0,1,11.4,1.1v71.1c-1.4.8-3.6,1.1-6.8,1.1s-5.5-.3-7-1.1Z" fill="#ffa168"/><path d="M1054.6,6791.7c.6,7.1,5.7,10.6,15.8,10.6a39.6,39.6,0,0,0,15.9-3.1,17.4,17.4,0,0,1-3.7,11.6c-3.3,1.9-9,3.5-16.1,3.5-17.8,0-27.3-10.3-27.3-26.8s10.2-28,26.2-28,21.7,9.1,21.7,22.6a32.2,32.2,0,0,1-1.5,9.6Zm18.6-10.7c.9-5.3-1.1-10.5-8.4-10.5s-10.2,4-10.6,10.5Z" fill="#ffa168"/><path d="M1130,6739.2c3.4-2,8.2-3,14.8-3V6811a24.5,24.5,0,0,1-11,2.3l-2-7h-.8c-2.7,5.3-8.6,8-15.4,8-13.8,0-20.3-10.3-20.3-25.5,0-18.6,9.8-29.3,25.2-29.3a22.4,22.4,0,0,1,9.5,1.8Zm.2,34.4a14.7,14.7,0,0,0-6.4-1.3c-9.2,0-13.3,6.2-13.3,15.5s3.7,13.2,10.4,13.2c4.5,0,7.2-2.1,9.3-3.8Z" fill="#ffa168"/><path d="M1175.6,6743.8c0,6.1-3.6,9.3-8.9,9.3s-9-3.1-9-9.2,3.8-8.8,9-8.8S1175.6,6738.2,1175.6,6743.8Zm-16.3,18.5c1.4-.7,3.8-1.2,7.4-1.2s6,.5,7.4,1.2v49.2c-1.4.7-3.8,1.2-7.4,1.2s-6-.5-7.4-1.2Z" fill="#ffa168"/><path d="M1215.5,6801.2a28.4,28.4,0,0,0,12.8-3c.7,4.1-1.2,10.4-3.9,13.3a31.8,31.8,0,0,1-13.7,2.8c-16.5,0-25.5-10.1-25.5-26.7,0-19,11.4-28.1,26.9-28.1,5,0,9.5.9,12.5,2.7s3.3,9,2.6,13.2a21,21,0,0,0-11.7-3.2c-9.2,0-15.1,4.1-15.1,14.4S1206.3,6801.2,1215.5,6801.2Z" fill="#ffa168"/><path d="M1265.8,6807c-2.3,4.5-7,7.3-14.1,7.3-9,0-16.7-4.5-16.7-16.3s9-17.2,20.8-17.2a31.2,31.2,0,0,1,9.3,1.3v-1.4c0-6.3-3.1-8.5-9.8-8.5a32.4,32.4,0,0,0-16.3,4.3c-1.3-4-.8-10.3,1.6-13.7s10-3.3,17.5-3.3c14.7,0,21.8,5.2,21.8,20.2v17.7c0,3.2,1.4,3.9,3.4,3.9a7.2,7.2,0,0,0,4.4-1.3,21.3,21.3,0,0,1-2.6,12,15.5,15.5,0,0,1-8.5,2.3c-5.9,0-9-2.5-10-7.3Zm-.4-15.1a18.5,18.5,0,0,0-6.7-1.2c-6,0-8.9,2.4-8.9,6.3s2.9,5.4,7,5.4,6.5-1,8.6-3.6Z" fill="#ffa168"/><path d="M1308.1,6814.3c-10.2,0-13.2-6.6-13.2-15.7v-59.4c3.4-2,8.2-3,14.8-3v60c0,3.8,1.3,4.9,4.3,4.9a10.6,10.6,0,0,0,6.2-1.9c.4,4.3-.9,9.8-2.9,12.8A17.6,17.6,0,0,1,1308.1,6814.3Z" fill="#ffa168"/><path d="M1379.9,6753.3v58.1c-1.5.8-4,1.3-7.7,1.3s-6.2-.5-7.7-1.3v-58.1H1344a16.9,16.9,0,0,1-1.2-6.8,16,16,0,0,1,1.2-6.7h56.4a18.1,18.1,0,0,1,1.1,6.7,19.2,19.2,0,0,1-1.1,6.8Z" fill="#ffa168"/><path d="M1427.6,6759.5a10.8,10.8,0,0,1,4.8.9,17.3,17.3,0,0,1,2.2,9.3,15.9,15.9,0,0,1-1,6.2,12.7,12.7,0,0,0-7-1.8c-5.2,0-9.1,3.6-11,8.9v28.5c-1.3.7-3.8,1.2-7.4,1.2s-6-.5-7.4-1.2v-48.7c2.7-1.5,7-2.3,11.9-2.3l1.1,9.4h.8C1416,6764.2,1419.3,6759.5,1427.6,6759.5Z" fill="#ffa168"/><path d="M1467.3,6807c-2.2,4.5-7,7.3-14.1,7.3-8.9,0-16.7-4.5-16.7-16.3s9-17.2,20.8-17.2a31.2,31.2,0,0,1,9.3,1.3v-1.4c0-6.3-3.1-8.5-9.8-8.5a32.7,32.7,0,0,0-16.3,4.3c-1.2-4-.7-10.3,1.6-13.7s10-3.3,17.6-3.3c14.7,0,21.7,5.2,21.7,20.2v17.7c0,3.2,1.4,3.9,3.5,3.9a7.6,7.6,0,0,0,4.4-1.3,21.3,21.3,0,0,1-2.7,12,15.3,15.3,0,0,1-8.5,2.3c-5.9,0-8.9-2.5-10-7.3Zm-.4-15.1a18.1,18.1,0,0,0-6.7-1.2c-5.9,0-8.9,2.4-8.9,6.3s3,5.4,7,5.4,6.6-1,8.6-3.6Z" fill="#ffa168"/><path d="M1516.8,6801.3a93.9,93.9,0,0,1,3-13.2l7.7-26.3a17.1,17.1,0,0,1,6.1-.9c4.2,0,7.1.8,8.9,2l-16.1,48.4c-5.4,1.5-13,2-20.2,2l-16.7-50.4c1.8-1.2,4.7-2,8.9-2a17.8,17.8,0,0,1,6.2.9l8.2,26.3a90.9,90.9,0,0,1,3.2,13.2Z" fill="#ffa168"/><path d="M1561.5,6791.7c.6,7.1,5.7,10.6,15.8,10.6a38.9,38.9,0,0,0,15.9-3.1,17.8,17.8,0,0,1-3.6,11.6c-3.4,1.9-9.1,3.5-16.2,3.5-17.8,0-27.3-10.3-27.3-26.8s10.2-28,26.2-28,21.8,9.1,21.8,22.6a32.2,32.2,0,0,1-1.6,9.6Zm18.7-10.7c.8-5.3-1.1-10.5-8.5-10.5s-10.2,4-10.6,10.5Z" fill="#ffa168"/><path d="M1618.4,6814.3c-10.2,0-13.2-6.6-13.2-15.7v-59.4c3.4-2,8.2-3,14.8-3v60c0,3.8,1.3,4.9,4.3,4.9a10.6,10.6,0,0,0,6.2-1.9c.4,4.3-.9,9.8-2.9,12.8A17.6,17.6,0,0,1,1618.4,6814.3Z" fill="#ffa168"/><path d="M708.7,6348.3c6.2-20.5,20.5-27.7,37.2-27.4l68.1.9c16.6.2,30.7,7.8,36.3,28.4l81.2,297.2c6.1,22.6-7.2,27.8-21.4,27.6l-46.6-.6c-16.6-.3-25.4-7.7-30.5-28.9l-11.1-48.2-95-1.3L715,6643.9c-5.2,21-14.6,28.2-31.3,28l-43.6-.6c-14.2-.2-27.4-5.8-20.7-28.2Zm95.7,171.4-26.8-120h-1l-30.5,119.2Z" fill="#96daea"/><path d="M974.8,6352.9c.3-20.5,13.6-28.7,29.3-28.5l71,1c16.7.2,25.9,7.7,31,28.4l50.6,203.1h1l58.6-201.6c6.2-20.5,15.6-27.7,32.3-27.5l69.5,1c15.7.2,28.8,8.7,28.5,29.3l-4,293.9c-.3,25.5-13.6,28.8-29.3,28.5l-30.4-.4c-15.7-.2-28.8-3.8-28.5-29.3l2.7-193.5h-1l-53.6,193.8c-5.7,20.5-15.1,27.7-31.8,27.5l-28.9-.4c-16.6-.2-25.9-7.7-31-28.4l-48.2-195.2h-1l-2.7,193.5c-.3,25.5-13.6,28.8-29.3,28.5l-30.4-.4c-15.6-.2-28.8-3.8-28.5-29.3Z" fill="#96daea"/><path d="M1471.4,6408.8l-59.3-.8c-25.5-.4-28.7-13.7-28.5-29.3l.3-20.1c.2-15.7,3.8-28.9,29.3-28.5l214.1,2.9c25.5.4,28.7,13.6,28.5,29.3l-.3,20.1c-.2,15.7-3.8,28.9-29.3,28.5l-59.3-.8-3.3,245c-.4,25.5-13.7,28.7-29.3,28.5l-37.8-.5c-15.6-.2-28.8-4.3-28.5-29.3Z" fill="#96daea"/><path d="M3058.7,6348.3c6.2-20.5,20.5-27.7,37.2-27.4l68.1.9c16.6.2,30.7,7.8,36.3,28.4l81.2,297.2c6.1,22.6-7.2,27.8-21.4,27.6l-46.6-.6c-16.6-.3-25.4-7.7-30.5-28.9l-11.1-48.2-95-1.3-11.9,47.9c-5.2,21-14.6,28.2-31.3,28l-43.6-.6c-14.2-.2-27.4-5.8-20.7-28.2Zm95.7,171.4-26.8-120h-1l-30.5,119.2Z" fill="#96daea"/><path d="M3324.8,6352.9c.3-20.5,13.6-28.7,29.3-28.5l71,1c16.7.2,25.9,7.7,31,28.4l50.6,203.1h1l58.6-201.6c6.2-20.5,15.6-27.7,32.3-27.5l69.5,1c15.7.2,28.8,8.7,28.5,29.3l-4,293.9c-.3,25.5-13.6,28.8-29.3,28.5l-30.4-.4c-15.7-.2-28.8-3.8-28.5-29.3l2.7-193.5h-1l-53.6,193.8c-5.7,20.5-15.1,27.7-31.8,27.5l-28.9-.4c-16.6-.2-25.9-7.7-31-28.4l-48.2-195.2h-1l-2.7,193.5c-.3,25.5-13.6,28.8-29.3,28.5l-30.4-.4c-15.6-.2-28.8-3.8-28.5-29.3Z" fill="#96daea"/><path d="M3821.4,6408.8l-59.3-.8c-25.5-.4-28.7-13.7-28.5-29.3l.3-20.1c.2-15.7,3.8-28.9,29.3-28.5l214.1,2.9c25.5.4,28.7,13.6,28.5,29.3l-.3,20.1c-.2,15.7-3.8,28.9-29.3,28.5l-59.3-.8-3.3,245c-.4,25.5-13.7,28.7-29.3,28.5l-37.8-.5c-15.6-.2-28.8-4.3-28.5-29.3Z" fill="#96daea"/><path d="M5429.7,6348.3c6.2-20.5,20.5-27.7,37.2-27.4l68.1.9c16.6.2,30.7,7.8,36.3,28.4l81.2,297.2c6.1,22.6-7.2,27.8-21.4,27.6l-46.6-.6c-16.6-.3-25.4-7.7-30.5-28.9l-11.1-48.2-95-1.3-11.9,47.9c-5.2,21-14.6,28.2-31.3,28l-43.6-.6c-14.2-.2-27.4-5.8-20.7-28.2Zm95.7,171.4-26.8-120h-1l-30.5,119.2Z" fill="#96daea"/><path d="M5695.8,6352.9c.3-20.5,13.6-28.7,29.3-28.5l71,1c16.7.2,25.9,7.7,31,28.4l50.6,203.1h1l58.6-201.6c6.2-20.5,15.6-27.7,32.3-27.5l69.5,1c15.7.2,28.8,8.7,28.5,29.3l-4,293.9c-.3,25.5-13.6,28.8-29.3,28.5l-30.4-.4c-15.7-.2-28.8-3.8-28.5-29.3l2.7-193.5h-1l-53.6,193.8c-5.7,20.5-15.1,27.7-31.8,27.5l-28.9-.4c-16.6-.2-25.9-7.7-31-28.4l-48.2-195.2h-1l-2.7,193.5c-.3,25.5-13.6,28.8-29.3,28.5l-30.4-.4c-15.6-.2-28.8-3.8-28.5-29.3Z" fill="#96daea"/><path d="M6192.4,6408.8l-59.3-.8c-25.5-.4-28.7-13.7-28.5-29.3l.3-20.1c.2-15.7,3.8-28.9,29.3-28.5l214.1,2.9c25.5.4,28.7,13.6,28.5,29.3l-.3,20.1c-.2,15.7-3.8,28.9-29.3,28.5l-59.3-.8-3.3,245c-.4,25.5-13.7,28.7-29.3,28.5l-37.8-.5c-15.6-.2-28.8-4.3-28.5-29.3Z" fill="#96daea"/><path d="M7812.7,6348.3c6.2-20.5,20.5-27.7,37.2-27.4l68.1.9c16.6.2,30.7,7.8,36.3,28.4l81.2,297.2c6.1,22.6-7.2,27.8-21.4,27.6l-46.6-.6c-16.6-.3-25.4-7.7-30.5-28.9l-11.1-48.2-95-1.3-11.9,47.9c-5.2,21-14.6,28.2-31.3,28l-43.6-.6c-14.2-.2-27.4-5.8-20.7-28.2Zm95.7,171.4-26.8-120h-1l-30.5,119.2Z" fill="#96daea"/><path d="M8078.8,6352.9c.3-20.5,13.6-28.7,29.3-28.5l71,1c16.7.2,25.9,7.7,31,28.4l50.6,203.1h1l58.6-201.6c6.2-20.5,15.6-27.7,32.3-27.5l69.5,1c15.7.2,28.8,8.7,28.5,29.3l-4,293.9c-.3,25.5-13.6,28.8-29.3,28.5l-30.4-.4c-15.7-.2-28.8-3.8-28.5-29.3l2.7-193.5h-1l-53.6,193.8c-5.7,20.5-15.1,27.7-31.8,27.5l-28.9-.4c-16.6-.2-25.9-7.7-31-28.4l-48.2-195.2h-1l-2.7,193.5c-.3,25.5-13.6,28.8-29.3,28.5l-30.4-.4c-15.6-.2-28.8-3.8-28.5-29.3Z" fill="#96daea"/><path d="M8575.4,6408.8l-59.3-.8c-25.5-.4-28.7-13.7-28.5-29.3l.3-20.1c.2-15.7,3.8-28.9,29.3-28.5l214.1,2.9c25.5.4,28.7,13.6,28.5,29.3l-.3,20.1c-.2,15.7-3.8,28.9-29.3,28.5l-59.3-.8-3.3,245c-.4,25.5-13.7,28.7-29.3,28.5l-37.8-.5c-15.6-.2-28.8-4.3-28.5-29.3Z" fill="#96daea"/><path d="M8026.4,3271.7s-.5-69.2,32.2-206.2L7838.8,3167l-47.5,131.6Z" fill="#ffa168"/><path d="M8453.5,3271.8s.5-69.2-32.2-206.3l219.8,101.7,47.4,131.6Z" fill="#ffa168"/><path d="M8105.7,3811.4c28.3-52.1,68.9-116.7,114.5-188.3-48-75.3-64-97.9-96.6-151.9-60.2,102.4-104.6,179.9-117,224.2Z" fill="#fbcf63"/><path d="M8238.7,2753.4c-48.1,29-65.7,114.9-71.8,183.5-2.4,26.1-3.3,51.6-3.4,74.3,17.1-71.9,44.6-114.8,76.1-114.8s59.6,41.9,76.7,114.4c-.3-22.2-1.3-47.2-3.8-72.7-6.9-69.1-23.4-155.5-70.5-184.6" fill="#ffa168"/><path d="M8143.8,3084.2c-2.3-24.4-4.1-84.5,1.7-148.6,3.4-38.1,9.3-71.5,17.6-99.5-59.7,126-108,354.1-108.1,439.9,0,61.2,226.2,377.9,312,536.3l99.1-115.9C8435.6,3586.2,8145.1,3160.5,8143.8,3084.2Z" fill="#96daea"/><path d="M8316.4,2836c8.2,28.3,14.1,62.2,17.5,101,5.5,63,3.9,122.6,1.8,147.1-.2,25.1-35.8,95-80.1,173.3,41.5,72.8,62.4,108.8,96.8,166.1,36.4-61.4,71.9-127,71.9-147.3C8424.4,3190.4,8376,2961.9,8316.4,2836Z" fill="#fbcf63"/><path d="M7676.9,4454.2l23.7-61.7c1-2.9,3.3-4.7,10.5-4.7s9.3,1.8,10.3,4.7l24.3,61.6c.5,1.3-3.9,4.9-8.7,4.9s-7-1.8-9.1-7.5l-4.2-10.9h-25.4l-4.4,11.1c-1.9,5.5-5.3,7.3-8.6,7.3S7676.4,4455.6,7676.9,4454.2Zm43.4-25.6-9.5-25.4-9.5,25.4Z" fill="#ffa168"/><path d="M7803.6,4412.4V4457c0,.5-2.7,1.7-5.7,1.7s-6.8-1.2-8.6-5.7a19.2,19.2,0,0,1-.5-2.9c-3.7,5.5-9.1,9.6-17.4,9.6-13.7,0-19.4-9.6-19.4-21.8v-25.5c0-5.5,2.8-7.4,6.5-7.4h1.8c4,0,6.8,1.8,6.8,7.4v23.2c0,7.1,3.7,11.3,9.9,11.3a12.9,12.9,0,0,0,11.5-6.9v-27.6c0-5.5,2.7-7.4,6.6-7.4h1.6C7800.8,4405,7803.6,4406.8,7803.6,4412.4Z" fill="#ffa168"/><path d="M7819.7,4441.7v-24.2H7817c-4.3,0-6.3-2-6.3-5.4v-.9c0-3.6,2-5.6,6.2-5.6h2.8v-6.7c0-5,2.5-7.4,6.8-7.4h1.4c4,0,6.7,1.8,6.7,7.4v6.7h9.2c4.3,0,6.1,1.8,6.1,5.3v.9c0,3.7-1.9,5.7-6.2,5.7h-9.3v22.4c0,5.2,1.6,7.8,5.8,7.8a7.6,7.6,0,0,0,6.6-3.6c.6-.2,3.8,2,3.8,6a7.8,7.8,0,0,1-2.6,5.8c-2.4,2.4-6.3,3.9-11.3,3.9C7825.1,4459.8,7819.7,4453.6,7819.7,4441.7Z" fill="#ffa168"/><path d="M7866.2,4381.5c5.2,0,8.5,3,8.5,7.9s-3.1,7.9-8.5,7.9-8.6-3.1-8.6-7.9S7860.9,4381.5,7866.2,4381.5Zm-7.7,30.9c0-5.5,2.9-7.4,6.8-7.4h1.6c4,0,6.8,1.8,6.8,7.4v39.1c0,5.5-2.8,7.2-6.8,7.2h-1.5c-4.1,0-6.9-1.6-6.9-7.2Z" fill="#ffa168"/><path d="M7882,4447.9c0-3.9,4.2-6.4,4.7-6,3.5,4,9.6,7.1,17.4,7.1,5.9,0,9.2-2.1,9.2-5.4s-4.3-4.9-11.3-6.4-18.5-3.9-18.5-15.7c0-10.3,8.4-17.1,22-17.1,10.7,0,17.3,2.9,20,7a8.3,8.3,0,0,1,1.3,4.3c0,4-4.7,6.7-4.9,6.4a21,21,0,0,0-15.4-7.1c-5.9,0-9,2.1-9,5.5s4.1,4.5,11.2,6.1,19.4,4,19.4,15.9-8.5,17-23.3,17c-8.3,0-14.3-1.6-18.1-4S7882,4450.8,7882,4447.9Z" fill="#ffa168"/><path d="M8021.6,4425.3v26.2c0,5.5-2.8,7.2-6.7,7.2h-1.6c-4.1,0-6.9-1.6-6.9-7.2v-23.8c0-6.9-3-10.6-9.2-10.6-4.3,0-8.2,2.7-10.4,6.5v27.9c0,5.5-2.8,7.2-6.7,7.2h-1.6c-4,0-6.9-1.6-6.9-7.2V4428c0-7.2-3-10.9-9.1-10.9a12.1,12.1,0,0,0-10.3,6.5v27.9c0,5.5-2.9,7.2-6.7,7.2h-1.7c-4.1,0-6.9-1.6-6.9-7.2v-44.7c0-.6,2.7-1.8,5.7-1.8s7.9,1.7,9.1,8.7c3.6-5.3,8.7-9.3,16.3-9.3s14.3,4.2,16.9,10.8c3.6-6.1,9-10.8,17.7-10.8C8016,4404.4,8021.6,4412.9,8021.6,4425.3Z" fill="#ffa168"/><path d="M8051.4,4396c0-5.2,3-8,7.9-8h4.4c4.9,0,6.4,1.5,8.3,5.7l14.1,32.9,14.3-32.9c1.8-4.4,3.6-5.7,8.1-5.7h4.2c5.1,0,8.1,2.8,8.1,8v55.5c0,4.7-1.8,7.2-6.4,7.2h-2.3c-4.5,0-6.3-2.5-6.3-7.2v-41.7l-11.7,28.4c-1.2,2.7-1.8,5-8.1,5s-6.7-2.3-8-5l-11.5-27.9v41.2c0,4.7-1.8,7.2-6.3,7.2h-2.6c-4.3,0-6.2-2.5-6.2-7.2Z" fill="#ffa168"/><path d="M8157.4,4404.4c15.7,0,26.3,10.9,26.3,26.3v1c-.1,2.6-.9,4-3.7,4h-36.5l.3,1.7c1.6,7,7.4,11.4,15.1,11.4s12.5-3.5,14.9-7.7c.1-.2,7.4.4,7.4,6.5,0,2.9-2,5.9-5.8,8.2s-9.5,4-16.9,4c-17.2,0-28.4-10.7-28.4-27.4S8141.6,4404.4,8157.4,4404.4Zm-.1,10.5c-7.2,0-12.6,5.2-13.6,12.5h25.9C8169.2,4419.7,8164.6,4414.9,8157.3,4414.9Z" fill="#ffa168"/><path d="M8189.5,4432c0-16.7,10-27.6,24.6-27.6,7.5,0,13.6,3.5,16.6,8V4385c0-.5,2.7-1.8,5.7-1.8,4.6,0,9.5,2.4,9.5,12.2v56.1c0,5.5-2.7,7.2-6.7,7.2h-1.5c-3.4,0-6-1.2-6.6-5.3-.1-1.2-.2-2.3-.2-3.6-3.6,6.1-9.4,10-17.2,10C8199.5,4459.8,8189.5,4448.6,8189.5,4432Zm41.3-7c-2.3-5.2-6.6-8.4-13.1-8.4-8.2,0-13.7,5.9-13.7,15.4s5.6,15.6,13.5,15.6,13.3-5.1,13.3-12.6Z" fill="#ffa168"/><path d="M8265.8,4381.5c5.3,0,8.5,3,8.5,7.9s-3.1,7.9-8.5,7.9-8.5-3.1-8.5-7.9S8260.5,4381.5,8265.8,4381.5Zm-7.7,30.9c0-5.5,2.9-7.4,6.8-7.4h1.7c4,0,6.8,1.8,6.8,7.4v39.1c0,5.5-2.8,7.2-6.8,7.2H8265c-4.1,0-6.9-1.6-6.9-7.2Z" fill="#ffa168"/><path d="M8310,4404.4c8.1,0,13.7,2.4,17.3,5.3s5.2,6.5,5.2,9.1c0,6.1-8.2,7.3-8.6,6.7-2-5.1-5.8-8.8-13.3-8.8s-14.2,6.4-14.2,15.2,5.9,15.6,14.2,15.6,11.3-3.7,13.3-8.8c.4-.6,8.6.3,8.6,6.8,0,2.5-1.7,6.1-5.3,8.9s-9.3,5.4-17.2,5.4c-16.2,0-27.6-11.4-27.6-27.9S8294,4404.4,8310,4404.4Z" fill="#ffa168"/><path d="M8371.8,4426.9h1.7a8.1,8.1,0,0,0-.1-1.6c-.2-6.1-4-9.5-10.7-9.5s-11.1,3.7-13,7.7c-.1.2-9.8,1-9.8-6a9.4,9.4,0,0,1,3.3-6.9c3.5-3.7,10.3-6.2,20.5-6.2,16.7,0,24.8,7.7,24.8,21.8v31.1c0,.8-2.8,1.7-5.7,1.7s-6.6-1.5-8-5a24.5,24.5,0,0,1-.8-3.6c-3.7,5.7-10.4,9.1-18.3,9.1-11,0-17.7-6.1-17.7-15.1C8338,4432.6,8349.4,4427.2,8371.8,4426.9Zm1.7,7.6h-2.9c-12,.5-18.4,2.7-18.4,8.7,0,4,3.2,6.4,8.2,6.4,7.6,0,13-4.6,13.1-11.3Z" fill="#ffa168"/><path d="M8399.8,4451.5V4385c0-.5,2.7-1.8,5.7-1.8,4.5,0,9.5,2.4,9.5,12.2v56.1c0,5.5-2.8,7.2-6.7,7.2h-1.6C8402.7,4458.7,8399.8,4457.1,8399.8,4451.5Z" fill="#ffa168"/><path d="M8460.8,4402.3H8445c-4.7,0-7.3-2.3-7.3-6.8v-.5c0-4.3,2.6-6.6,7.3-6.6h47.3c4.8,0,7.3,2.3,7.3,6.6v.5c0,4.5-2.5,6.8-7.3,6.8h-15.5v49.2c0,4.7-2.6,7.2-7.1,7.2h-2.3c-4.3,0-6.6-2.5-6.6-7.2Z" fill="#ffa168"/><path d="M8541.5,4413.3c0,6-4.6,8.2-4.8,7.9a10.8,10.8,0,0,0-7-2.5c-7.3,0-10.5,6.4-10.5,17v15.8c0,5.5-2.9,7.2-6.7,7.2h-1.7c-4.1,0-6.9-1.6-6.9-7.2v-44.7c0-.6,2.6-1.8,5.8-1.8a8.5,8.5,0,0,1,8.3,5.8,23,23,0,0,1,.7,3.6c2.1-6.2,6.5-10,13.1-10S8541.5,4407.9,8541.5,4413.3Z" fill="#ffa168"/><path d="M8578.6,4426.9h1.7a8.1,8.1,0,0,0-.1-1.6c-.2-6.1-4-9.5-10.7-9.5s-11.1,3.7-13,7.7c-.1.2-9.8,1-9.8-6a9.4,9.4,0,0,1,3.3-6.9c3.5-3.7,10.3-6.2,20.5-6.2,16.7,0,24.8,7.7,24.8,21.8v31.1c0,.8-2.8,1.7-5.7,1.7s-6.6-1.5-8-5q-.5-1.5-.9-3.6c-3.6,5.7-10.3,9.1-18.2,9.1-11,0-17.7-6.1-17.7-15.1C8544.8,4432.6,8556.2,4427.2,8578.6,4426.9Zm1.7,7.6h-2.9c-12,.5-18.4,2.7-18.4,8.7,0,4,3.2,6.4,8.2,6.4,7.6,0,13-4.6,13.1-11.3Z" fill="#ffa168"/><path d="M8600.5,4409.5c-.2-.9,3.8-4.6,8.3-4.6s6.7,1.8,8.7,7.9l10.6,31,11-31c1.9-6.1,5.1-7.9,8.3-7.9,4.7,0,8.5,3.7,8.2,4.6l-18.9,45.4c-1.3,3.2-5.1,4-8.5,4s-7.3-.7-8.6-3.9Z" fill="#ffa168"/><path d="M8685.7,4404.4c15.6,0,26.2,10.9,26.2,26.3v1c-.1,2.6-.9,4-3.7,4h-36.5l.3,1.7c1.7,7,7.4,11.4,15.2,11.4s12.4-3.5,14.8-7.7c.1-.2,7.4.4,7.4,6.5,0,2.9-2,5.9-5.8,8.2s-9.5,4-16.9,4c-17.1,0-28.4-10.7-28.4-27.4S8669.8,4404.4,8685.7,4404.4Zm-.2,10.5c-7.2,0-12.6,5.2-13.6,12.5h26C8697.4,4419.7,8692.8,4414.9,8685.5,4414.9Z" fill="#ffa168"/><path d="M8720.8,4451.5V4385c0-.5,2.7-1.8,5.7-1.8,4.5,0,9.5,2.4,9.5,12.2v56.1c0,5.5-2.8,7.2-6.7,7.2h-1.6C8723.7,4458.7,8720.8,4457.1,8720.8,4451.5Z" fill="#ffa168"/><path d="M7684.9,6811.2l23.7-61.7c1-2.9,3.3-4.7,10.5-4.7s9.3,1.8,10.3,4.7l24.3,61.6c.5,1.3-3.9,4.9-8.7,4.9s-7-1.8-9.1-7.5l-4.2-10.9h-25.4l-4.4,11.1c-1.9,5.5-5.3,7.3-8.6,7.3S7684.4,6812.6,7684.9,6811.2Zm43.4-25.6-9.5-25.4-9.5,25.4Z" fill="#ffa168"/><path d="M7811.6,6769.4V6814c0,.5-2.7,1.7-5.7,1.7s-6.8-1.2-8.6-5.7a19.2,19.2,0,0,1-.5-2.9c-3.7,5.5-9.1,9.6-17.4,9.6-13.7,0-19.4-9.6-19.4-21.8v-25.5c0-5.5,2.8-7.4,6.5-7.4h1.8c4,0,6.8,1.8,6.8,7.4v23.2c0,7.1,3.7,11.3,9.9,11.3a12.9,12.9,0,0,0,11.5-6.9v-27.6c0-5.5,2.7-7.4,6.6-7.4h1.6C7808.8,6762,7811.6,6763.8,7811.6,6769.4Z" fill="#ffa168"/><path d="M7827.7,6798.7v-24.2H7825c-4.3,0-6.3-2-6.3-5.4v-.9c0-3.6,2-5.6,6.2-5.6h2.8v-6.7c0-5,2.5-7.4,6.8-7.4h1.4c4,0,6.7,1.8,6.7,7.4v6.7h9.2c4.3,0,6.1,1.8,6.1,5.3v.9c0,3.7-1.9,5.7-6.2,5.7h-9.3v22.4c0,5.2,1.6,7.8,5.8,7.8a7.6,7.6,0,0,0,6.6-3.6c.6-.2,3.8,2,3.8,6a7.8,7.8,0,0,1-2.6,5.8c-2.4,2.4-6.3,3.9-11.3,3.9C7833.1,6816.8,7827.7,6810.6,7827.7,6798.7Z" fill="#ffa168"/><path d="M7874.2,6738.5c5.2,0,8.5,3,8.5,7.9s-3.1,7.9-8.5,7.9-8.6-3.1-8.6-7.9S7868.9,6738.5,7874.2,6738.5Zm-7.7,30.9c0-5.5,2.9-7.4,6.8-7.4h1.6c4,0,6.8,1.8,6.8,7.4v39.1c0,5.5-2.8,7.2-6.8,7.2h-1.5c-4.1,0-6.9-1.6-6.9-7.2Z" fill="#ffa168"/><path d="M7890,6804.9c0-3.9,4.2-6.4,4.7-6,3.5,4,9.6,7.1,17.4,7.1,5.9,0,9.2-2.1,9.2-5.4s-4.3-4.9-11.3-6.4-18.5-3.9-18.5-15.7c0-10.3,8.4-17.1,22-17.1,10.7,0,17.3,2.9,20,7a8.3,8.3,0,0,1,1.3,4.3c0,4-4.7,6.7-4.9,6.4a21,21,0,0,0-15.4-7.1c-5.9,0-9,2.1-9,5.5s4.1,4.5,11.2,6.1,19.4,4,19.4,15.9-8.5,17-23.3,17c-8.3,0-14.3-1.6-18.1-4S7890,6807.8,7890,6804.9Z" fill="#ffa168"/><path d="M8029.6,6782.3v26.2c0,5.5-2.8,7.2-6.7,7.2h-1.6c-4.1,0-6.9-1.6-6.9-7.2v-23.8c0-6.9-3-10.6-9.2-10.6-4.3,0-8.2,2.7-10.4,6.5v27.9c0,5.5-2.8,7.2-6.7,7.2h-1.6c-4,0-6.9-1.6-6.9-7.2V6785c0-7.2-3-10.9-9.1-10.9a12.1,12.1,0,0,0-10.3,6.5v27.9c0,5.5-2.9,7.2-6.7,7.2h-1.7c-4.1,0-6.9-1.6-6.9-7.2v-44.7c0-.6,2.7-1.8,5.7-1.8s7.9,1.7,9.1,8.7c3.6-5.3,8.7-9.3,16.3-9.3s14.3,4.2,16.9,10.8c3.6-6.1,9-10.8,17.7-10.8C8024,6761.4,8029.6,6769.9,8029.6,6782.3Z" fill="#ffa168"/><path d="M8059.4,6753c0-5.2,3-8,7.9-8h4.4c4.9,0,6.4,1.5,8.3,5.7l14.1,32.9,14.3-32.9c1.8-4.4,3.6-5.7,8.1-5.7h4.2c5.1,0,8.1,2.8,8.1,8v55.5c0,4.7-1.8,7.2-6.4,7.2h-2.3c-4.5,0-6.3-2.5-6.3-7.2v-41.7l-11.7,28.4c-1.2,2.7-1.8,5-8.1,5s-6.7-2.3-8-5l-11.5-27.9v41.2c0,4.7-1.8,7.2-6.3,7.2h-2.6c-4.3,0-6.2-2.5-6.2-7.2Z" fill="#ffa168"/><path d="M8165.4,6761.4c15.7,0,26.3,10.9,26.3,26.3v1c-.1,2.6-.9,4-3.7,4h-36.5l.3,1.7c1.6,7,7.4,11.4,15.1,11.4s12.5-3.5,14.9-7.7c.1-.2,7.4.4,7.4,6.5,0,2.9-2,5.9-5.8,8.2s-9.5,4-16.9,4c-17.2,0-28.4-10.7-28.4-27.4S8149.6,6761.4,8165.4,6761.4Zm-.1,10.5c-7.2,0-12.6,5.2-13.6,12.5h25.9C8177.2,6776.7,8172.6,6771.9,8165.3,6771.9Z" fill="#ffa168"/><path d="M8197.5,6789c0-16.7,10-27.6,24.6-27.6,7.5,0,13.6,3.5,16.6,8V6742c0-.5,2.7-1.8,5.7-1.8,4.6,0,9.5,2.4,9.5,12.2v56.1c0,5.5-2.7,7.2-6.7,7.2h-1.5c-3.4,0-6-1.2-6.6-5.3-.1-1.2-.2-2.3-.2-3.6-3.6,6.1-9.4,10-17.2,10C8207.5,6816.8,8197.5,6805.6,8197.5,6789Zm41.3-7c-2.3-5.2-6.6-8.4-13.1-8.4-8.2,0-13.7,5.9-13.7,15.4s5.6,15.6,13.5,15.6,13.3-5.1,13.3-12.6Z" fill="#ffa168"/><path d="M8273.8,6738.5c5.3,0,8.5,3,8.5,7.9s-3.1,7.9-8.5,7.9-8.5-3.1-8.5-7.9S8268.5,6738.5,8273.8,6738.5Zm-7.7,30.9c0-5.5,2.9-7.4,6.8-7.4h1.7c4,0,6.8,1.8,6.8,7.4v39.1c0,5.5-2.8,7.2-6.8,7.2H8273c-4.1,0-6.9-1.6-6.9-7.2Z" fill="#ffa168"/><path d="M8318,6761.4c8.1,0,13.7,2.4,17.3,5.3s5.2,6.5,5.2,9.1c0,6.1-8.2,7.3-8.6,6.7-2-5.1-5.8-8.8-13.3-8.8s-14.2,6.4-14.2,15.2,5.9,15.6,14.2,15.6,11.3-3.7,13.3-8.8c.4-.6,8.6.3,8.6,6.8,0,2.5-1.7,6.1-5.3,8.9s-9.3,5.4-17.2,5.4c-16.2,0-27.6-11.4-27.6-27.9S8302,6761.4,8318,6761.4Z" fill="#ffa168"/><path d="M8379.8,6783.9h1.7a8.1,8.1,0,0,0-.1-1.6c-.2-6.1-4-9.5-10.7-9.5s-11.1,3.7-13,7.7c-.1.2-9.8,1-9.8-6a9.4,9.4,0,0,1,3.3-6.9c3.5-3.7,10.3-6.2,20.5-6.2,16.7,0,24.8,7.7,24.8,21.8v31.1c0,.8-2.8,1.7-5.7,1.7s-6.6-1.5-8-5a24.5,24.5,0,0,1-.8-3.6c-3.7,5.7-10.4,9.1-18.3,9.1-11,0-17.7-6.1-17.7-15.1C8346,6789.6,8357.4,6784.2,8379.8,6783.9Zm1.7,7.6h-2.9c-12,.5-18.4,2.7-18.4,8.7,0,4,3.2,6.4,8.2,6.4,7.6,0,13-4.6,13.1-11.3Z" fill="#ffa168"/><path d="M8407.8,6808.5V6742c0-.5,2.7-1.8,5.7-1.8,4.5,0,9.5,2.4,9.5,12.2v56.1c0,5.5-2.8,7.2-6.7,7.2h-1.6C8410.7,6815.7,8407.8,6814.1,8407.8,6808.5Z" fill="#ffa168"/><path d="M8468.8,6759.3H8453c-4.7,0-7.3-2.3-7.3-6.8v-.5c0-4.3,2.6-6.6,7.3-6.6h47.3c4.8,0,7.3,2.3,7.3,6.6v.5c0,4.5-2.5,6.8-7.3,6.8h-15.5v49.2c0,4.7-2.6,7.2-7.1,7.2h-2.3c-4.3,0-6.6-2.5-6.6-7.2Z" fill="#ffa168"/><path d="M8549.5,6770.3c0,6-4.6,8.2-4.8,7.9a10.8,10.8,0,0,0-7-2.5c-7.3,0-10.5,6.4-10.5,17v15.8c0,5.5-2.9,7.2-6.7,7.2h-1.7c-4.1,0-6.9-1.6-6.9-7.2v-44.7c0-.6,2.6-1.8,5.8-1.8a8.5,8.5,0,0,1,8.3,5.8,23,23,0,0,1,.7,3.6c2.1-6.2,6.5-10,13.1-10S8549.5,6764.9,8549.5,6770.3Z" fill="#ffa168"/><path d="M8586.6,6783.9h1.7a8.1,8.1,0,0,0-.1-1.6c-.2-6.1-4-9.5-10.7-9.5s-11.1,3.7-13,7.7c-.1.2-9.8,1-9.8-6a9.4,9.4,0,0,1,3.3-6.9c3.5-3.7,10.3-6.2,20.5-6.2,16.7,0,24.8,7.7,24.8,21.8v31.1c0,.8-2.8,1.7-5.7,1.7s-6.6-1.5-8-5q-.5-1.5-.9-3.6c-3.6,5.7-10.3,9.1-18.2,9.1-11,0-17.7-6.1-17.7-15.1C8552.8,6789.6,8564.2,6784.2,8586.6,6783.9Zm1.7,7.6h-2.9c-12,.5-18.4,2.7-18.4,8.7,0,4,3.2,6.4,8.2,6.4,7.6,0,13-4.6,13.1-11.3Z" fill="#ffa168"/><path d="M8608.5,6766.5c-.2-.9,3.8-4.6,8.3-4.6s6.7,1.8,8.7,7.9l10.6,31,11-31c1.9-6.1,5.1-7.9,8.3-7.9,4.7,0,8.5,3.7,8.2,4.6l-18.9,45.4c-1.3,3.2-5.1,4-8.5,4s-7.3-.7-8.6-3.9Z" fill="#ffa168"/><path d="M8693.7,6761.4c15.6,0,26.2,10.9,26.2,26.3v1c-.1,2.6-.9,4-3.7,4h-36.5l.3,1.7c1.7,7,7.4,11.4,15.2,11.4s12.4-3.5,14.8-7.7c.1-.2,7.4.4,7.4,6.5,0,2.9-2,5.9-5.8,8.2s-9.5,4-16.9,4c-17.1,0-28.4-10.7-28.4-27.4S8677.8,6761.4,8693.7,6761.4Zm-.2,10.5c-7.2,0-12.6,5.2-13.6,12.5h26C8705.4,6776.7,8700.8,6771.9,8693.5,6771.9Z" fill="#ffa168"/><path d="M8728.8,6808.5V6742c0-.5,2.7-1.8,5.7-1.8,4.5,0,9.5,2.4,9.5,12.2v56.1c0,5.5-2.8,7.2-6.7,7.2h-1.6C8731.7,6815.7,8728.8,6814.1,8728.8,6808.5Z" fill="#ffa168"/><path d="M8001.3,4320.2c-31.3-.5-45.8-16.4-48-37.9-2.2-18.2-4.9-34.4-7.7-46.2l-95-1.3c-5.8,24.9-10.1,51.8-14.9,83.1l-36.3-.5c-24.4-.4-34.5-16.2-34.2-38.7.6-48,59.2-242.3,103.6-298.5l34.3.5c27.4.3,47.3,14.3,57.3,34.1,31.5,63.1,70.8,231.8,78.6,305.9ZM7901.5,4063c-13.2,30.2-26.5,70.2-35.3,106.8l66.6.9C7925,4133.9,7912.8,4091.6,7901.5,4063Z" fill="#96daea"/><path d="M8404.1,4325.7c-29.9-.4-50.8-17.8-50.3-51.7.4-32.3-.4-116.1-4.6-167.1-7.6,20.9-12.8,46.4-21.6,75.1l-19.5,65c-9.2,31.2-21.4,60.4-30.5,77l-24.5-.4c-21.5-.3-44.2-25.6-63.8-93.5-14.6-49.7-24.2-95.4-33.6-126.4-6.2,58.3-10.1,163.1-10.8,218.4l-28.9-.4c-31.9-.4-49.8-19.8-49.3-51.6,1.3-97,11.7-207.1,28.9-286.8l18.6.3c50.5.7,84.9,27.6,100.9,81.2l21,71.4c9.9,33,15,50.2,18.1,74.7,5.8-28.8,17-57.6,23.1-77.1l21.6-68.8c10.7-33.6,25.4-65.8,40.2-78.3l13.8.2c40.6.5,68.7,27.9,72.9,75,5.1,55.4,12.9,200.6,12.1,264.3Z" fill="#96daea"/><path d="M8664.5,4062.2l-41.2-.6-3.7,267.1-36.2-.5c-24-.4-46.4-12.9-45.9-46.2l3-221.5-79.9-1.1.5-29.9c.2-18.6,14.7-40.9,43.1-40.6l203.9,2.8-.4,29C8707.4,4041.7,8692.9,4062.6,8664.5,4062.2Z" fill="#96daea"/><path d="M5641.4,5625.7s-.5-69.2,32.2-206.2L5453.8,5521l-47.5,131.6Z" fill="#ffa168"/><path d="M6068.5,5625.8s.5-69.2-32.2-206.3l219.8,101.7,47.4,131.6Z" fill="#ffa168"/><path d="M5720.7,6165.4c28.3-52.1,68.9-116.7,114.5-188.3-48-75.3-64-97.9-96.6-151.9-60.2,102.4-104.6,179.9-117,224.2Z" fill="#fbcf63"/><path d="M5853.7,5107.4c-48.1,29-65.7,114.9-71.8,183.5-2.4,26.1-3.3,51.6-3.4,74.3,17.1-71.9,44.6-114.8,76.1-114.8s59.6,41.9,76.7,114.4c-.3-22.2-1.3-47.2-3.8-72.7-6.9-69.1-23.4-155.5-70.5-184.6" fill="#ffa168"/><path d="M5758.8,5438.2c-2.3-24.4-4.1-84.5,1.7-148.6,3.4-38.1,9.3-71.5,17.6-99.5-59.7,126-108,354.1-108.1,439.9,0,61.2,226.2,377.9,312,536.3l99.1-115.9C6050.6,5940.2,5760.1,5514.5,5758.8,5438.2Z" fill="#96daea"/><path d="M5931.4,5190c8.2,28.3,14.1,62.2,17.5,101,5.5,63,3.9,122.6,1.8,147.1-.2,25.1-35.8,95-80.1,173.3,41.5,72.8,62.4,108.8,96.8,166.1,36.4-61.4,71.9-127,71.9-147.3C6039.4,5544.4,5991,5315.9,5931.4,5190Z" fill="#fbcf63"/><path d="M5297.7,6812.3l27.3-70.7h13.4l27.5,70.7h-13.2l-5.4-13.8h-31.1l-5.2,13.8Zm34-57.6-11.9,33.2h23.8Z" fill="#ffa168"/><path d="M5419.9,6812.3h-12.5v-8.6c-3.2,6.7-9.2,9.7-16.4,9.7-12.8,0-19-9.2-19-23.9v-28.3h12.4v28.2c0,8.2,3.2,13.1,9.9,13.1s13.1-4.8,13.1-19.2v-22.1h12.5Z" fill="#ffa168"/><path d="M5449.4,6761.2h15.2v9.5h-15.2v26.7c0,3.2,1.3,5.6,4.9,5.6a4.9,4.9,0,0,0,5.1-5.3,12.3,12.3,0,0,0-.7-4.2h10.2a16.4,16.4,0,0,1,1.1,5.8c0,7.4-5.2,14.1-16.2,14.1-8.5,0-16.9-3.6-16.9-17.7v-25h-8v-9.5h8.6l2.3-13.7h9.6Z" fill="#ffa168"/><path d="M5484.6,6738.2c4.7,0,8.3,3.4,8.3,7.8s-3.6,7.8-8.3,7.8a7.8,7.8,0,1,1,0-15.6Zm-6.2,74.1v-51.1h12.4v51.1Z" fill="#ffa168"/><path d="M5510.5,6796c1.3,5.1,6.3,7.4,10.9,7.4s7.7-1.3,7.7-5.4c0-2.6-2.4-4.1-5.6-5.4l-7.5-2.8c-10.2-3.9-12.8-9.6-12.8-14.3,0-9.5,8.1-15.4,18.7-15.4,6.5,0,14.6,2.2,17.9,11.4l-10,3.6c-1.3-4.1-5.1-5.2-7.8-5.2s-6.7,1.8-6.7,5.3,2.6,4.3,5.4,5.3l7.6,2.7c10.9,3.6,13,10.2,13,14.6,0,10.1-9.4,15.6-20,15.6-8.3,0-17.7-3.4-20.6-13.2Z" fill="#ffa168"/><path d="M5585.3,6784.1c0-8.9-3.6-13.5-9.5-13.5s-11.3,4.3-11.6,15.5v26.2h-12.4v-51.1h12.4v8.6a16,16,0,0,1,15.1-9.7c6.4,0,12.6,2.5,16,9.6,4-8.2,11.2-9.6,16.7-9.6,13.3,0,19,9.2,19,23.9v28.3h-12.4v-28.2c0-8.9-3.5-13.5-9.5-13.5s-11.2,4.3-11.5,15.5v26.2h-12.3Z" fill="#ffa168"/><path d="M5706.4,6811.5l-20.2-48.6-4.3,49.4H5669l6.6-70.7h13.5l21.7,52,21.7-52H5746l6.7,70.7h-13l-4.3-49.4-20.2,48.6Z" fill="#ffa168"/><path d="M5813.9,6803.6c-6.9,7.7-15.2,9.8-23.1,9.8-18.4,0-29.4-11.9-29.4-26.5s11.8-26.8,28-26.8c13.8,0,26.8,8.7,26.8,28.4h-42.4c0,8,6.6,14.4,17.6,14.4a21.5,21.5,0,0,0,15.4-6.3Zm-39.5-23.5h29.1c-1.9-7.9-8.9-10.1-14.1-10.1S5777,6772.2,5774.4,6780.1Z" fill="#ffa168"/><path d="M5877.7,6739.3v73h-12.5v-7.7c-3.7,5.6-10.1,8.8-17.5,8.8-15.1,0-25-11.9-25-26.9s9.4-26.4,25.1-26.4a20.8,20.8,0,0,1,17.4,8.7v-29.5Zm-27.4,63.7c8.5,0,15.1-5.8,15.1-15.9s-6.2-16.6-15.5-16.6-14.7,7.3-14.7,16.1S5841,6803,5850.3,6803Z" fill="#ffa168"/><path d="M5898.3,6738.2a8,8,0,0,1,8.3,7.8c0,4.5-3.7,7.8-8.3,7.8s-8.1-3.3-8.1-7.8A7.8,7.8,0,0,1,5898.3,6738.2Zm-6.3,74.1v-51.1h12.4v51.1Z" fill="#ffa168"/><path d="M5944,6760.1c5,0,11.9,1.1,19.8,6.8l-5.8,8.9a21.6,21.6,0,0,0-13.3-4.6c-9.9,0-16.9,6.3-16.9,15.5s7,15.6,16.9,15.6a21.9,21.9,0,0,0,13.3-4.7l5.8,8.8c-7.9,5.9-14.8,7-19.8,7-17.7,0-28.8-11.5-28.8-26.4S5926,6760.1,5944,6760.1Z" fill="#ffa168"/><path d="M6024,6761.2v51.1h-12.5v-7.7c-3.6,5.6-10,8.8-17.4,8.8-15.2,0-25.1-11.9-25.1-26.9s9.5-26.4,25.2-26.4a20.5,20.5,0,0,1,17.3,8.7v-7.6Zm-27.4,41.8c8.5,0,15.2-5.8,15.2-15.9s-6.3-16.6-15.5-16.6-14.8,7.3-14.8,16.1S5987.3,6803,5996.6,6803Z" fill="#ffa168"/><path d="M6038.3,6812.3v-73h12.4v73Z" fill="#ffa168"/><path d="M6139.2,6741.6V6752h-21.9v60.3h-12.9V6752h-21.6v-10.4Z" fill="#ffa168"/><path d="M6152.3,6772.5c1.7-8.7,8.5-12.4,13.9-12.4a14.3,14.3,0,0,1,4.3.7V6773a18.7,18.7,0,0,0-5.9-1c-4.5,0-12.1,2.5-12.1,16.7v23.6h-12.4v-51.1h12.2Z" fill="#ffa168"/><path d="M6229.7,6761.2v51.1h-12.4v-7.7c-3.7,5.6-10,8.8-17.5,8.8-15.2,0-25.1-11.9-25.1-26.9s9.5-26.4,25.2-26.4a20.8,20.8,0,0,1,17.4,8.7v-7.6Zm-27.4,41.8c8.5,0,15.3-5.8,15.3-15.9s-6.4-16.6-15.6-16.6-14.8,7.3-14.8,16.1S6193,6803,6202.3,6803Z" fill="#ffa168"/><path d="M6272.1,6812.3h-13l-20.6-51.1h13.4l13.7,37.3,13.7-37.3h13.4Z" fill="#ffa168"/><path d="M6348.3,6803.6c-6.9,7.7-15.2,9.8-23.1,9.8-18.4,0-29.4-11.9-29.4-26.5s11.8-26.8,28-26.8c13.8,0,26.8,8.7,26.8,28.4h-42.4c0,8,6.6,14.4,17.6,14.4a21.5,21.5,0,0,0,15.4-6.3Zm-39.5-23.5h29.1c-1.9-7.9-8.9-10.1-14.1-10.1S6311.4,6772.2,6308.8,6780.1Z" fill="#ffa168"/><path d="M6360.6,6812.3v-73h12.5v73Z" fill="#ffa168"/><path d="M5301.8,2093.3l29.1-75.6h14.4l29.4,75.6h-14.2l-5.7-14.8h-33.3l-5.5,14.8Zm36.4-61.6-12.8,35.6h25.4Z" fill="#ffa168"/><path d="M5432.4,2093.3h-13.3v-9.2c-3.5,7.1-9.8,10.4-17.6,10.4-13.6,0-20.3-9.9-20.3-25.6v-30.3h13.3v30.2c0,8.8,3.4,14,10.5,14s14.1-5.1,14.1-20.5v-23.7h13.3Z" fill="#ffa168"/><path d="M5463.9,2038.6h16.3v10.2h-16.3v28.6c0,3.4,1.4,6,5.3,6s5.4-2.3,5.4-5.7a14.1,14.1,0,0,0-.7-4.5h10.9a17,17,0,0,1,1.2,6.2c0,7.9-5.5,15.1-17.3,15.1-9.1,0-18.1-3.9-18.1-18.9v-26.8h-8.5v-10.2h9.2l2.4-14.5h10.2Z" fill="#ffa168"/><path d="M5501.6,2014a8.6,8.6,0,0,1,8.9,8.4c0,4.8-3.9,8.4-8.9,8.4a8.4,8.4,0,1,1,0-16.8Zm-6.7,79.3v-54.7h13.3v54.7Z" fill="#ffa168"/><path d="M5529.3,2075.9c1.4,5.4,6.7,7.9,11.7,7.9s8.2-1.4,8.2-5.7c0-2.8-2.6-4.5-6-5.9l-8-3c-10.9-4.1-13.7-10.3-13.7-15.2,0-10.2,8.7-16.5,20-16.5,6.9,0,15.6,2.3,19.1,12.2l-10.7,3.8c-1.4-4.4-5.4-5.6-8.3-5.6s-7.1,2-7.1,5.8,2.7,4.5,5.7,5.6l8.1,2.9c11.7,3.9,14,10.9,14,15.6,0,10.8-10.1,16.7-21.4,16.7-8.9,0-19-3.7-22.1-14.2Z" fill="#ffa168"/><path d="M5609.2,2063.2c0-9.5-3.7-14.5-10.1-14.5s-12,4.6-12.3,16.6v28h-13.3v-54.7h13.3v9.2a17,17,0,0,1,16.1-10.3c6.8,0,13.5,2.7,17,10.2,4.4-8.7,12-10.2,18-10.2,14.1,0,20.3,9.8,20.3,25.5v30.3h-13.3v-30.1c0-9.5-3.8-14.5-10.2-14.5s-11.9,4.6-12.3,16.6v28h-13.2Z" fill="#ffa168"/><path d="M5738.8,2092.4l-21.6-51.9-4.6,52.8h-13.8l7-75.6h14.5l23.2,55.6,23.2-55.6h14.4l7.2,75.6h-13.9l-4.6-52.8-21.6,51.9Z" fill="#ffa168"/><path d="M5853.8,2084c-7.4,8.2-16.4,10.5-24.8,10.5-19.7,0-31.4-12.8-31.4-28.3s12.6-28.7,29.9-28.7c14.8,0,28.7,9.2,28.7,30.3h-45.3c0,8.6,7,15.4,18.8,15.4,6.8,0,11.8-2.4,16.5-6.7Zm-42.3-25.2h31.1c-2-8.4-9.5-10.8-15.1-10.8S5814.3,2050.4,5811.5,2058.8Z" fill="#ffa168"/><path d="M5921.9,2015.2v78.1h-13.3v-8.2c-4,5.9-10.8,9.4-18.8,9.4-16.1,0-26.7-12.8-26.7-28.8s10.1-28.2,26.8-28.2a22.4,22.4,0,0,1,18.7,9.2v-31.5Zm-29.3,68.2c9.1,0,16.3-6.2,16.3-17s-6.7-17.8-16.7-17.8-15.7,7.9-15.7,17.3S5882.7,2083.4,5892.6,2083.4Z" fill="#ffa168"/><path d="M5944,2014a8.4,8.4,0,1,1,0,16.8,8.4,8.4,0,1,1,0-16.8Zm-6.7,79.3v-54.7h13.3v54.7Z" fill="#ffa168"/><path d="M5992.9,2037.5c5.3,0,12.6,1.1,21.1,7.3l-6.2,9.5a23.3,23.3,0,0,0-14.2-5c-10.6,0-18.1,6.8-18.1,16.7s7.5,16.6,18.1,16.6a23.3,23.3,0,0,0,14.2-5l6.2,9.4c-8.5,6.3-15.8,7.5-21.1,7.5-19,0-30.8-12.3-30.8-28.2S5973.6,2037.5,5992.9,2037.5Z" fill="#ffa168"/><path d="M6078.4,2038.6v54.7h-13.3v-8.2c-3.9,5.9-10.7,9.4-18.7,9.4-16.2,0-26.8-12.8-26.8-28.8s10.1-28.2,26.9-28.2a22.4,22.4,0,0,1,18.6,9.2v-8.1Zm-29.3,44.8c9.1,0,16.3-6.2,16.3-17s-6.8-17.8-16.6-17.8-15.8,7.9-15.8,17.3S6039.1,2083.4,6049.1,2083.4Z" fill="#ffa168"/><path d="M6093.7,2093.3v-78.1H6107v78.1Z" fill="#ffa168"/><path d="M6201.5,2017.7v11.1h-23.3v64.5h-13.8v-64.5h-23.2v-11.1Z" fill="#ffa168"/><path d="M6215.6,2050.7c1.8-9.3,9.1-13.2,14.9-13.2a16.3,16.3,0,0,1,4.5.7v13.1a18.1,18.1,0,0,0-6.2-1.1c-4.9,0-13,2.7-13,17.8v25.3h-13.3v-54.7h13.1Z" fill="#ffa168"/><path d="M6298.3,2038.6v54.7h-13.2v-8.2c-3.9,5.9-10.7,9.4-18.7,9.4-16.2,0-26.8-12.8-26.8-28.8s10.1-28.2,26.9-28.2a22.4,22.4,0,0,1,18.6,9.2v-8.1Zm-29.2,44.8c9,0,16.3-6.2,16.3-17s-6.8-17.8-16.7-17.8-15.7,7.9-15.7,17.3S6259.1,2083.4,6269.1,2083.4Z" fill="#ffa168"/><path d="M6343.7,2093.3h-13.9l-22.1-54.7h14.4l14.6,39.9,14.7-39.9h14.4Z" fill="#ffa168"/><path d="M6425.2,2084c-7.4,8.2-16.3,10.5-24.8,10.5-19.6,0-31.4-12.8-31.4-28.3s12.6-28.7,29.9-28.7c14.8,0,28.8,9.2,28.8,30.3h-45.4c0,8.6,7,15.4,18.8,15.4a22.9,22.9,0,0,0,16.5-6.7Zm-42.3-25.2h31.2c-2.1-8.4-9.6-10.8-15.2-10.8S6385.7,2050.4,6382.9,2058.8Z" fill="#ffa168"/><path d="M6438.4,2093.3v-78.1h13.3v78.1Z" fill="#ffa168"/><path d="M5641.4,932.7s-.5-69.2,32.2-206.2L5453.8,828l-47.5,131.6Z" fill="#ffa168"/><path d="M6068.5,932.8s.5-69.2-32.2-206.3l219.8,101.7,47.4,131.6Z" fill="#ffa168"/><path d="M5720.7,1472.4c28.3-52.1,68.9-116.7,114.5-188.3-48-75.3-64-97.9-96.6-151.9-60.2,102.4-104.6,179.9-117,224.2Z" fill="#fbcf63"/><path d="M5853.7,414.4c-48.1,29-65.7,114.9-71.8,183.5-2.4,26.1-3.3,51.6-3.4,74.3,17.1-71.9,44.6-114.8,76.1-114.8s59.6,41.9,76.7,114.4c-.3-22.2-1.3-47.2-3.8-72.7-6.9-69.1-23.4-155.5-70.5-184.6" fill="#ffa168"/><path d="M5758.8,745.2c-2.3-24.4-4.1-84.5,1.7-148.6,3.4-38.1,9.3-71.5,17.6-99.5-59.7,126-108,354.1-108.1,439.9,0,61.2,226.2,377.9,312,536.3l99.1-115.9C6050.6,1247.2,5760.1,821.5,5758.8,745.2Z" fill="#96daea"/><path d="M5931.4,497c8.2,28.3,14.1,62.2,17.5,101,5.5,63,3.9,122.6,1.8,147.1-.2,25.1-35.8,95-80.1,173.3,41.5,72.8,62.4,108.8,96.8,166.1,36.4-61.4,71.9-127,71.9-147.3C6039.4,851.4,5991,622.9,5931.4,497Z" fill="#fbcf63"/><path d="M5560.6,1904.6l-88.9-1.2-13.4,47c-9.1,5.2-25.5,7.4-45.6,7.1s-34.8-3.3-42.1-8.3l90-287.5c14-3,35.4-4.8,59.1-4.5s45.9,2.7,59.4,6.2l85,289.8c-7.8,4.8-22.6,7.5-43.6,7.2s-37.2-3-47-8.4Zm-24.8-100.8a664.3,664.3,0,0,1-16.1-82.6h-4.9c-5,30.3-11.5,57.3-18,81.8l-8.2,31.9,55.3.7Z" fill="#96daea"/><path d="M5966.9,1733.5h-5c-3.6,27.9-11.9,67.1-18.4,92.4L5909.2,1959c-10.3,3.2-24.6,5-42.7,4.8s-32.3-2.5-42.1-5.9l-32.6-137.8c-4.6-19.8-11.8-66.6-13.1-89.2h-4.9l-3.1,225.5c-7.5,4-19.8,5.5-38.6,5.2s-31.2-2-38.5-6.2l4-289.9c14-3.5,34.9-5.2,65.7-4.8s52,2.7,65.1,6.6l28.1,128.7c4.6,21.8,9.1,58,11.2,85.5h4.9c2.8-27.5,7.8-64.7,12.6-84.3l30.1-128.8c13.1-3.5,34.1-5.3,64.8-4.8s50.8,2.7,64.7,6.6l-4,289.8c-7.4,4-19.7,5.5-38.6,5.2s-31.1-2-38.4-6.2Z" fill="#96daea"/><path d="M6248.4,1744.3l-3,217.7c-8.7,4.4-23.9,6.7-45.2,6.4s-36-3-44.6-7.6l3-217.7-75.8-1c-3.6-7.1-5.4-23.1-5.2-37.8s2.4-30.3,6.2-37.3l241.5,3.4c3.6,7,5.4,22.2,5.2,37.3s-2.5,30.8-6.2,37.7Z" fill="#96daea"/><path d="M5641.4,3271.7s-.5-69.2,32.2-206.2L5453.8,3167l-47.5,131.6Z" fill="#ffa168"/><path d="M6068.5,3271.8s.5-69.2-32.2-206.3l219.8,101.7,47.4,131.6Z" fill="#ffa168"/><path d="M5720.7,3811.4c28.3-52.1,68.9-116.7,114.5-188.3-48-75.3-64-97.9-96.6-151.9-60.2,102.4-104.6,179.9-117,224.2Z" fill="#fbcf63"/><path d="M5853.7,2753.4c-48.1,29-65.7,114.9-71.8,183.5-2.4,26.1-3.3,51.6-3.4,74.3,17.1-71.9,44.6-114.8,76.1-114.8s59.6,41.9,76.7,114.4c-.3-22.2-1.3-47.2-3.8-72.7-6.9-69.1-23.4-155.5-70.5-184.6" fill="#ffa168"/><path d="M5758.8,3084.2c-2.3-24.4-4.1-84.5,1.7-148.6,3.4-38.1,9.3-71.5,17.6-99.5-59.7,126-108,354.1-108.1,439.9,0,61.2,226.2,377.9,312,536.3l99.1-115.9C6050.6,3586.2,5760.1,3160.5,5758.8,3084.2Z" fill="#96daea"/><path d="M5931.4,2836c8.2,28.3,14.1,62.2,17.5,101,5.5,63,3.9,122.6,1.8,147.1-.2,25.1-35.8,95-80.1,173.3,41.5,72.8,62.4,108.8,96.8,166.1,36.4-61.4,71.9-127,71.9-147.3C6039.4,3190.4,5991,2961.9,5931.4,2836Z" fill="#fbcf63"/><path d="M5291.7,4458.3l27-70H5332l27.2,70h-13.1l-5.3-13.7H5310l-5.1,13.7Zm33.7-57-11.8,32.9h23.5Z" fill="#ffa168"/><path d="M5412.6,4458.3h-12.3v-8.5c-3.2,6.6-9.1,9.6-16.3,9.6-12.6,0-18.8-9.1-18.8-23.7v-28h12.3v27.9c0,8.2,3.2,13,9.8,13s13-4.7,13-19v-21.9h12.3Z" fill="#ffa168"/><path d="M5441.8,4407.7H5457v9.4h-15.2v26.5c0,3.1,1.3,5.5,4.9,5.5a4.8,4.8,0,0,0,5-5.2,12.3,12.3,0,0,0-.7-4.2h10.2a16,16,0,0,1,1.1,5.7c0,7.4-5.1,14-16.1,14-8.4,0-16.7-3.6-16.7-17.5v-24.8h-7.9v-9.4h8.5l2.2-13.5h9.5Z" fill="#ffa168"/><path d="M5476.8,4384.9a7.9,7.9,0,0,1,8.2,7.8c0,4.4-3.6,7.7-8.2,7.7a7.7,7.7,0,0,1-8-7.7A7.7,7.7,0,0,1,5476.8,4384.9Zm-6.2,73.4v-50.6h12.3v50.6Z" fill="#ffa168"/><path d="M5502.4,4442.2c1.3,5,6.2,7.3,10.8,7.3s7.6-1.3,7.6-5.3-2.4-4.1-5.5-5.4l-7.4-2.8c-10.1-3.8-12.7-9.5-12.7-14.1,0-9.4,8-15.3,18.5-15.3,6.4,0,14.4,2.2,17.7,11.3l-9.9,3.6c-1.3-4.1-5-5.2-7.7-5.2s-6.6,1.8-6.6,5.3,2.5,4.2,5.3,5.2l7.5,2.7c10.8,3.6,12.9,10.1,12.9,14.5,0,10-9.3,15.4-19.8,15.4-8.2,0-17.5-3.4-20.4-13.1Z" fill="#ffa168"/><path d="M5576.4,4430.4c0-8.8-3.5-13.4-9.4-13.4s-11.1,4.3-11.4,15.4v25.9h-12.3v-50.6h12.3v8.5a15.8,15.8,0,0,1,14.9-9.6c6.3,0,12.5,2.5,15.8,9.5,4-8.1,11.1-9.5,16.6-9.5,13.1,0,18.8,9.1,18.8,23.7v28h-12.3v-27.9c0-8.8-3.5-13.4-9.4-13.4s-11.1,4.3-11.4,15.4v25.9h-12.2Z" fill="#ffa168"/><path d="M5696.3,4457.5l-20-48.1-4.2,48.9h-12.8l6.5-70h13.4l21.5,51.5,21.5-51.5h13.4l6.6,70h-12.8l-4.3-48.9-20.1,48.1Z" fill="#ffa168"/><path d="M5802.8,4449.7c-6.8,7.6-15.1,9.7-22.9,9.7-18.2,0-29.1-11.8-29.1-26.2s11.7-26.6,27.7-26.6c13.7,0,26.6,8.6,26.6,28.1h-42c0,8,6.5,14.3,17.4,14.3,6.3,0,11-2.3,15.3-6.2Zm-39.1-23.3h28.8c-1.9-7.8-8.8-10-14-10S5766.3,4418.6,5763.7,4426.4Z" fill="#ffa168"/><path d="M5865.9,4386v72.3h-12.3v-7.6c-3.7,5.5-10,8.7-17.4,8.7-14.9,0-24.7-11.8-24.7-26.6s9.3-26.2,24.8-26.2a20.8,20.8,0,0,1,17.3,8.6V4386Zm-27.1,63.1c8.4,0,15-5.7,15-15.7s-6.2-16.5-15.4-16.5-14.5,7.3-14.5,16S5829.6,4449.1,5838.8,4449.1Z" fill="#ffa168"/><path d="M5886.3,4384.9a7.9,7.9,0,0,1,8.2,7.8c0,4.4-3.6,7.7-8.2,7.7a7.7,7.7,0,0,1-8-7.7A7.7,7.7,0,0,1,5886.3,4384.9Zm-6.2,73.4v-50.6h12.3v50.6Z" fill="#ffa168"/><path d="M5931.6,4406.6c4.9,0,11.7,1.1,19.5,6.8l-5.7,8.8a21.2,21.2,0,0,0-13.2-4.6c-9.8,0-16.7,6.3-16.7,15.4s6.9,15.4,16.7,15.4a21.9,21.9,0,0,0,13.2-4.6l5.7,8.7c-7.8,5.8-14.6,6.9-19.5,6.9-17.6,0-28.5-11.4-28.5-26.1S5913.7,4406.6,5931.6,4406.6Z" fill="#ffa168"/><path d="M6010.8,4407.7v50.6h-12.3v-7.6c-3.6,5.5-9.9,8.7-17.3,8.7-15,0-24.9-11.8-24.9-26.6s9.5-26.2,25-26.2a20.5,20.5,0,0,1,17.2,8.6v-7.5Zm-27.1,41.4c8.4,0,15.1-5.7,15.1-15.7s-6.3-16.5-15.4-16.5-14.6,7.3-14.6,16S5974.5,4449.1,5983.7,4449.1Z" fill="#ffa168"/><path d="M6025,4458.3V4386h12.3v72.3Z" fill="#ffa168"/><path d="M6124.8,4388.3v10.3h-21.6v59.7h-12.8v-59.7H6069v-10.3Z" fill="#ffa168"/><path d="M6137.8,4418.9c1.7-8.6,8.4-12.3,13.8-12.3a14.2,14.2,0,0,1,4.2.7v12.1a18.1,18.1,0,0,0-5.8-1c-4.5,0-12,2.5-12,16.5v23.4h-12.3v-50.6h12.1Z" fill="#ffa168"/><path d="M6214.4,4407.7v50.6h-12.3v-7.6c-3.6,5.5-9.9,8.7-17.3,8.7-15,0-24.8-11.8-24.8-26.6s9.4-26.2,24.9-26.2a20.5,20.5,0,0,1,17.2,8.6v-7.5Zm-27.1,41.4c8.4,0,15.1-5.7,15.1-15.7s-6.3-16.5-15.4-16.5-14.6,7.3-14.6,16S6178.1,4449.1,6187.3,4449.1Z" fill="#ffa168"/><path d="M6256.5,4458.3h-12.9l-20.5-50.6h13.4l13.5,36.9,13.6-36.9h13.3Z" fill="#ffa168"/><path d="M6331.9,4449.7c-6.8,7.6-15.1,9.7-22.9,9.7-18.2,0-29.1-11.8-29.1-26.2s11.7-26.6,27.7-26.6c13.7,0,26.6,8.6,26.6,28.1h-42c0,8,6.5,14.3,17.4,14.3,6.3,0,11-2.3,15.3-6.2Zm-39.1-23.3h28.8c-1.9-7.8-8.8-10-14-10S6295.4,4418.6,6292.8,4426.4Z" fill="#ffa168"/><path d="M6344.1,4458.3V4386h12.3v72.3Z" fill="#ffa168"/><path d="M5616.3,4320.2c-31.3-.5-45.8-16.4-48-37.9-2.2-18.2-4.9-34.4-7.7-46.2l-95-1.3c-5.8,24.9-10.1,51.8-14.9,83.1l-36.2-.5c-24.5-.4-34.6-16.2-34.3-38.7.6-48,59.2-242.3,103.6-298.5l34.3.5c27.4.3,47.3,14.3,57.3,34.1,31.5,63.1,70.8,231.8,78.6,305.9ZM5516.5,4063c-13.2,30.2-26.5,70.2-35.3,106.8l66.6.9C5540,4133.9,5527.8,4091.6,5516.5,4063Z" fill="#96daea"/><path d="M6019.1,4325.7c-29.9-.4-50.8-17.8-50.3-51.7.4-32.3-.4-116.1-4.6-167.1-7.6,20.9-12.8,46.4-21.6,75.1l-19.5,65c-9.2,31.2-21.4,60.4-30.5,77l-24.5-.4c-21.5-.3-44.2-25.6-63.8-93.5-14.6-49.7-24.2-95.4-33.6-126.4-6.2,58.3-10.1,163.1-10.8,218.4l-28.9-.4c-31.9-.4-49.8-19.8-49.3-51.6,1.3-97,11.7-207.1,28.9-286.8l18.6.3c50.5.7,84.9,27.6,100.9,81.2l21,71.4c9.9,33,15,50.2,18.1,74.7,5.8-28.8,17-57.6,23.1-77.1l21.6-68.8c10.7-33.6,25.4-65.8,40.2-78.3l13.8.2c40.6.5,68.7,27.9,72.9,75,5.1,55.4,12.9,200.6,12.1,264.3Z" fill="#96daea"/><path d="M6279.5,4062.2l-41.2-.6-3.7,267.1-36.2-.5c-24-.4-46.4-12.9-45.9-46.2l3-221.5-79.9-1.1.5-29.9c.2-18.6,14.7-40.9,43.1-40.6l203.9,2.8-.4,29C6322.4,4041.7,6307.9,4062.6,6279.5,4062.2Z" fill="#96daea"/><path d="M3283.4,5625.7s-.5-69.2,32.2-206.2L3095.8,5521l-47.5,131.6Z" fill="#ffa168"/><path d="M3710.5,5625.8s.5-69.2-32.2-206.3l219.8,101.7,47.4,131.6Z" fill="#ffa168"/><path d="M3362.7,6165.4c28.3-52.1,68.9-116.7,114.5-188.3-48-75.3-64-97.9-96.6-151.9-60.2,102.4-104.6,179.9-117,224.2Z" fill="#fbcf63"/><path d="M3495.7,5107.4c-48.1,29-65.7,114.9-71.8,183.5-2.4,26.1-3.3,51.6-3.4,74.3,17.1-71.9,44.6-114.8,76.1-114.8s59.6,41.9,76.7,114.4c-.3-22.2-1.3-47.2-3.8-72.7-6.9-69.1-23.4-155.5-70.5-184.6" fill="#ffa168"/><path d="M3400.8,5438.2c-2.3-24.4-4.1-84.5,1.7-148.6,3.4-38.1,9.3-71.5,17.6-99.5-59.7,126-108,354.1-108.1,439.9,0,61.2,226.2,377.9,312,536.3l99.1-115.9C3692.6,5940.2,3402.1,5514.5,3400.8,5438.2Z" fill="#96daea"/><path d="M3573.4,5190c8.2,28.3,14.1,62.2,17.5,101,5.5,63,3.9,122.6,1.8,147.1-.2,25.1-35.8,95-80.1,173.3,41.5,72.8,62.4,108.8,96.8,166.1,36.4-61.4,71.9-127,71.9-147.3C3681.4,5544.4,3633,5315.9,3573.4,5190Z" fill="#fbcf63"/><path d="M2993.6,6812.3l-5-16.3h-26.3l-5,16.3h-14.4l24.4-74.5h16.9l24.2,74.5Zm-18.1-60.4-10,32.7h20.1Z" fill="#ffa168"/><path d="M3048.7,6812.3v-9.5c-3.1,6.8-8.7,10.8-16.7,10.8-10.3,0-15.7-6.7-15.7-18.8v-36.9h13.4v34.5c0,5.3,1.1,9.2,5.8,9.2s12.2-6.7,12.2-22.7v-21h13.4v54.4Z" fill="#ffa168"/><path d="M3110,6811.6a44.4,44.4,0,0,1-11.1,1.3c-14.4,0-17.9-6.6-17.9-19.8v-22.6h-8.9v-11.8h8.9v-15.3l13.4-1.3v16.6h15v11.8h-15v21.7c0,6.6.4,9.1,6.9,9.1a41.5,41.5,0,0,0,7.8-.9Z" fill="#ffa168"/><path d="M3129.5,6731.4a8,8,0,0,1,8.1,8.2,8.1,8.1,0,1,1-8.1-8.2Zm6.7,26.5v54.4h-13.4v-54.4Z" fill="#ffa168"/><path d="M3179.9,6771a18.2,18.2,0,0,0-11.7-3.9c-4.8,0-7.4,1.3-7.4,5.1,0,8.8,26.9,4.7,26.9,24.3,0,12.5-11,17-22,17-7,0-14.7-1.9-18.9-6.7l6.6-8.6c3.3,3.4,8,4.9,13.4,4.9s8.2-1.2,8.2-5.8c0-9.6-27.2-5.1-27.2-24.3,0-11,9.7-16.3,21.4-16.3,6.5,0,13.1,1.6,17.3,6Z" fill="#ffa168"/><path d="M3211.4,6757.9v9.4c2.8-6.5,8.2-10.8,16.3-10.8s12.5,3.6,14.6,11.1c3.1-6.8,8.9-11.1,16.8-11.1,9.9,0,15.5,6.8,15.5,18.7v37.1h-13.3v-34.4c0-6-1.3-9.2-5.6-9.2-6.3,0-12.3,6.7-12.3,23v20.6H3230v-34.6c0-5.5-1-9-5.5-9-6.3,0-12.4,6.7-12.4,23v20.6h-13.4v-54.4Z" fill="#ffa168"/><path d="M3333.5,6737.8l16.9,51.8,17.2-51.8h18.7l4.2,74.5h-13.8l-2.3-59-17.7,55.3h-12.9l-17.6-55.3-2.4,59h-13.6l4.4-74.5Z" fill="#ffa168"/><path d="M3448.9,6804.5c-6,6.2-13,9-22.4,9s-13.2-2.1-17.3-5.9-6.9-10.8-6.9-21.1,1.7-17.4,6.7-22.9,9.3-7.1,18.1-7.1c16.7,0,22.5,10.8,22.5,24.5a60.6,60.6,0,0,1-.5,7l-33.4.2c.1,9.1,1.6,14.5,11.1,14.5a21.6,21.6,0,0,0,15.2-6.2Zm-12.6-25.9c0-7.5-1.5-11.9-9.5-11.9s-10.6,4.8-10.8,11.9Z" fill="#ffa168"/><path d="M3509.1,6729.7v82.6h-12.6v-8.2a20,20,0,0,1-17.1,9.5,16.4,16.4,0,0,1-12.4-5.3c-4.2-4.8-6.3-11.6-6.3-22.5s1.8-18,6.8-23.2,8.4-5.9,15.5-5.9c5.3,0,9.7,1.2,12.8,4.9v-31.9Zm-18.2,68c3.5-4.1,5.4-9.3,5.4-15.9s-1.2-8.6-3.6-11a11.2,11.2,0,0,0-8-2.8c-8.3,0-9.9,5.8-9.9,17.3s1.7,16.7,7.8,16.7C3485.7,6802,3488.3,6800.6,3490.9,6797.7Z" fill="#ffa168"/><path d="M3531.4,6731.4a8,8,0,0,1,8.1,8.2,8.1,8.1,0,1,1-16.2,0A8,8,0,0,1,3531.4,6731.4Zm6.7,26.5v54.4h-13.4v-54.4Z" fill="#ffa168"/><path d="M3594.3,6804.4c-5,6.1-12.1,9-20.4,9s-13-2.6-16.5-6.6-6-12.1-6-21.1,1.5-17,7-22.9c3.7-3.8,9.1-6.3,17.4-6.3,6.6,0,13.1,1.6,17.7,6.3l-7.5,9.1a14.3,14.3,0,0,0-10-3.7c-8.8,0-10.6,5.3-10.6,16.7s1.8,16.9,9.1,16.9a15.7,15.7,0,0,0,11.8-5.7Z" fill="#ffa168"/><path d="M3602.5,6764.4c5.3-5.8,12.4-7.7,20.8-7.7,14.4,0,21.6,5.6,21.6,20.3v35.3h-11.8v-7.9c-3.9,6.4-10,9.2-16.8,9.2s-9-1.7-11.8-4.3-4.5-6.7-4.5-12.1,2.3-10.6,6.5-13.5,11.2-4.6,19-4.6h6.8v-2c0-7.6-2.5-10-9.6-10-5.5,0-9.7,1.4-13.4,5.2Zm22,23.9c-7.2,0-11.4,1.1-11.4,8.2,0,4.2,1.4,6.8,5.5,6.8,5.6,0,13.4-4.9,13.8-15Z" fill="#ffa168"/><path d="M3673.4,6729.7v82.6H3660v-82.6Z" fill="#ffa168"/><path d="M3760.1,6737.8v12.3h-20.9v62.2h-13.9v-62.2h-20.9v-12.3Z" fill="#ffa168"/><path d="M3781.7,6757.9v9.4c2.5-6.5,7.1-10.6,13.2-10.6a15.1,15.1,0,0,1,3.2.3l-1,13.1-2.8-.3c-9.4,0-11.8,12-11.8,23.9v18.6H3769v-54.4Z" fill="#ffa168"/><path d="M3804.3,6764.4c5.3-5.8,12.4-7.7,20.9-7.7,14.3,0,21.6,5.6,21.6,20.3v35.3h-11.9v-7.9c-3.9,6.4-10,9.2-16.8,9.2a16.2,16.2,0,0,1-11.7-4.3c-3.1-3-4.6-6.7-4.6-12.1s2.3-10.6,6.5-13.5,11.2-4.6,19-4.6h6.8v-2c0-7.6-2.5-10-9.6-10-5.5,0-9.7,1.4-13.4,5.2Zm22.1,23.9c-7.3,0-11.5,1.1-11.5,8.2,0,4.2,1.4,6.8,5.5,6.8,5.6,0,13.4-4.9,13.8-15Z" fill="#ffa168"/><path d="M3869,6757.9l11.4,40.2,11.2-40.2h14.1l-18.1,54.4h-15.2l-17.9-54.4Z" fill="#ffa168"/><path d="M3957.9,6804.5c-5.9,6.2-12.9,9-22.3,9s-13.2-2.1-17.3-5.9-6.9-10.8-6.9-21.1,1.7-17.4,6.7-22.9,9.3-7.1,18.1-7.1c16.7,0,22.5,10.8,22.5,24.5a60.6,60.6,0,0,1-.5,7l-33.4.2c.1,9.1,1.6,14.5,11.1,14.5a21.6,21.6,0,0,0,15.2-6.2Zm-12.5-25.9c0-7.5-1.5-11.9-9.5-11.9s-10.6,4.8-10.8,11.9Z" fill="#ffa168"/><path d="M3985.4,6729.7v82.6H3972v-82.6Z" fill="#ffa168"/><path d="M2993.6,2093.3l-5-16.3h-26.3l-5,16.3h-14.4l24.4-74.5h16.9l24.2,74.5Zm-18.1-60.4-10,32.7h20.1Z" fill="#ffa168"/><path d="M3048.7,2093.3v-9.5c-3.1,6.8-8.7,10.8-16.7,10.8-10.3,0-15.7-6.7-15.7-18.8v-36.9h13.4v34.5c0,5.3,1.1,9.2,5.8,9.2s12.2-6.7,12.2-22.7v-21h13.4v54.4Z" fill="#ffa168"/><path d="M3110,2092.6a44.4,44.4,0,0,1-11.1,1.3c-14.4,0-17.9-6.6-17.9-19.8v-22.6h-8.9v-11.8h8.9v-15.3l13.4-1.3v16.6h15v11.8h-15v21.7c0,6.6.4,9.1,6.9,9.1a41.5,41.5,0,0,0,7.8-.9Z" fill="#ffa168"/><path d="M3129.5,2012.4a8,8,0,0,1,8.1,8.2,8.1,8.1,0,1,1-8.1-8.2Zm6.7,26.5v54.4h-13.4v-54.4Z" fill="#ffa168"/><path d="M3179.9,2052a18.2,18.2,0,0,0-11.7-3.9c-4.8,0-7.4,1.3-7.4,5.1,0,8.8,26.9,4.7,26.9,24.3,0,12.5-11,17-22,17-7,0-14.7-1.9-18.9-6.7l6.6-8.6c3.3,3.4,8,4.9,13.4,4.9s8.2-1.2,8.2-5.8c0-9.6-27.2-5.1-27.2-24.3,0-11,9.7-16.3,21.4-16.3,6.5,0,13.1,1.6,17.3,6Z" fill="#ffa168"/><path d="M3211.4,2038.9v9.4c2.8-6.5,8.2-10.8,16.3-10.8s12.5,3.6,14.6,11.1c3.1-6.8,8.9-11.1,16.8-11.1,9.9,0,15.5,6.8,15.5,18.7v37.1h-13.3v-34.4c0-6-1.3-9.2-5.6-9.2-6.3,0-12.3,6.7-12.3,23v20.6H3230v-34.6c0-5.5-1-9-5.5-9-6.3,0-12.4,6.7-12.4,23v20.6h-13.4v-54.4Z" fill="#ffa168"/><path d="M3333.5,2018.8l16.9,51.8,17.2-51.8h18.7l4.2,74.5h-13.8l-2.3-59-17.7,55.3h-12.9l-17.6-55.3-2.4,59h-13.6l4.4-74.5Z" fill="#ffa168"/><path d="M3448.9,2085.5c-6,6.2-13,9-22.4,9s-13.2-2.1-17.3-5.9-6.9-10.8-6.9-21.1,1.7-17.4,6.7-22.9,9.3-7.1,18.1-7.1c16.7,0,22.5,10.8,22.5,24.5a60.6,60.6,0,0,1-.5,7l-33.4.2c.1,9.1,1.6,14.5,11.1,14.5a21.6,21.6,0,0,0,15.2-6.2Zm-12.6-25.9c0-7.5-1.5-11.9-9.5-11.9s-10.6,4.8-10.8,11.9Z" fill="#ffa168"/><path d="M3509.1,2010.7v82.6h-12.6v-8.2a20,20,0,0,1-17.1,9.5,16.4,16.4,0,0,1-12.4-5.3c-4.2-4.8-6.3-11.6-6.3-22.5s1.8-18,6.8-23.2c3.5-3.7,8.4-5.9,15.5-5.9,5.3,0,9.7,1.2,12.8,4.9v-31.9Zm-18.2,68c3.5-4.1,5.4-9.3,5.4-15.9s-1.2-8.6-3.6-11a11.2,11.2,0,0,0-8-2.8c-8.3,0-9.9,5.8-9.9,17.3s1.7,16.7,7.8,16.7C3485.7,2083,3488.3,2081.6,3490.9,2078.7Z" fill="#ffa168"/><path d="M3531.4,2012.4a8,8,0,0,1,8.1,8.2,8.1,8.1,0,1,1-16.2,0A8,8,0,0,1,3531.4,2012.4Zm6.7,26.5v54.4h-13.4v-54.4Z" fill="#ffa168"/><path d="M3594.3,2085.4c-5,6.1-12.1,9-20.4,9s-13-2.6-16.5-6.6-6-12.1-6-21.1,1.5-17,7-22.9c3.7-3.8,9.1-6.3,17.4-6.3,6.6,0,13.1,1.6,17.7,6.3l-7.5,9.1a14.3,14.3,0,0,0-10-3.7c-8.8,0-10.6,5.3-10.6,16.7s1.8,16.9,9.1,16.9a15.7,15.7,0,0,0,11.8-5.7Z" fill="#ffa168"/><path d="M3602.5,2045.4c5.3-5.8,12.4-7.7,20.8-7.7,14.4,0,21.6,5.6,21.6,20.3v35.3h-11.8v-7.9c-3.9,6.4-10,9.2-16.8,9.2s-9-1.7-11.8-4.3-4.5-6.7-4.5-12.1,2.3-10.6,6.5-13.5,11.2-4.6,19-4.6h6.8v-2c0-7.6-2.5-10-9.6-10-5.5,0-9.7,1.4-13.4,5.2Zm22,23.9c-7.2,0-11.4,1.1-11.4,8.2,0,4.2,1.4,6.8,5.5,6.8,5.6,0,13.4-4.9,13.8-15Z" fill="#ffa168"/><path d="M3673.4,2010.7v82.6H3660v-82.6Z" fill="#ffa168"/><path d="M3760.1,2018.8v12.3h-20.9v62.2h-13.9v-62.2h-20.9v-12.3Z" fill="#ffa168"/><path d="M3781.7,2038.9v9.4c2.5-6.5,7.1-10.6,13.2-10.6a15.1,15.1,0,0,1,3.2.3l-1,13.1-2.8-.3c-9.4,0-11.8,12-11.8,23.9v18.6H3769v-54.4Z" fill="#ffa168"/><path d="M3804.3,2045.4c5.3-5.8,12.4-7.7,20.9-7.7,14.3,0,21.6,5.6,21.6,20.3v35.3h-11.9v-7.9c-3.9,6.4-10,9.2-16.8,9.2a16.2,16.2,0,0,1-11.7-4.3c-3.1-3-4.6-6.7-4.6-12.1s2.3-10.6,6.5-13.5,11.2-4.6,19-4.6h6.8v-2c0-7.6-2.5-10-9.6-10-5.5,0-9.7,1.4-13.4,5.2Zm22.1,23.9c-7.3,0-11.5,1.1-11.5,8.2,0,4.2,1.4,6.8,5.5,6.8,5.6,0,13.4-4.9,13.8-15Z" fill="#ffa168"/><path d="M3869,2038.9l11.4,40.2,11.2-40.2h14.1l-18.1,54.4h-15.2l-17.9-54.4Z" fill="#ffa168"/><path d="M3957.9,2085.5c-5.9,6.2-12.9,9-22.3,9s-13.2-2.1-17.3-5.9-6.9-10.8-6.9-21.1,1.7-17.4,6.7-22.9,9.3-7.1,18.1-7.1c16.7,0,22.5,10.8,22.5,24.5a60.6,60.6,0,0,1-.5,7l-33.4.2c.1,9.1,1.6,14.5,11.1,14.5a21.6,21.6,0,0,0,15.2-6.2Zm-12.5-25.9c0-7.5-1.5-11.9-9.5-11.9s-10.6,4.8-10.8,11.9Z" fill="#ffa168"/><path d="M3985.4,2010.7v82.6H3972v-82.6Z" fill="#ffa168"/><path d="M3283.4,932.7s-.5-69.2,32.2-206.2L3095.8,828l-47.5,131.6Z" fill="#ffa168"/><path d="M3710.5,932.8s.5-69.2-32.2-206.3l219.8,101.7,47.4,131.6Z" fill="#ffa168"/><path d="M3362.7,1472.4c28.3-52.1,68.9-116.7,114.5-188.3-48-75.3-64-97.9-96.6-151.9-60.2,102.4-104.6,179.9-117,224.2Z" fill="#fbcf63"/><path d="M3495.7,414.4c-48.1,29-65.7,114.9-71.8,183.5-2.4,26.1-3.3,51.6-3.4,74.3,17.1-71.9,44.6-114.8,76.1-114.8s59.6,41.9,76.7,114.4c-.3-22.2-1.3-47.2-3.8-72.7-6.9-69.1-23.4-155.5-70.5-184.6" fill="#ffa168"/><path d="M3400.8,745.2c-2.3-24.4-4.1-84.5,1.7-148.6,3.4-38.1,9.3-71.5,17.6-99.5-59.7,126-108,354.1-108.1,439.9,0,61.2,226.2,377.9,312,536.3l99.1-115.9C3692.6,1247.2,3402.1,821.5,3400.8,745.2Z" fill="#96daea"/><path d="M3573.4,497c8.2,28.3,14.1,62.2,17.5,101,5.5,63,3.9,122.6,1.8,147.1-.2,25.1-35.8,95-80.1,173.3,41.5,72.8,62.4,108.8,96.8,166.1,36.4-61.4,71.9-127,71.9-147.3C3681.4,851.4,3633,622.9,3573.4,497Z" fill="#fbcf63"/><path d="M3202.6,1904.6l-88.9-1.2-13.4,47c-9.1,5.2-25.5,7.4-45.6,7.1s-34.8-3.3-42.1-8.3l90-287.5c14-3,35.4-4.8,59.1-4.5s45.9,2.7,59.4,6.2l85,289.8c-7.8,4.8-22.6,7.5-43.6,7.2s-37.2-3-47-8.4Zm-24.8-100.8a664.3,664.3,0,0,1-16.1-82.6h-4.9c-5,30.3-11.5,57.3-18,81.8l-8.2,31.9,55.3.7Z" fill="#96daea"/><path d="M3608.9,1733.5h-5c-3.6,27.9-11.9,67.1-18.4,92.4L3551.2,1959c-10.3,3.2-24.6,5-42.7,4.8s-32.3-2.5-42.1-5.9l-32.6-137.8c-4.6-19.8-11.8-66.6-13.1-89.2h-4.9l-3.1,225.5c-7.5,4-19.8,5.5-38.6,5.2s-31.2-2-38.5-6.2l4-289.9c14-3.5,34.9-5.2,65.7-4.8s52,2.7,65.1,6.6l28.1,128.7c4.6,21.8,9.1,58,11.2,85.5h4.9c2.8-27.5,7.8-64.7,12.6-84.3l30.1-128.8c13.1-3.5,34.1-5.3,64.8-4.8s50.8,2.7,64.7,6.6l-4,289.8c-7.4,4-19.7,5.5-38.6,5.2s-31.1-2-38.4-6.2Z" fill="#96daea"/><path d="M3890.4,1744.3l-3,217.7c-8.7,4.4-23.9,6.7-45.2,6.4s-36-3-44.6-7.6l3-217.7-75.8-1c-3.6-7.1-5.4-23.1-5.2-37.8s2.4-30.3,6.2-37.3l241.5,3.4c3.6,7,5.4,22.2,5.2,37.3s-2.5,30.8-6.2,37.7Z" fill="#96daea"/><path d="M3298.7,3304.5s-.5-64.2,29.9-191.5l-204.2,94.3-44,122.2Z" fill="#ffa168"/><path d="M3695.2,3304.6s.5-64.3-29.8-191.5l204.1,94.3,44,122.2Z" fill="#ffa168"/><path d="M3372.3,3805.6c26.2-48.4,64-108.3,106.3-174.8-44.6-69.9-59.4-90.9-89.7-141-55.9,95.1-97.1,167-108.6,208.1Z" fill="#fbcf63"/><path d="M3495.8,2823.2c-44.7,27-61,106.7-66.7,170.4-2.2,24.2-3,47.9-3.2,69,15.9-66.7,41.5-106.6,70.7-106.6s55.3,38.9,71.2,106.2c-.2-20.6-1.1-43.8-3.5-67.5-6.4-64.1-21.7-144.4-65.5-171.4" fill="#ffa168"/><path d="M3407.6,3130.4c-2.1-22.7-3.7-78.5,1.6-138,3.2-35.4,8.7-66.4,16.3-92.4-55.3,117-100.2,328.8-100.3,408.5,0,56.8,210.1,350.9,289.7,498l92-107.6C3678.6,3596.5,3408.9,3201.2,3407.6,3130.4Z" fill="#96daea"/><path d="M3567.9,2899.9c7.6,26.3,13.1,57.8,16.3,93.8,5.1,58.5,3.6,113.8,1.6,136.6-.1,23.3-33.2,88.2-74.3,160.9,38.5,67.6,57.9,101,89.9,154.3,33.8-57.1,66.8-118,66.8-136.8C3668.2,3229,3623.3,3016.8,3567.9,2899.9Z" fill="#fbcf63"/><path d="M3026.8,4458.3l-4.6-15.1h-24.3l-4.7,15.1h-13.3l22.6-69h15.6l22.4,69Zm-16.7-55.9-9.3,30.3h18.6Z" fill="#ffa168"/><path d="M3077.8,4458.3v-8.8c-2.8,6.3-8,10-15.4,10-9.6,0-14.6-6.2-14.6-17.4v-34.2h12.4v32c0,4.9,1.1,8.5,5.4,8.5s11.3-6.2,11.3-21v-19.5h12.4v50.4Z" fill="#ffa168"/><path d="M3134.6,4457.7a43.4,43.4,0,0,1-10.3,1.2c-13.3,0-16.6-6.1-16.6-18.4v-20.9h-8.2v-10.9h8.2v-14.2l12.4-1.2v15.4H3134v10.9h-13.9v20.1c0,6.1.4,8.4,6.4,8.4a35.3,35.3,0,0,0,7.2-.8Z" fill="#ffa168"/><path d="M3152.7,4383.4a7.6,7.6,0,1,1-7.6,7.6A7.4,7.4,0,0,1,3152.7,4383.4Zm6.2,24.5v50.4h-12.5v-50.4Z" fill="#ffa168"/><path d="M3199.4,4420.1a17,17,0,0,0-10.9-3.6c-4.4,0-6.8,1.2-6.8,4.7,0,8.1,24.9,4.3,24.9,22.5,0,11.6-10.2,15.7-20.4,15.7-6.5,0-13.6-1.7-17.5-6.2l6.1-7.9c3.1,3.1,7.4,4.5,12.4,4.5s7.6-1.1,7.6-5.4c0-8.9-25.1-4.7-25.1-22.5,0-10.2,8.9-15.1,19.8-15.1,6,0,12.1,1.5,16,5.6Z" fill="#ffa168"/><path d="M3228.5,4407.9v8.7c2.6-6,7.6-10,15.1-10s11.6,3.4,13.5,10.3c2.9-6.3,8.3-10.3,15.6-10.3,9.1,0,14.3,6.3,14.3,17.4v34.3h-12.3v-31.8c0-5.6-1.2-8.6-5.2-8.6-5.8,0-11.4,6.2-11.4,21.3v19.1h-12.4v-32c0-5.1-.9-8.4-5.1-8.4-5.8,0-11.4,6.2-11.4,21.3v19.1h-12.4v-50.4Z" fill="#ffa168"/><path d="M3341.5,4389.3l15.7,48,15.9-48h17.3l3.9,69h-12.8l-2.1-54.6-16.4,51.2h-11.9l-16.3-51.2-2.2,54.6H3320l4-69Z" fill="#ffa168"/><path d="M3448.4,4451.1c-5.5,5.7-12,8.3-20.7,8.3s-12.2-1.9-16-5.4-6.5-10-6.5-19.6,1.6-16.1,6.3-21.2,8.6-6.6,16.8-6.6c15.4,0,20.8,10,20.8,22.7a51.3,51.3,0,0,1-.5,6.5l-30.9.2c.1,8.4,1.5,13.4,10.3,13.4a20.1,20.1,0,0,0,14.1-5.7Zm-11.6-24c0-6.9-1.4-11-8.8-11s-9.8,4.4-10,11Z" fill="#ffa168"/><path d="M3504.2,4381.8v76.5h-11.7v-7.6a18.4,18.4,0,0,1-15.8,8.8,15.1,15.1,0,0,1-11.5-4.9c-3.9-4.4-5.8-10.7-5.8-20.8s1.6-16.7,6.3-21.5,7.7-5.5,14.3-5.5c4.9,0,9,1.1,11.9,4.6v-29.6Zm-16.9,63c3.3-3.8,5-8.6,5-14.7s-1.1-8-3.3-10.2a10.3,10.3,0,0,0-7.4-2.6c-7.7,0-9.2,5.4-9.2,16s1.6,15.5,7.2,15.5C3482.5,4448.8,3484.9,4447.5,3487.3,4444.8Z" fill="#ffa168"/><path d="M3524.8,4383.4a7.6,7.6,0,1,1-7.5,7.6A7.4,7.4,0,0,1,3524.8,4383.4Zm6.2,24.5v50.4h-12.4v-50.4Z" fill="#ffa168"/><path d="M3583,4451c-4.6,5.6-11.2,8.3-18.9,8.3s-12-2.4-15.2-6.1-5.6-11.2-5.6-19.5,1.4-15.8,6.5-21.2c3.4-3.5,8.4-5.9,16.1-5.9,6.1,0,12.1,1.5,16.4,5.9l-7,8.4a13,13,0,0,0-9.2-3.4c-8.2,0-9.8,4.9-9.8,15.4s1.6,15.7,8.4,15.7a14.5,14.5,0,0,0,10.9-5.3Z" fill="#ffa168"/><path d="M3590.6,4414c4.9-5.4,11.5-7.2,19.3-7.2,13.3,0,20,5.2,20,18.8v32.7h-11V4451a17.3,17.3,0,0,1-15.5,8.5,15.2,15.2,0,0,1-10.9-4c-2.8-2.7-4.2-6.2-4.2-11.2s2.1-9.8,6-12.5,10.4-4.2,17.6-4.2h6.3v-1.9c0-7-2.3-9.2-8.9-9.2s-9,1.3-12.4,4.8Zm20.4,22.1c-6.7,0-10.6,1-10.6,7.6,0,3.9,1.3,6.3,5.1,6.3s12.4-4.6,12.8-13.9Z" fill="#ffa168"/><path d="M3656.2,4381.8v76.5h-12.4v-76.5Z" fill="#ffa168"/><path d="M3736.6,4389.3v11.4h-19.4v57.6h-12.8v-57.6H3685v-11.4Z" fill="#ffa168"/><path d="M3756.6,4407.9v8.7c2.3-6,6.6-9.8,12.2-9.8a13.9,13.9,0,0,1,3,.3l-1,12.1-2.6-.2c-8.7,0-10.9,11.1-10.9,22.1v17.2h-12.4v-50.4Z" fill="#ffa168"/><path d="M3777.5,4414c4.9-5.4,11.5-7.2,19.3-7.2,13.3,0,20,5.2,20,18.8v32.7h-11V4451a17.3,17.3,0,0,1-15.5,8.5,15.2,15.2,0,0,1-10.9-4c-2.8-2.7-4.2-6.2-4.2-11.2s2.1-9.8,6-12.5,10.4-4.2,17.6-4.2h6.3v-1.9c0-7-2.3-9.2-8.9-9.2-5.1,0-9,1.3-12.4,4.8Zm20.4,22.1c-6.7,0-10.6,1-10.6,7.6,0,3.9,1.3,6.3,5.1,6.3s12.4-4.6,12.8-13.9Z" fill="#ffa168"/><path d="M3837.4,4407.9l10.5,37.3,10.4-37.3h13l-16.7,50.4h-14.1l-16.5-50.4Z" fill="#ffa168"/><path d="M3919.7,4451.1c-5.5,5.7-12,8.3-20.7,8.3s-12.2-1.9-16-5.4-6.4-10-6.4-19.6,1.6-16.1,6.2-21.2,8.6-6.6,16.8-6.6c15.4,0,20.8,10,20.8,22.7a51.3,51.3,0,0,1-.5,6.5l-30.9.2c.1,8.4,1.5,13.4,10.3,13.4a20.1,20.1,0,0,0,14.1-5.7Zm-11.6-24c0-6.9-1.4-11-8.8-11s-9.8,4.4-10,11Z" fill="#ffa168"/><path d="M3945.2,4381.8v76.5h-12.4v-76.5Z" fill="#ffa168"/><path d="M3258.3,4320.2c-31.3-.5-45.8-16.4-48-37.9-2.2-18.2-4.9-34.4-7.7-46.2l-95-1.3c-5.8,24.9-10.1,51.8-14.9,83.1l-36.2-.5c-24.5-.4-34.6-16.2-34.3-38.7.6-48,59.2-242.3,103.6-298.5l34.3.5c27.4.3,47.3,14.3,57.3,34.1,31.5,63.1,70.8,231.8,78.6,305.9ZM3158.5,4063c-13.2,30.2-26.5,70.2-35.3,106.8l66.6.9C3182,4133.9,3169.8,4091.6,3158.5,4063Z" fill="#96daea"/><path d="M3661.1,4325.7c-29.9-.4-50.8-17.8-50.3-51.7.4-32.3-.4-116.1-4.6-167.1-7.6,20.9-12.8,46.4-21.6,75.1l-19.5,65c-9.2,31.2-21.4,60.4-30.5,77l-24.5-.4c-21.5-.3-44.2-25.6-63.8-93.5-14.6-49.7-24.2-95.4-33.6-126.4-6.2,58.3-10.1,163.1-10.8,218.4l-28.9-.4c-31.9-.4-49.8-19.8-49.3-51.6,1.3-97,11.7-207.1,28.9-286.8l18.6.3c50.5.7,84.9,27.6,100.9,81.2l21,71.4c9.9,33,15,50.2,18.1,74.7,5.8-28.8,17-57.6,23.1-77.1l21.6-68.8c10.7-33.6,25.4-65.8,40.2-78.3l13.8.2c40.6.5,68.7,27.9,72.9,75,5.1,55.4,12.9,200.6,12.1,264.3Z" fill="#96daea"/><path d="M3921.5,4062.2l-41.2-.6-3.7,267.1-36.2-.5c-24-.4-46.4-12.9-45.9-46.2l3-221.5-79.9-1.1.5-29.9c.2-18.6,14.7-40.9,43.1-40.6l203.9,2.8-.4,29C3964.4,4041.7,3949.9,4062.6,3921.5,4062.2Z" fill="#96daea"/><path d="M932.4,3271.7s-.5-69.2,32.2-206.2L744.8,3167l-47.5,131.6Z" fill="#ffa168"/><path d="M1359.5,3271.8s.5-69.2-32.2-206.3l219.8,101.7,47.4,131.6Z" fill="#ffa168"/><path d="M1011.7,3811.4c28.3-52.1,68.9-116.7,114.5-188.3-48-75.3-64-97.9-96.6-151.9-60.2,102.4-104.6,179.9-117,224.2Z" fill="#fbcf63"/><path d="M1144.7,2753.4c-48.1,29-65.7,114.9-71.8,183.5-2.4,26.1-3.3,51.6-3.4,74.3,17.1-71.9,44.6-114.8,76.1-114.8s59.6,41.9,76.7,114.4c-.3-22.2-1.3-47.2-3.8-72.7-6.9-69.1-23.4-155.5-70.5-184.6" fill="#ffa168"/><path d="M1049.8,3084.2c-2.3-24.4-4.1-84.5,1.7-148.6,3.4-38.1,9.3-71.5,17.6-99.5-59.7,126-108,354.1-108.1,439.9,0,61.2,226.2,377.9,312,536.3l99.1-115.9C1341.6,3586.2,1051.1,3160.5,1049.8,3084.2Z" fill="#96daea"/><path d="M1222.4,2836c8.2,28.3,14.1,62.2,17.5,101,5.5,63,3.9,122.6,1.8,147.1-.2,25.1-35.8,95-80.1,173.3,41.5,72.8,62.4,108.8,96.8,166.1,36.4-61.4,71.9-127,71.9-147.3C1330.4,3190.4,1282,2961.9,1222.4,2836Z" fill="#fbcf63"/><path d="M647.8,4441.6H622l-5.1,15.7c-1.7,1-4.5,1.4-7.9,1.4s-6.2-.5-7.8-1.4l24.7-71.2a36,36,0,0,1,9.2-1.1,36.9,36.9,0,0,1,9.3,1.1l24.5,71.2c-1.5.9-4.1,1.4-8,1.4s-6.2-.5-8-1.4Zm-3.9-12.6-3.9-12a133,133,0,0,1-4.7-20.9h-.8a147.2,147.2,0,0,1-4.9,21.2l-3.8,11.7Z" fill="#ffa168"/><path d="M708.2,4452.2c-2.3,4.6-7.1,8.1-16.1,8.1s-16.9-2.7-16.9-19.7v-31.1c3.5-1.9,8.4-3,14.8-3v31.6c0,5.5,1.7,8.6,7.6,8.6a12,12,0,0,0,9.8-4.4v-34a18.3,18.3,0,0,1,7.5-1.2c3.6,0,6,.5,7.3,1.2V4457c-2.6,1.5-6.8,2.3-11.5,2.3l-1.7-7.1Z" fill="#ffa168"/><path d="M766.9,4407.5a17.2,17.2,0,0,1,.9,6.3,16.8,16.8,0,0,1-.9,6.3H753.4v19.2c0,4.9,1.4,7.5,6.9,7.5a16.2,16.2,0,0,0,9.3-2.8c.5,4.3-1.1,10.3-3.2,13s-6.5,3.3-11.6,3.3c-12.6,0-16.2-7.5-16.2-18.7v-21.5h-7.9a37.8,37.8,0,0,1,2-12.6h5.9v-11c3.6-2.7,9-4,14.8-4.1v15.1Z" fill="#ffa168"/><path d="M794.7,4389.8c0,6.1-3.6,9.3-8.9,9.3s-9-3.1-9-9.2,3.8-8.8,9-8.8S794.7,4384.2,794.7,4389.8Zm-16.3,18.5c1.4-.7,3.8-1.2,7.4-1.2s6,.5,7.3,1.2v49.2c-1.3.7-3.7,1.2-7.3,1.2s-6-.5-7.4-1.2Z" fill="#ffa168"/><path d="M821.6,4448.9c5.2,0,7.3-1.6,7.3-4.7,0-8-23.3-4.1-23.3-22.2,0-10.4,6.6-16.5,19-16.5,5.1,0,10.5,1,14.5,3.4a22.9,22.9,0,0,1,2.4,12.6,30.1,30.1,0,0,0-15.3-4.7c-4.4,0-5.7,1.4-5.7,3.8,0,7.6,23.4,3.8,23.4,21.9,0,13-9.1,17.8-21.8,17.8-5.3,0-11.1-.8-15.5-2.8-2.1-3.5-2.9-9.7-2.2-13.2C808.6,4447,816,4448.9,821.6,4448.9Z" fill="#ffa168"/><path d="M869.5,4457.5c-1.4.7-3.8,1.2-7.4,1.2s-6-.5-7.4-1.2v-48.7c2.7-1.5,7.1-2.3,12-2.3l.8,8.3h.9c2.3-5,7.3-9.3,16.5-9.3,6,0,12,1.7,14.8,8.8h.8c2.1-4.8,7.1-8.8,16.2-8.8s16.6,2.7,16.6,19.5v32.5c-1.3.7-3.7,1.2-7.3,1.2s-6-.5-7.4-1.2v-29.8c0-5.3-1.8-8.7-7.6-8.7a10.6,10.6,0,0,0-9.8,5.8c.1.9.2,3.1.2,5.2v27.5c-1.3.7-3.7,1.2-7.2,1.2s-6-.5-7.4-1.2v-29.8c0-5.3-1.7-8.7-7.5-8.7a10.5,10.5,0,0,0-9.8,5.8Z" fill="#ffa168"/><path d="M1032.7,4397.7h-.8a138.3,138.3,0,0,1-4.9,20.4l-12.1,39.8c-1.6.7-3.9,1-7.5,1s-5.7-.3-7.2-1l-12.6-40.3a141.8,141.8,0,0,1-4.5-19.9h-.8v59.9c-1.4.8-3.6,1.1-6.9,1.1s-5.4-.3-6.8-1.1v-71.1a47.4,47.4,0,0,1,11.4-1.1,46.6,46.6,0,0,1,11.5,1.1l11.7,37.5a112.7,112.7,0,0,1,4.3,20.1h.8a166,166,0,0,1,4-19.9l11.3-37.7a46.6,46.6,0,0,1,11.5-1.1,47.4,47.4,0,0,1,11.4,1.1v71.1c-1.4.8-3.6,1.1-6.8,1.1s-5.5-.3-7-1.1Z" fill="#ffa168"/><path d="M1074.6,4437.7c.6,7.1,5.7,10.6,15.8,10.6a39.6,39.6,0,0,0,15.9-3.1,17.4,17.4,0,0,1-3.7,11.6c-3.3,1.9-9,3.5-16.1,3.5-17.8,0-27.3-10.3-27.3-26.8s10.2-28,26.2-28,21.7,9.1,21.7,22.6a32.2,32.2,0,0,1-1.5,9.6Zm18.6-10.7c.9-5.3-1.1-10.5-8.4-10.5s-10.2,4-10.6,10.5Z" fill="#ffa168"/><path d="M1150,4385.2c3.4-2,8.2-3,14.8-3V4457a24.5,24.5,0,0,1-11,2.3l-2-7h-.8c-2.7,5.3-8.6,8-15.4,8-13.8,0-20.3-10.3-20.3-25.5,0-18.6,9.8-29.3,25.2-29.3a22.4,22.4,0,0,1,9.5,1.8Zm.2,34.4a14.7,14.7,0,0,0-6.4-1.3c-9.2,0-13.3,6.2-13.3,15.5s3.7,13.2,10.4,13.2c4.5,0,7.2-2.1,9.3-3.8Z" fill="#ffa168"/><path d="M1195.6,4389.8c0,6.1-3.6,9.3-8.9,9.3s-9-3.1-9-9.2,3.8-8.8,9-8.8S1195.6,4384.2,1195.6,4389.8Zm-16.3,18.5c1.4-.7,3.8-1.2,7.4-1.2s6,.5,7.4,1.2v49.2c-1.4.7-3.8,1.2-7.4,1.2s-6-.5-7.4-1.2Z" fill="#ffa168"/><path d="M1235.5,4447.2a28.4,28.4,0,0,0,12.8-3c.7,4.1-1.2,10.4-3.9,13.3a31.8,31.8,0,0,1-13.7,2.8c-16.5,0-25.5-10.1-25.5-26.7,0-19,11.4-28.1,26.9-28.1,5,0,9.5.9,12.5,2.7s3.3,9,2.6,13.2a21,21,0,0,0-11.7-3.2c-9.2,0-15.1,4.1-15.1,14.4S1226.3,4447.2,1235.5,4447.2Z" fill="#ffa168"/><path d="M1285.8,4453c-2.3,4.5-7,7.3-14.1,7.3-9,0-16.7-4.5-16.7-16.3s9-17.2,20.8-17.2a31.2,31.2,0,0,1,9.3,1.3v-1.4c0-6.3-3.1-8.5-9.8-8.5a32.4,32.4,0,0,0-16.3,4.3c-1.3-4-.8-10.3,1.6-13.7s10-3.3,17.5-3.3c14.7,0,21.8,5.2,21.8,20.2v17.7c0,3.2,1.4,3.9,3.4,3.9a7.2,7.2,0,0,0,4.4-1.3,21.3,21.3,0,0,1-2.6,12,15.5,15.5,0,0,1-8.5,2.3c-5.9,0-9-2.5-10-7.3Zm-.4-15.1a18.5,18.5,0,0,0-6.7-1.2c-6,0-8.9,2.4-8.9,6.3s2.9,5.4,7,5.4,6.5-1,8.6-3.6Z" fill="#ffa168"/><path d="M1328.1,4460.3c-10.2,0-13.2-6.6-13.2-15.7v-59.4c3.4-2,8.2-3,14.8-3v60c0,3.8,1.3,4.9,4.3,4.9a10.6,10.6,0,0,0,6.2-1.9c.4,4.3-.9,9.8-2.9,12.8A17.6,17.6,0,0,1,1328.1,4460.3Z" fill="#ffa168"/><path d="M1399.9,4399.3v58.1c-1.5.8-4,1.3-7.7,1.3s-6.2-.5-7.7-1.3v-58.1H1364a16.9,16.9,0,0,1-1.2-6.8,16,16,0,0,1,1.2-6.7h56.4a18.1,18.1,0,0,1,1.1,6.7,19.2,19.2,0,0,1-1.1,6.8Z" fill="#ffa168"/><path d="M1447.6,4405.5a10.8,10.8,0,0,1,4.8.9,17.3,17.3,0,0,1,2.2,9.3,15.9,15.9,0,0,1-1,6.2,12.7,12.7,0,0,0-7-1.8c-5.2,0-9.1,3.6-11,8.9v28.5c-1.3.7-3.8,1.2-7.4,1.2s-6-.5-7.4-1.2v-48.7c2.7-1.5,7-2.3,11.9-2.3l1.1,9.4h.8C1436,4410.2,1439.3,4405.5,1447.6,4405.5Z" fill="#ffa168"/><path d="M1487.3,4453c-2.2,4.5-7,7.3-14.1,7.3-8.9,0-16.7-4.5-16.7-16.3s9-17.2,20.8-17.2a31.2,31.2,0,0,1,9.3,1.3v-1.4c0-6.3-3.1-8.5-9.8-8.5a32.7,32.7,0,0,0-16.3,4.3c-1.2-4-.7-10.3,1.6-13.7s10-3.3,17.6-3.3c14.7,0,21.7,5.2,21.7,20.2v17.7c0,3.2,1.4,3.9,3.5,3.9a7.6,7.6,0,0,0,4.4-1.3,21.3,21.3,0,0,1-2.7,12,15.3,15.3,0,0,1-8.5,2.3c-5.9,0-8.9-2.5-10-7.3Zm-.4-15.1a18.1,18.1,0,0,0-6.7-1.2c-5.9,0-8.9,2.4-8.9,6.3s3,5.4,7,5.4,6.6-1,8.6-3.6Z" fill="#ffa168"/><path d="M1536.8,4447.3a93.9,93.9,0,0,1,3-13.2l7.7-26.3a17.1,17.1,0,0,1,6.1-.9c4.2,0,7.1.8,8.9,2l-16.1,48.4c-5.4,1.5-13,2-20.2,2l-16.7-50.4c1.8-1.2,4.7-2,8.9-2a17.8,17.8,0,0,1,6.2.9l8.2,26.3a90.9,90.9,0,0,1,3.2,13.2Z" fill="#ffa168"/><path d="M1581.5,4437.7c.6,7.1,5.7,10.6,15.8,10.6a38.9,38.9,0,0,0,15.9-3.1,17.8,17.8,0,0,1-3.6,11.6c-3.4,1.9-9.1,3.5-16.2,3.5-17.8,0-27.3-10.3-27.3-26.8s10.2-28,26.2-28,21.8,9.1,21.8,22.6a32.2,32.2,0,0,1-1.6,9.6Zm18.7-10.7c.8-5.3-1.1-10.5-8.5-10.5s-10.2,4-10.6,10.5Z" fill="#ffa168"/><path d="M1638.4,4460.3c-10.2,0-13.2-6.6-13.2-15.7v-59.4c3.4-2,8.2-3,14.8-3v60c0,3.8,1.3,4.9,4.3,4.9a10.6,10.6,0,0,0,6.2-1.9c.4,4.3-.9,9.8-2.9,12.8A17.6,17.6,0,0,1,1638.4,4460.3Z" fill="#ffa168"/><path d="M907.3,4320.2c-31.3-.5-45.8-16.4-48-37.9-2.2-18.2-4.9-34.4-7.7-46.2l-95-1.3c-5.8,24.9-10.1,51.8-14.9,83.1l-36.2-.5c-24.5-.4-34.6-16.2-34.3-38.7.6-48,59.2-242.3,103.6-298.5l34.3.5c27.4.3,47.3,14.3,57.3,34.1,31.5,63.1,70.8,231.8,78.6,305.9ZM807.5,4063c-13.2,30.2-26.5,70.2-35.3,106.8l66.6.9C831,4133.9,818.8,4091.6,807.5,4063Z" fill="#96daea"/><path d="M1310.1,4325.7c-29.9-.4-50.8-17.8-50.3-51.7.4-32.3-.4-116.1-4.6-167.1-7.6,20.9-12.8,46.4-21.6,75.1l-19.5,65c-9.2,31.2-21.4,60.4-30.5,77l-24.5-.4c-21.5-.3-44.2-25.6-63.8-93.5-14.6-49.7-24.2-95.4-33.6-126.4-6.2,58.3-10.1,163.1-10.8,218.4l-28.9-.4c-31.9-.4-49.8-19.8-49.3-51.6,1.3-97,11.7-207.1,28.9-286.8l18.6.3c50.5.7,84.9,27.6,100.9,81.2l21,71.4c9.9,33,15,50.2,18.1,74.7,5.8-28.8,17-57.6,23.1-77.1l21.6-68.8c10.7-33.6,25.4-65.8,40.2-78.3l13.8.2c40.6.5,68.7,27.9,72.9,75,5.1,55.4,12.9,200.6,12.1,264.3Z" fill="#96daea"/><path d="M1570.5,4062.2l-41.2-.6-3.7,267.1-36.2-.5c-24-.4-46.4-12.9-45.9-46.2l3-221.5-79.9-1.1.5-29.9c.2-18.6,14.7-40.9,43.1-40.6l203.9,2.8-.4,29C1613.4,4041.7,1598.9,4062.6,1570.5,4062.2Z" fill="#96daea"/><path d="M932.4,932.7s-.5-69.2,32.2-206.2L744.8,828,697.3,959.6Z" fill="#ffa168"/><path d="M1359.5,932.8s.5-69.2-32.2-206.3l219.8,101.7,47.4,131.6Z" fill="#ffa168"/><path d="M1011.7,1472.4c28.3-52.1,68.9-116.7,114.5-188.3-48-75.3-64-97.9-96.6-151.9-60.2,102.4-104.6,179.9-117,224.2Z" fill="#fbcf63"/><path d="M1144.7,414.4c-48.1,29-65.7,114.9-71.8,183.5-2.4,26.1-3.3,51.6-3.4,74.3,17.1-71.9,44.6-114.8,76.1-114.8s59.6,41.9,76.7,114.4c-.3-22.2-1.3-47.2-3.8-72.7-6.9-69.1-23.4-155.5-70.5-184.6" fill="#ffa168"/><path d="M1049.8,745.2c-2.3-24.4-4.1-84.5,1.7-148.6,3.4-38.1,9.3-71.5,17.6-99.5-59.7,126-108,354.1-108.1,439.9,0,61.2,226.2,377.9,312,536.3l99.1-115.9C1341.6,1247.2,1051.1,821.5,1049.8,745.2Z" fill="#96daea"/><path d="M1222.4,497c8.2,28.3,14.1,62.2,17.5,101,5.5,63,3.9,122.6,1.8,147.1-.2,25.1-35.8,95-80.1,173.3,41.5,72.8,62.4,108.8,96.8,166.1,36.4-61.4,71.9-127,71.9-147.3C1330.4,851.4,1282,622.9,1222.4,497Z" fill="#fbcf63"/><path d="M648.3,2079.6H622.4l-5.1,15.7c-1.7,1-4.4,1.4-7.9,1.4s-6.1-.5-7.8-1.4l24.7-71.2a39.4,39.4,0,0,1,18.5,0l24.5,71.2c-1.5.9-4.1,1.4-8,1.4s-6.2-.5-7.9-1.4Zm-4-12.6-3.9-12a145.3,145.3,0,0,1-4.7-20.9h-.8a147.2,147.2,0,0,1-4.9,21.2l-3.8,11.7Z" fill="#ffa168"/><path d="M708.5,2090.2c-2.2,4.6-7,8.1-16,8.1s-16.9-2.7-16.9-19.7v-31.1c3.5-1.9,8.4-3,14.8-3v31.6c0,5.5,1.7,8.6,7.6,8.6a12,12,0,0,0,9.8-4.4v-34c1.4-.7,3.9-1.2,7.5-1.2s6,.5,7.3,1.2V2095c-2.6,1.5-6.8,2.3-11.5,2.3l-1.8-7.1Z" fill="#ffa168"/><path d="M767.3,2045.5a17.2,17.2,0,0,1,.9,6.3,16.8,16.8,0,0,1-.9,6.3H753.7v19.2c0,4.9,1.4,7.5,7,7.5a15.9,15.9,0,0,0,9.2-2.8c.5,4.3-1.1,10.3-3.1,13s-6.6,3.3-11.7,3.3c-12.5,0-16.2-7.5-16.2-18.7v-21.5h-7.8a37.8,37.8,0,0,1,2-12.6h5.8v-11c3.7-2.7,9.1-4,14.8-4.1v15.1Z" fill="#ffa168"/><path d="M795,2027.8c0,6.1-3.5,9.3-8.8,9.3s-9-3.1-9-9.2,3.7-8.8,9-8.8S795,2022.2,795,2027.8Zm-16.3,18.5c1.4-.7,3.9-1.2,7.5-1.2s6,.5,7.3,1.2v49.2c-1.3.7-3.8,1.2-7.3,1.2s-6.1-.5-7.5-1.2Z" fill="#ffa168"/><path d="M822,2086.9c5.2,0,7.2-1.6,7.2-4.7,0-8-23.3-4.1-23.3-22.2,0-10.4,6.7-16.5,19-16.5,5.1,0,10.5,1,14.5,3.4a22,22,0,0,1,2.4,12.6,29.8,29.8,0,0,0-15.3-4.7c-4.3,0-5.7,1.4-5.7,3.8,0,7.6,23.4,3.8,23.4,21.9,0,13-9.1,17.8-21.7,17.8-5.3,0-11.2-.8-15.5-2.8-2.2-3.5-3-9.7-2.3-13.2C808.9,2085,816.3,2086.9,822,2086.9Z" fill="#ffa168"/><path d="M869.8,2095.5c-1.3.7-3.8,1.2-7.4,1.2s-6-.5-7.4-1.2v-48.7c2.8-1.5,7.1-2.3,12-2.3l.9,8.3h.8c2.3-5,7.3-9.3,16.5-9.3,6,0,12,1.7,14.8,8.8h.8c2.1-4.8,7.1-8.8,16.2-8.8s16.6,2.7,16.6,19.5v32.5c-1.3.7-3.7,1.2-7.3,1.2s-6-.5-7.4-1.2v-29.8c0-5.3-1.8-8.7-7.6-8.7a10.6,10.6,0,0,0-9.8,5.8c.1.9.2,3.1.2,5.2v27.5c-1.3.7-3.7,1.2-7.2,1.2a17.7,17.7,0,0,1-7.4-1.2v-29.8c0-5.3-1.7-8.7-7.5-8.7a10.5,10.5,0,0,0-9.8,5.8Z" fill="#ffa168"/><path d="M1033,2035.7h-.8c-.8,6.1-3.3,15.1-4.9,20.4l-12.2,39.8c-1.5.7-3.8,1-7.4,1s-5.7-.3-7.2-1l-12.6-40.3c-1.5-4.8-3.9-14.2-4.5-19.9h-.8v59.9c-1.4.8-3.7,1.1-6.9,1.1s-5.4-.3-6.9-1.1v-71.1a48.9,48.9,0,0,1,11.5-1.1,47.2,47.2,0,0,1,11.5,1.1l11.7,37.5a122.3,122.3,0,0,1,4.3,20.1h.8a148.4,148.4,0,0,1,4-19.9l11.2-37.7a47.2,47.2,0,0,1,11.5-1.1,48.9,48.9,0,0,1,11.5,1.1v71.1c-1.5.8-3.6,1.1-6.9,1.1s-5.5-.3-6.9-1.1Z" fill="#ffa168"/><path d="M1074.8,2075.7c.6,7.1,5.7,10.6,15.8,10.6a39.2,39.2,0,0,0,15.9-3.1,17.8,17.8,0,0,1-3.6,11.6c-3.4,1.9-9.1,3.5-16.2,3.5-17.8,0-27.3-10.3-27.3-26.8s10.2-28,26.2-28,21.7,9.1,21.7,22.6a32.2,32.2,0,0,1-1.5,9.6Zm18.7-10.7c.8-5.3-1.1-10.5-8.5-10.5s-10.2,4-10.6,10.5Z" fill="#ffa168"/><path d="M1150.2,2023.2c3.5-2,8.2-3,14.8-3V2095a24.5,24.5,0,0,1-11,2.3l-2-7h-.8c-2.6,5.3-8.6,8-15.4,8-13.8,0-20.3-10.3-20.3-25.5,0-18.6,9.8-29.3,25.2-29.3a22.4,22.4,0,0,1,9.5,1.8Zm.2,34.4a14.4,14.4,0,0,0-6.4-1.3c-9.2,0-13.3,6.2-13.3,15.5s3.7,13.2,10.4,13.2c4.5,0,7.2-2.1,9.3-3.8Z" fill="#ffa168"/><path d="M1195.8,2027.8c0,6.1-3.6,9.3-8.9,9.3s-9-3.1-9-9.2,3.8-8.8,9-8.8S1195.8,2022.2,1195.8,2027.8Zm-16.3,18.5c1.4-.7,3.8-1.2,7.4-1.2s6,.5,7.3,1.2v49.2c-1.3.7-3.7,1.2-7.3,1.2s-6-.5-7.4-1.2Z" fill="#ffa168"/><path d="M1235.7,2085.2a28.8,28.8,0,0,0,12.8-3c.6,4.1-1.2,10.4-4,13.3a31,31,0,0,1-13.6,2.8c-16.6,0-25.5-10.1-25.5-26.7,0-19,11.4-28.1,26.9-28.1,5,0,9.5.9,12.4,2.7s3.4,9,2.7,13.2a21,21,0,0,0-11.7-3.2c-9.2,0-15.1,4.1-15.1,14.4S1226.5,2085.2,1235.7,2085.2Z" fill="#ffa168"/><path d="M1285.9,2091c-2.2,4.5-7,7.3-14,7.3-9,0-16.8-4.5-16.8-16.3s9-17.2,20.8-17.2a30.8,30.8,0,0,1,9.3,1.3v-1.4c0-6.3-3-8.5-9.8-8.5a32.7,32.7,0,0,0-16.3,4.3c-1.2-4-.7-10.3,1.6-13.7s10-3.3,17.6-3.3c14.7,0,21.7,5.2,21.7,20.2v17.7c0,3.2,1.4,3.9,3.5,3.9a7.4,7.4,0,0,0,4.4-1.3,20.6,20.6,0,0,1-2.7,12,15.2,15.2,0,0,1-8.4,2.3c-6,0-9-2.5-10-7.3Zm-.4-15.1a17.8,17.8,0,0,0-6.7-1.2c-5.9,0-8.9,2.4-8.9,6.3s3,5.4,7.1,5.4,6.5-1,8.5-3.6Z" fill="#ffa168"/><path d="M1328.3,2098.3c-10.2,0-13.3-6.6-13.3-15.7v-59.4c3.5-2,8.3-3,14.8-3v60c0,3.8,1.3,4.9,4.3,4.9a10.3,10.3,0,0,0,6.2-1.9,23.1,23.1,0,0,1-2.8,12.8A18.1,18.1,0,0,1,1328.3,2098.3Z" fill="#ffa168"/><path d="M1400,2037.3v58.1c-1.4.8-4,1.3-7.7,1.3s-6.2-.5-7.7-1.3v-58.1h-20.5a19.2,19.2,0,0,1-1.1-6.8,18.1,18.1,0,0,1,1.1-6.7h56.4a18.1,18.1,0,0,1,1.1,6.7,19.2,19.2,0,0,1-1.1,6.8Z" fill="#ffa168"/><path d="M1447.7,2043.5a10.8,10.8,0,0,1,4.8.9,18.3,18.3,0,0,1,2.2,9.3,18,18,0,0,1-1,6.2,12.7,12.7,0,0,0-7-1.8c-5.2,0-9.1,3.6-11,8.9v28.5c-1.3.7-3.8,1.2-7.4,1.2s-6-.5-7.4-1.2v-48.7c2.7-1.5,7-2.3,11.9-2.3l1,9.4h.9C1436.1,2048.2,1439.3,2043.5,1447.7,2043.5Z" fill="#ffa168"/><path d="M1487.4,2091c-2.3,4.5-7,7.3-14.1,7.3-9,0-16.7-4.5-16.7-16.3s9-17.2,20.8-17.2a31.2,31.2,0,0,1,9.3,1.3v-1.4c0-6.3-3.1-8.5-9.8-8.5a32.7,32.7,0,0,0-16.3,4.3c-1.3-4-.7-10.3,1.6-13.7s10-3.3,17.5-3.3c14.7,0,21.8,5.2,21.8,20.2v17.7c0,3.2,1.4,3.9,3.4,3.9a7.2,7.2,0,0,0,4.4-1.3,21.3,21.3,0,0,1-2.6,12,15.5,15.5,0,0,1-8.5,2.3c-5.9,0-9-2.5-10-7.3Zm-.4-15.1a18.5,18.5,0,0,0-6.7-1.2c-6,0-8.9,2.4-8.9,6.3s2.9,5.4,7,5.4,6.5-1,8.6-3.6Z" fill="#ffa168"/><path d="M1536.9,2085.3a110.2,110.2,0,0,1,2.9-13.2l7.8-26.3a16.7,16.7,0,0,1,6.1-.9c4.2,0,7,.8,8.9,2l-16.1,48.4c-5.5,1.5-13,2-20.2,2l-16.8-50.4c1.9-1.2,4.7-2,9-2a16.7,16.7,0,0,1,6.1.9l8.3,26.3a106.1,106.1,0,0,1,3.1,13.2Z" fill="#ffa168"/><path d="M1581.5,2075.7c.6,7.1,5.7,10.6,15.8,10.6a39.8,39.8,0,0,0,16-3.1,17.9,17.9,0,0,1-3.7,11.6c-3.4,1.9-9.1,3.5-16.1,3.5-17.9,0-27.4-10.3-27.4-26.8s10.2-28,26.2-28,21.8,9.1,21.8,22.6a29.3,29.3,0,0,1-1.6,9.6Zm18.7-10.7c.8-5.3-1.1-10.5-8.5-10.5s-10.2,4-10.6,10.5Z" fill="#ffa168"/><path d="M1638.5,2098.3c-10.2,0-13.3-6.6-13.3-15.7v-59.4c3.5-2,8.3-3,14.8-3v60c0,3.8,1.3,4.9,4.3,4.9a10.3,10.3,0,0,0,6.2-1.9c.4,4.3-.9,9.8-2.9,12.8A17.5,17.5,0,0,1,1638.5,2098.3Z" fill="#ffa168"/><path d="M851.6,1904.6l-88.9-1.2-13.4,47c-9.1,5.2-25.5,7.4-45.6,7.1s-34.8-3.3-42.1-8.3l90-287.5c14-3,35.4-4.8,59.1-4.5s45.9,2.7,59.4,6.2l85,289.8c-7.8,4.8-22.6,7.5-43.6,7.2s-37.2-3-47-8.4Zm-24.8-100.8a664.3,664.3,0,0,1-16.1-82.6h-4.9c-5,30.3-11.5,57.3-18,81.8l-8.2,31.9,55.3.7Z" fill="#96daea"/><path d="M1257.9,1733.5h-5c-3.6,27.9-11.9,67.1-18.4,92.4L1200.2,1959c-10.3,3.2-24.6,5-42.7,4.8s-32.3-2.5-42.1-5.9l-32.6-137.8c-4.6-19.8-11.8-66.6-13.1-89.2h-4.9l-3.1,225.5c-7.5,4-19.8,5.5-38.6,5.2s-31.2-2-38.5-6.2l4-289.9c14-3.5,34.9-5.2,65.7-4.8s52,2.7,65.1,6.6l28.1,128.7c4.6,21.8,9.1,58,11.2,85.5h4.9c2.8-27.5,7.8-64.7,12.6-84.3l30.1-128.8c13.1-3.5,34.1-5.3,64.8-4.8s50.8,2.7,64.7,6.6l-4,289.8c-7.4,4-19.7,5.5-38.6,5.2s-31.1-2-38.4-6.2Z" fill="#96daea"/><path d="M1539.4,1744.3l-3,217.7c-8.7,4.4-23.9,6.7-45.2,6.4s-36-3-44.6-7.6l3-217.7-75.8-1c-3.6-7.1-5.4-23.1-5.2-37.8s2.4-30.3,6.2-37.3l241.5,3.4c3.6,7,5.4,22.2,5.2,37.3s-2.5,30.8-6.2,37.7Z" fill="#96daea"/></svg>